<ttFont>
    <TTGlyph name="A" xMin="15" yMin="-10" xMax="750" yMax="733">
      <contour>
        <pt x="463" y="681" on="1"/>
        <pt x="733" y="123" on="1"/>
        <pt x="750" y="89" on="0"/>
        <pt x="750" y="72" on="1"/>
        <pt x="750" y="36" on="0"/>
        <pt x="692" y="7" on="1"/>
        <pt x="658" y="-10" on="0"/>
        <pt x="619" y="-10" on="0"/>
        <pt x="594" y="8" on="0"/>
        <pt x="583" y="28" on="0"/>
        <pt x="573" y="48" on="1"/>
        <pt x="521" y="156" on="1"/>
        <pt x="244" y="156" on="1"/>
        <pt x="192" y="48" on="1"/>
        <pt x="182" y="28" on="0"/>
        <pt x="171" y="10" on="0"/>
        <pt x="146" y="-9" on="0"/>
        <pt x="107" y="-9" on="0"/>
        <pt x="73" y="8" on="1"/>
        <pt x="15" y="36" on="0"/>
        <pt x="15" y="72" on="1"/>
        <pt x="15" y="89" on="0"/>
        <pt x="32" y="123" on="1"/>
        <pt x="302" y="682" on="1"/>
        <pt x="313" y="705" on="0"/>
        <pt x="358" y="733" on="0"/>
        <pt x="383" y="733" on="1"/>
        <pt x="437" y="733" on="0"/>
      </contour>
      <contour>
        <pt x="382" y="441" on="1"/>
        <pt x="316" y="304" on="1"/>
        <pt x="449" y="304" on="1"/>
      </contour>
    </TTGlyph>
    <TTGlyph name="AE" xMin="0" yMin="-9" xMax="1123" yMax="734">
      <contour>
        <pt x="730" y="178" on="1"/>
        <pt x="1041" y="178" on="1"/>
        <pt x="1078" y="178" on="0"/>
        <pt x="1095" y="168" on="1"/>
        <pt x="1123" y="151" on="0"/>
        <pt x="1123" y="89" on="1"/>
        <pt x="1123" y="19" on="0"/>
        <pt x="1086" y="6" on="1"/>
        <pt x="1069" y="1" on="0"/>
        <pt x="1034" y="1" on="1"/>
        <pt x="640" y="1" on="1"/>
        <pt x="604" y="1" on="0"/>
        <pt x="552" y="55" on="0"/>
        <pt x="552" y="91" on="1"/>
        <pt x="552" y="149" on="1"/>
        <pt x="269" y="149" on="1"/>
        <pt x="159" y="28" on="1"/>
        <pt x="126" y="-9" on="0"/>
        <pt x="64" y="-9" on="0"/>
        <pt x="0" y="68" on="0"/>
        <pt x="0" y="115" on="0"/>
        <pt x="33" y="152" on="1"/>
        <pt x="97" y="221" on="0"/>
        <pt x="537" y="708" on="1"/>
        <pt x="562" y="734" on="0"/>
        <pt x="601" y="734" on="1"/>
        <pt x="1035" y="734" on="1"/>
        <pt x="1058" y="734" on="0"/>
        <pt x="1081" y="731" on="0"/>
        <pt x="1096" y="723" on="1"/>
        <pt x="1123" y="709" on="0"/>
        <pt x="1123" y="645" on="1"/>
        <pt x="1123" y="583" on="0"/>
        <pt x="1098" y="568" on="1"/>
        <pt x="1077" y="557" on="0"/>
        <pt x="1040" y="557" on="1"/>
        <pt x="730" y="557" on="1"/>
        <pt x="730" y="456" on="1"/>
        <pt x="925" y="456" on="1"/>
        <pt x="965" y="456" on="0"/>
        <pt x="1001" y="436" on="0"/>
        <pt x="1013" y="398" on="0"/>
        <pt x="1013" y="336" on="0"/>
        <pt x="1001" y="298" on="0"/>
        <pt x="972" y="282" on="0"/>
        <pt x="948" y="279" on="0"/>
        <pt x="924" y="279" on="1"/>
        <pt x="730" y="279" on="1"/>
      </contour>
      <contour>
        <pt x="403" y="297" on="1"/>
        <pt x="552" y="297" on="1"/>
        <pt x="552" y="461" on="1"/>
        <pt x="548" y="456" on="0"/>
      </contour>
    </TTGlyph>
    <TTGlyph name="Aacute" xMin="15" yMin="-10" xMax="750" yMax="974">
      <contour>
        <pt x="353" y="776" on="1"/>
        <pt x="353" y="776" on="0"/>
        <pt x="323" y="769" on="1"/>
        <pt x="293" y="769" on="0"/>
        <pt x="274" y="828" on="1"/>
        <pt x="266" y="852" on="0"/>
        <pt x="266" y="886" on="0"/>
        <pt x="272" y="895" on="1"/>
        <pt x="282" y="908" on="0"/>
        <pt x="309" y="916" on="1"/>
        <pt x="474" y="967" on="1"/>
        <pt x="500" y="974" on="0"/>
        <pt x="504" y="974" on="1"/>
        <pt x="534" y="974" on="0"/>
        <pt x="552" y="915" on="1"/>
        <pt x="560" y="891" on="0"/>
        <pt x="560" y="858" on="0"/>
        <pt x="554" y="849" on="1"/>
        <pt x="544" y="836" on="0"/>
        <pt x="517" y="828" on="1"/>
      </contour>
      <contour>
        <pt x="463" y="681" on="1"/>
        <pt x="733" y="123" on="1"/>
        <pt x="750" y="89" on="0"/>
        <pt x="750" y="72" on="1"/>
        <pt x="750" y="36" on="0"/>
        <pt x="692" y="7" on="1"/>
        <pt x="658" y="-10" on="0"/>
        <pt x="619" y="-10" on="0"/>
        <pt x="594" y="8" on="0"/>
        <pt x="583" y="28" on="0"/>
        <pt x="573" y="48" on="1"/>
        <pt x="521" y="156" on="1"/>
        <pt x="244" y="156" on="1"/>
        <pt x="192" y="48" on="1"/>
        <pt x="182" y="28" on="0"/>
        <pt x="171" y="10" on="0"/>
        <pt x="146" y="-9" on="0"/>
        <pt x="107" y="-9" on="0"/>
        <pt x="73" y="8" on="1"/>
        <pt x="15" y="36" on="0"/>
        <pt x="15" y="72" on="1"/>
        <pt x="15" y="89" on="0"/>
        <pt x="32" y="123" on="1"/>
        <pt x="302" y="682" on="1"/>
        <pt x="313" y="705" on="0"/>
        <pt x="358" y="733" on="0"/>
        <pt x="383" y="733" on="1"/>
        <pt x="437" y="733" on="0"/>
      </contour>
      <contour>
        <pt x="382" y="441" on="1"/>
        <pt x="316" y="304" on="1"/>
        <pt x="449" y="304" on="1"/>
      </contour>
    </TTGlyph>
    <TTGlyph name="Acircumflex" xMin="15" yMin="-10" xMax="750" yMax="974">
      <contour>
        <pt x="384" y="974" on="1"/>
        <pt x="407" y="969" on="1"/>
        <pt x="500" y="939" on="0"/>
        <pt x="583" y="911" on="0"/>
        <pt x="583" y="876" on="1"/>
        <pt x="583" y="857" on="0"/>
        <pt x="572" y="836" on="1"/>
        <pt x="546" y="783" on="0"/>
        <pt x="512" y="783" on="1"/>
        <pt x="503" y="783" on="0"/>
        <pt x="480" y="790" on="1"/>
        <pt x="384" y="832" on="1"/>
        <pt x="291" y="792" on="1"/>
        <pt x="290" y="792" on="0"/>
        <pt x="290" y="792" on="1"/>
        <pt x="270" y="785" on="0"/>
        <pt x="257" y="785" on="1"/>
        <pt x="219" y="785" on="0"/>
        <pt x="195" y="836" on="1"/>
        <pt x="183" y="862" on="0"/>
        <pt x="183" y="878" on="1"/>
        <pt x="183" y="910" on="0"/>
        <pt x="221" y="923" on="1"/>
        <pt x="360" y="969" on="1"/>
      </contour>
      <contour>
        <pt x="463" y="681" on="1"/>
        <pt x="733" y="123" on="1"/>
        <pt x="750" y="89" on="0"/>
        <pt x="750" y="72" on="1"/>
        <pt x="750" y="36" on="0"/>
        <pt x="692" y="7" on="1"/>
        <pt x="658" y="-10" on="0"/>
        <pt x="619" y="-10" on="0"/>
        <pt x="594" y="8" on="0"/>
        <pt x="583" y="28" on="0"/>
        <pt x="573" y="48" on="1"/>
        <pt x="521" y="156" on="1"/>
        <pt x="244" y="156" on="1"/>
        <pt x="192" y="48" on="1"/>
        <pt x="182" y="28" on="0"/>
        <pt x="171" y="10" on="0"/>
        <pt x="146" y="-9" on="0"/>
        <pt x="107" y="-9" on="0"/>
        <pt x="73" y="8" on="1"/>
        <pt x="15" y="36" on="0"/>
        <pt x="15" y="72" on="1"/>
        <pt x="15" y="89" on="0"/>
        <pt x="32" y="123" on="1"/>
        <pt x="302" y="682" on="1"/>
        <pt x="313" y="705" on="0"/>
        <pt x="358" y="733" on="0"/>
        <pt x="383" y="733" on="1"/>
        <pt x="437" y="733" on="0"/>
      </contour>
      <contour>
        <pt x="382" y="441" on="1"/>
        <pt x="316" y="304" on="1"/>
        <pt x="449" y="304" on="1"/>
      </contour>
    </TTGlyph>
    <TTGlyph name="Adieresis" xMin="15" yMin="-10" xMax="750" yMax="973">
      <contour>
        <pt x="282" y="795" on="0"/>
        <pt x="218" y="795" on="0"/>
        <pt x="180" y="807" on="0"/>
        <pt x="164" y="838" on="0"/>
        <pt x="161" y="861" on="0"/>
        <pt x="162" y="910" on="0"/>
        <pt x="165" y="931" on="0"/>
        <pt x="180" y="961" on="0"/>
        <pt x="219" y="973" on="0"/>
        <pt x="283" y="973" on="0"/>
        <pt x="321" y="961" on="0"/>
        <pt x="337" y="930" on="0"/>
        <pt x="340" y="907" on="0"/>
        <pt x="340" y="860" on="0"/>
        <pt x="337" y="837" on="0"/>
        <pt x="321" y="807" on="0"/>
      </contour>
      <contour>
        <pt x="552" y="795" on="0"/>
        <pt x="488" y="795" on="0"/>
        <pt x="450" y="807" on="0"/>
        <pt x="434" y="838" on="0"/>
        <pt x="431" y="861" on="0"/>
        <pt x="431" y="909" on="0"/>
        <pt x="434" y="932" on="0"/>
        <pt x="450" y="961" on="0"/>
        <pt x="489" y="973" on="0"/>
        <pt x="553" y="973" on="0"/>
        <pt x="591" y="961" on="0"/>
        <pt x="607" y="930" on="0"/>
        <pt x="610" y="907" on="0"/>
        <pt x="610" y="860" on="0"/>
        <pt x="607" y="837" on="0"/>
        <pt x="591" y="807" on="0"/>
      </contour>
      <contour>
        <pt x="463" y="681" on="1"/>
        <pt x="733" y="123" on="1"/>
        <pt x="750" y="89" on="0"/>
        <pt x="750" y="72" on="1"/>
        <pt x="750" y="36" on="0"/>
        <pt x="692" y="7" on="1"/>
        <pt x="658" y="-10" on="0"/>
        <pt x="619" y="-10" on="0"/>
        <pt x="594" y="8" on="0"/>
        <pt x="583" y="28" on="0"/>
        <pt x="573" y="48" on="1"/>
        <pt x="521" y="156" on="1"/>
        <pt x="244" y="156" on="1"/>
        <pt x="192" y="48" on="1"/>
        <pt x="182" y="28" on="0"/>
        <pt x="171" y="10" on="0"/>
        <pt x="146" y="-9" on="0"/>
        <pt x="107" y="-9" on="0"/>
        <pt x="73" y="8" on="1"/>
        <pt x="15" y="36" on="0"/>
        <pt x="15" y="72" on="1"/>
        <pt x="15" y="89" on="0"/>
        <pt x="32" y="123" on="1"/>
        <pt x="302" y="682" on="1"/>
        <pt x="313" y="705" on="0"/>
        <pt x="358" y="733" on="0"/>
        <pt x="383" y="733" on="1"/>
        <pt x="437" y="733" on="0"/>
      </contour>
      <contour>
        <pt x="382" y="441" on="1"/>
        <pt x="316" y="304" on="1"/>
        <pt x="449" y="304" on="1"/>
      </contour>
    </TTGlyph>
    <TTGlyph name="Agrave" xMin="15" yMin="-10" xMax="750" yMax="961">
      <contour>
        <pt x="446" y="756" on="1"/>
        <pt x="437" y="756" on="0"/>
        <pt x="416" y="763" on="1"/>
        <pt x="251" y="815" on="1"/>
        <pt x="224" y="823" on="0"/>
        <pt x="208" y="845" on="0"/>
        <pt x="208" y="878" on="0"/>
        <pt x="216" y="902" on="1"/>
        <pt x="235" y="961" on="0"/>
        <pt x="265" y="961" on="1"/>
        <pt x="269" y="961" on="0"/>
        <pt x="295" y="954" on="1"/>
        <pt x="460" y="903" on="1"/>
        <pt x="474" y="898" on="0"/>
        <pt x="482" y="894" on="1"/>
        <pt x="503" y="884" on="0"/>
        <pt x="503" y="839" on="0"/>
        <pt x="495" y="815" on="1"/>
        <pt x="476" y="756" on="0"/>
      </contour>
      <contour>
        <pt x="463" y="681" on="1"/>
        <pt x="733" y="123" on="1"/>
        <pt x="750" y="89" on="0"/>
        <pt x="750" y="72" on="1"/>
        <pt x="750" y="36" on="0"/>
        <pt x="692" y="7" on="1"/>
        <pt x="658" y="-10" on="0"/>
        <pt x="619" y="-10" on="0"/>
        <pt x="594" y="8" on="0"/>
        <pt x="583" y="28" on="0"/>
        <pt x="573" y="48" on="1"/>
        <pt x="521" y="156" on="1"/>
        <pt x="244" y="156" on="1"/>
        <pt x="192" y="48" on="1"/>
        <pt x="182" y="28" on="0"/>
        <pt x="171" y="10" on="0"/>
        <pt x="146" y="-9" on="0"/>
        <pt x="107" y="-9" on="0"/>
        <pt x="73" y="8" on="1"/>
        <pt x="15" y="36" on="0"/>
        <pt x="15" y="72" on="1"/>
        <pt x="15" y="89" on="0"/>
        <pt x="32" y="123" on="1"/>
        <pt x="302" y="682" on="1"/>
        <pt x="313" y="705" on="0"/>
        <pt x="358" y="733" on="0"/>
        <pt x="383" y="733" on="1"/>
        <pt x="437" y="733" on="0"/>
      </contour>
      <contour>
        <pt x="382" y="441" on="1"/>
        <pt x="316" y="304" on="1"/>
        <pt x="449" y="304" on="1"/>
      </contour>
    </TTGlyph>
    <TTGlyph name="Aring" xMin="15" yMin="-10" xMax="750" yMax="919">
      <contour>
        <pt x="253" y="846" on="0"/>
        <pt x="332" y="919" on="0"/>
        <pt x="433" y="919" on="0"/>
        <pt x="511" y="847" on="0"/>
        <pt x="511" y="726" on="0"/>
        <pt x="460" y="687" on="1"/>
        <pt x="733" y="123" on="1"/>
        <pt x="750" y="89" on="0"/>
        <pt x="750" y="72" on="1"/>
        <pt x="750" y="36" on="0"/>
        <pt x="692" y="7" on="1"/>
        <pt x="658" y="-10" on="0"/>
        <pt x="619" y="-10" on="0"/>
        <pt x="594" y="8" on="0"/>
        <pt x="583" y="28" on="0"/>
        <pt x="573" y="48" on="1"/>
        <pt x="521" y="156" on="1"/>
        <pt x="244" y="156" on="1"/>
        <pt x="192" y="48" on="1"/>
        <pt x="182" y="28" on="0"/>
        <pt x="171" y="10" on="0"/>
        <pt x="146" y="-9" on="0"/>
        <pt x="107" y="-9" on="0"/>
        <pt x="73" y="8" on="1"/>
        <pt x="15" y="36" on="0"/>
        <pt x="15" y="72" on="1"/>
        <pt x="15" y="89" on="0"/>
        <pt x="32" y="122" on="0"/>
        <pt x="305" y="687" on="1"/>
        <pt x="253" y="725" on="0"/>
      </contour>
      <contour>
        <pt x="361" y="729" on="0"/>
        <pt x="403" y="729" on="0"/>
        <pt x="443" y="760" on="0"/>
        <pt x="443" y="821" on="0"/>
        <pt x="404" y="851" on="0"/>
        <pt x="360" y="851" on="0"/>
        <pt x="321" y="820" on="0"/>
        <pt x="321" y="759" on="0"/>
      </contour>
      <contour>
        <pt x="382" y="441" on="1"/>
        <pt x="316" y="304" on="1"/>
        <pt x="449" y="304" on="1"/>
      </contour>
    </TTGlyph>
    <TTGlyph name="Atilde" xMin="15" yMin="-10" xMax="750" yMax="973">
      <contour>
        <pt x="546" y="958" on="1"/>
        <pt x="582" y="933" on="0"/>
        <pt x="582" y="910" on="1"/>
        <pt x="582" y="896" on="0"/>
        <pt x="566" y="870" on="0"/>
        <pt x="560" y="859" on="0"/>
        <pt x="538" y="831" on="0"/>
        <pt x="524" y="820" on="1"/>
        <pt x="486" y="792" on="0"/>
        <pt x="408" y="792" on="0"/>
        <pt x="363" y="818" on="0"/>
        <pt x="334" y="844" on="0"/>
        <pt x="325" y="844" on="1"/>
        <pt x="311" y="844" on="0"/>
        <pt x="299" y="832" on="1"/>
        <pt x="276" y="792" on="0"/>
        <pt x="237" y="792" on="0"/>
        <pt x="182" y="840" on="0"/>
        <pt x="182" y="871" on="0"/>
        <pt x="198" y="897" on="0"/>
        <pt x="204" y="908" on="0"/>
        <pt x="227" y="935" on="0"/>
        <pt x="241" y="946" on="1"/>
        <pt x="278" y="973" on="0"/>
        <pt x="358" y="973" on="0"/>
        <pt x="402" y="948" on="0"/>
        <pt x="430" y="923" on="0"/>
        <pt x="439" y="923" on="1"/>
        <pt x="455" y="923" on="0"/>
        <pt x="465" y="935" on="1"/>
        <pt x="486" y="973" on="0"/>
        <pt x="510" y="973" on="1"/>
        <pt x="525" y="973" on="0"/>
      </contour>
      <contour>
        <pt x="463" y="681" on="1"/>
        <pt x="733" y="123" on="1"/>
        <pt x="750" y="89" on="0"/>
        <pt x="750" y="72" on="1"/>
        <pt x="750" y="36" on="0"/>
        <pt x="692" y="7" on="1"/>
        <pt x="658" y="-10" on="0"/>
        <pt x="619" y="-10" on="0"/>
        <pt x="594" y="8" on="0"/>
        <pt x="583" y="28" on="0"/>
        <pt x="573" y="48" on="1"/>
        <pt x="521" y="156" on="1"/>
        <pt x="244" y="156" on="1"/>
        <pt x="192" y="48" on="1"/>
        <pt x="182" y="28" on="0"/>
        <pt x="171" y="10" on="0"/>
        <pt x="146" y="-9" on="0"/>
        <pt x="107" y="-9" on="0"/>
        <pt x="73" y="8" on="1"/>
        <pt x="15" y="36" on="0"/>
        <pt x="15" y="72" on="1"/>
        <pt x="15" y="89" on="0"/>
        <pt x="32" y="123" on="1"/>
        <pt x="302" y="682" on="1"/>
        <pt x="313" y="705" on="0"/>
        <pt x="358" y="733" on="0"/>
        <pt x="383" y="733" on="1"/>
        <pt x="437" y="733" on="0"/>
      </contour>
      <contour>
        <pt x="382" y="441" on="1"/>
        <pt x="316" y="304" on="1"/>
        <pt x="449" y="304" on="1"/>
      </contour>
    </TTGlyph>
    <TTGlyph name="B" xMin="40" yMin="1" xMax="621" yMax="734">
      <contour>
        <pt x="562" y="393" on="1"/>
        <pt x="621" y="323" on="0"/>
        <pt x="621" y="236" on="1"/>
        <pt x="619" y="136" on="0"/>
        <pt x="486" y="1" on="0"/>
        <pt x="391" y="1" on="1"/>
        <pt x="128" y="1" on="1"/>
        <pt x="58" y="1" on="0"/>
        <pt x="46" y="39" on="1"/>
        <pt x="40" y="56" on="0"/>
        <pt x="40" y="91" on="1"/>
        <pt x="40" y="646" on="1"/>
        <pt x="40" y="670" on="0"/>
        <pt x="43" y="692" on="0"/>
        <pt x="51" y="707" on="1"/>
        <pt x="65" y="734" on="0"/>
        <pt x="129" y="734" on="1"/>
        <pt x="381" y="734" on="1"/>
        <pt x="473" y="734" on="0"/>
        <pt x="535" y="670" on="1"/>
        <pt x="600" y="605" on="0"/>
        <pt x="600" y="514" on="1"/>
        <pt x="600" y="448" on="0"/>
      </contour>
      <contour>
        <pt x="444" y="246" on="1"/>
        <pt x="444" y="270" on="0"/>
        <pt x="433" y="298" on="0"/>
        <pt x="420" y="304" on="1"/>
        <pt x="400" y="312" on="0"/>
        <pt x="328" y="312" on="0"/>
        <pt x="292" y="340" on="0"/>
        <pt x="292" y="427" on="0"/>
        <pt x="329" y="455" on="0"/>
        <pt x="372" y="455" on="1"/>
        <pt x="412" y="455" on="0"/>
        <pt x="420" y="476" on="1"/>
        <pt x="423" y="487" on="0"/>
        <pt x="423" y="537" on="0"/>
        <pt x="390" y="557" on="0"/>
        <pt x="357" y="557" on="1"/>
        <pt x="217" y="557" on="1"/>
        <pt x="217" y="178" on="1"/>
        <pt x="381" y="178" on="1"/>
        <pt x="444" y="178" on="0"/>
      </contour>
    </TTGlyph>
    <TTGlyph name="C" xMin="25" yMin="-10" xMax="654" yMax="740">
      <contour>
        <pt x="498" y="192" on="1"/>
        <pt x="516" y="205" on="1"/>
        <pt x="550" y="225" on="0"/>
        <pt x="564" y="225" on="1"/>
        <pt x="595" y="225" on="0"/>
        <pt x="631" y="169" on="1"/>
        <pt x="653" y="134" on="0"/>
        <pt x="653" y="92" on="0"/>
        <pt x="626" y="64" on="0"/>
        <pt x="590" y="42" on="0"/>
        <pt x="557" y="22" on="0"/>
        <pt x="455" y="-10" on="0"/>
        <pt x="360" y="-10" on="0"/>
        <pt x="263" y="15" on="0"/>
        <pt x="160" y="74" on="0"/>
        <pt x="78" y="159" on="0"/>
        <pt x="25" y="292" on="0"/>
        <pt x="25" y="448" on="0"/>
        <pt x="77" y="575" on="0"/>
        <pt x="158" y="658" on="0"/>
        <pt x="210" y="686" on="1"/>
        <pt x="308" y="740" on="0"/>
        <pt x="407" y="740" on="1"/>
        <pt x="454" y="740" on="0"/>
        <pt x="551" y="711" on="0"/>
        <pt x="576" y="696" on="1"/>
        <pt x="600" y="682" on="1"/>
        <pt x="618" y="671" on="0"/>
        <pt x="628" y="664" on="1"/>
        <pt x="654" y="643" on="0"/>
        <pt x="654" y="590" on="0"/>
        <pt x="633" y="561" on="1"/>
        <pt x="594" y="507" on="0"/>
        <pt x="563" y="507" on="1"/>
        <pt x="545" y="507" on="0"/>
        <pt x="512" y="529" on="1"/>
        <pt x="470" y="563" on="0"/>
        <pt x="400" y="563" on="1"/>
        <pt x="335" y="563" on="0"/>
        <pt x="272" y="518" on="1"/>
        <pt x="242" y="496" on="0"/>
        <pt x="202" y="416" on="0"/>
        <pt x="202" y="315" on="0"/>
        <pt x="242" y="235" on="0"/>
        <pt x="273" y="212" on="1"/>
        <pt x="334" y="168" on="0"/>
        <pt x="400" y="168" on="1"/>
        <pt x="431" y="168" on="0"/>
        <pt x="486" y="184" on="0"/>
      </contour>
    </TTGlyph>
    <TTGlyph name="Ccedilla" xMin="25" yMin="-193" xMax="654" yMax="742">
      <contour>
        <pt x="309" y="-27" on="1"/>
        <pt x="312" y="-9" on="0"/>
        <pt x="327" y="0" on="1"/>
        <pt x="217" y="24" on="0"/>
        <pt x="126" y="110" on="1"/>
        <pt x="80" y="154" on="0"/>
        <pt x="25" y="290" on="0"/>
        <pt x="25" y="449" on="0"/>
        <pt x="77" y="577" on="0"/>
        <pt x="158" y="659" on="0"/>
        <pt x="210" y="688" on="1"/>
        <pt x="307" y="742" on="0"/>
        <pt x="408" y="742" on="1"/>
        <pt x="455" y="742" on="0"/>
        <pt x="551" y="712" on="0"/>
        <pt x="576" y="698" on="1"/>
        <pt x="601" y="683" on="1"/>
        <pt x="618" y="671" on="0"/>
        <pt x="628" y="664" on="1"/>
        <pt x="654" y="644" on="0"/>
        <pt x="654" y="591" on="0"/>
        <pt x="633" y="562" on="1"/>
        <pt x="595" y="508" on="0"/>
        <pt x="564" y="508" on="1"/>
        <pt x="547" y="508" on="0"/>
        <pt x="512" y="530" on="1"/>
        <pt x="470" y="564" on="0"/>
        <pt x="400" y="564" on="1"/>
        <pt x="335" y="564" on="0"/>
        <pt x="272" y="519" on="1"/>
        <pt x="242" y="497" on="0"/>
        <pt x="202" y="417" on="0"/>
        <pt x="202" y="316" on="0"/>
        <pt x="242" y="235" on="0"/>
        <pt x="274" y="212" on="1"/>
        <pt x="336" y="168" on="0"/>
        <pt x="400" y="168" on="1"/>
        <pt x="431" y="168" on="0"/>
        <pt x="486" y="184" on="0"/>
        <pt x="498" y="192" on="1"/>
        <pt x="510" y="201" on="1"/>
        <pt x="517" y="205" on="1"/>
        <pt x="549" y="226" on="0"/>
        <pt x="565" y="226" on="1"/>
        <pt x="595" y="226" on="0"/>
        <pt x="631" y="170" on="1"/>
        <pt x="653" y="135" on="0"/>
        <pt x="653" y="99" on="0"/>
        <pt x="635" y="73" on="0"/>
        <pt x="618" y="60" on="0"/>
        <pt x="600" y="49" on="1"/>
        <pt x="544" y="9" on="0"/>
        <pt x="460" y="-5" on="1"/>
        <pt x="498" y="-36" on="0"/>
        <pt x="498" y="-136" on="0"/>
        <pt x="429" y="-193" on="0"/>
        <pt x="390" y="-193" on="1"/>
        <pt x="364" y="-193" on="0"/>
        <pt x="350" y="-186" on="1"/>
        <pt x="312" y="-167" on="0"/>
        <pt x="310" y="-148" on="1"/>
        <pt x="309" y="-143" on="1"/>
        <pt x="309" y="-131" on="0"/>
        <pt x="339" y="-95" on="0"/>
        <pt x="360" y="-95" on="0"/>
        <pt x="374" y="-104" on="0"/>
        <pt x="378" y="-105" on="1"/>
        <pt x="382" y="-109" on="0"/>
        <pt x="398" y="-109" on="0"/>
        <pt x="413" y="-97" on="0"/>
        <pt x="413" y="-75" on="0"/>
        <pt x="398" y="-63" on="0"/>
        <pt x="381" y="-63" on="0"/>
        <pt x="363" y="-77" on="0"/>
        <pt x="332" y="-77" on="0"/>
        <pt x="309" y="-36" on="0"/>
      </contour>
    </TTGlyph>
    <TTGlyph name="D" xMin="40" yMin="1" xMax="679" yMax="734">
      <contour>
        <pt x="129" y="734" on="1"/>
        <pt x="314" y="733" on="1"/>
        <pt x="459" y="733" on="0"/>
        <pt x="679" y="524" on="0"/>
        <pt x="679" y="219" on="0"/>
        <pt x="464" y="1" on="0"/>
        <pt x="311" y="1" on="1"/>
        <pt x="128" y="1" on="1"/>
        <pt x="67" y="1" on="0"/>
        <pt x="52" y="26" on="1"/>
        <pt x="40" y="47" on="0"/>
        <pt x="40" y="90" on="1"/>
        <pt x="40" y="646" on="1"/>
        <pt x="40" y="670" on="0"/>
        <pt x="43" y="692" on="0"/>
        <pt x="51" y="707" on="1"/>
        <pt x="65" y="734" on="0"/>
      </contour>
      <contour>
        <pt x="386" y="178" on="0"/>
        <pt x="502" y="285" on="0"/>
        <pt x="502" y="447" on="0"/>
        <pt x="389" y="556" on="0"/>
        <pt x="313" y="556" on="1"/>
        <pt x="217" y="556" on="1"/>
        <pt x="217" y="178" on="1"/>
        <pt x="314" y="178" on="1"/>
      </contour>
    </TTGlyph>
    <TTGlyph name="E" xMin="40" yMin="0" xMax="613" yMax="733">
      <contour>
        <pt x="217" y="177" on="1"/>
        <pt x="525" y="177" on="1"/>
        <pt x="548" y="177" on="0"/>
        <pt x="571" y="174" on="0"/>
        <pt x="586" y="166" on="1"/>
        <pt x="613" y="152" on="0"/>
        <pt x="613" y="88" on="1"/>
        <pt x="613" y="18" on="0"/>
        <pt x="576" y="6" on="1"/>
        <pt x="559" y="0" on="0"/>
        <pt x="524" y="0" on="1"/>
        <pt x="128" y="0" on="1"/>
        <pt x="58" y="0" on="0"/>
        <pt x="46" y="38" on="1"/>
        <pt x="40" y="54" on="0"/>
        <pt x="40" y="89" on="1"/>
        <pt x="40" y="645" on="1"/>
        <pt x="40" y="696" on="0"/>
        <pt x="78" y="733" on="0"/>
        <pt x="131" y="733" on="1"/>
        <pt x="525" y="733" on="1"/>
        <pt x="548" y="733" on="0"/>
        <pt x="571" y="730" on="0"/>
        <pt x="586" y="722" on="1"/>
        <pt x="613" y="708" on="0"/>
        <pt x="613" y="644" on="1"/>
        <pt x="613" y="574" on="0"/>
        <pt x="576" y="562" on="1"/>
        <pt x="559" y="556" on="0"/>
        <pt x="524" y="556" on="1"/>
        <pt x="217" y="556" on="1"/>
        <pt x="217" y="455" on="1"/>
        <pt x="415" y="455" on="1"/>
        <pt x="438" y="455" on="0"/>
        <pt x="461" y="452" on="0"/>
        <pt x="476" y="444" on="1"/>
        <pt x="503" y="430" on="0"/>
        <pt x="503" y="366" on="1"/>
        <pt x="503" y="296" on="0"/>
        <pt x="465" y="284" on="1"/>
        <pt x="448" y="278" on="0"/>
        <pt x="413" y="278" on="1"/>
        <pt x="217" y="278" on="1"/>
      </contour>
    </TTGlyph>
    <TTGlyph name="Eacute" xMin="40" yMin="0" xMax="613" yMax="974">
      <contour>
        <pt x="217" y="177" on="1"/>
        <pt x="525" y="177" on="1"/>
        <pt x="548" y="177" on="0"/>
        <pt x="571" y="174" on="0"/>
        <pt x="586" y="166" on="1"/>
        <pt x="613" y="152" on="0"/>
        <pt x="613" y="88" on="1"/>
        <pt x="613" y="18" on="0"/>
        <pt x="576" y="6" on="1"/>
        <pt x="559" y="0" on="0"/>
        <pt x="524" y="0" on="1"/>
        <pt x="128" y="0" on="1"/>
        <pt x="58" y="0" on="0"/>
        <pt x="46" y="38" on="1"/>
        <pt x="40" y="54" on="0"/>
        <pt x="40" y="89" on="1"/>
        <pt x="40" y="645" on="1"/>
        <pt x="40" y="696" on="0"/>
        <pt x="78" y="733" on="0"/>
        <pt x="131" y="733" on="1"/>
        <pt x="525" y="733" on="1"/>
        <pt x="548" y="733" on="0"/>
        <pt x="571" y="730" on="0"/>
        <pt x="586" y="722" on="1"/>
        <pt x="613" y="708" on="0"/>
        <pt x="613" y="644" on="1"/>
        <pt x="613" y="574" on="0"/>
        <pt x="576" y="562" on="1"/>
        <pt x="559" y="556" on="0"/>
        <pt x="524" y="556" on="1"/>
        <pt x="217" y="556" on="1"/>
        <pt x="217" y="455" on="1"/>
        <pt x="415" y="455" on="1"/>
        <pt x="438" y="455" on="0"/>
        <pt x="461" y="452" on="0"/>
        <pt x="476" y="444" on="1"/>
        <pt x="503" y="430" on="0"/>
        <pt x="503" y="366" on="1"/>
        <pt x="503" y="296" on="0"/>
        <pt x="465" y="284" on="1"/>
        <pt x="448" y="278" on="0"/>
        <pt x="413" y="278" on="1"/>
        <pt x="217" y="278" on="1"/>
      </contour>
      <contour>
        <pt x="288" y="776" on="1"/>
        <pt x="274" y="769" on="0"/>
        <pt x="258" y="769" on="1"/>
        <pt x="228" y="769" on="0"/>
        <pt x="209" y="828" on="1"/>
        <pt x="201" y="852" on="0"/>
        <pt x="201" y="886" on="0"/>
        <pt x="208" y="895" on="1"/>
        <pt x="217" y="908" on="0"/>
        <pt x="244" y="916" on="1"/>
        <pt x="409" y="967" on="1"/>
        <pt x="435" y="974" on="0"/>
        <pt x="439" y="974" on="1"/>
        <pt x="469" y="974" on="0"/>
        <pt x="487" y="915" on="1"/>
        <pt x="495" y="891" on="0"/>
        <pt x="495" y="858" on="0"/>
        <pt x="488" y="849" on="1"/>
        <pt x="479" y="836" on="0"/>
        <pt x="452" y="828" on="1"/>
      </contour>
    </TTGlyph>
    <TTGlyph name="Ecircumflex" xMin="40" yMin="0" xMax="613" yMax="974">
      <contour>
        <pt x="217" y="177" on="1"/>
        <pt x="525" y="177" on="1"/>
        <pt x="548" y="177" on="0"/>
        <pt x="571" y="174" on="0"/>
        <pt x="586" y="166" on="1"/>
        <pt x="613" y="152" on="0"/>
        <pt x="613" y="88" on="1"/>
        <pt x="613" y="18" on="0"/>
        <pt x="576" y="6" on="1"/>
        <pt x="559" y="0" on="0"/>
        <pt x="524" y="0" on="1"/>
        <pt x="128" y="0" on="1"/>
        <pt x="58" y="0" on="0"/>
        <pt x="46" y="38" on="1"/>
        <pt x="40" y="54" on="0"/>
        <pt x="40" y="89" on="1"/>
        <pt x="40" y="645" on="1"/>
        <pt x="40" y="696" on="0"/>
        <pt x="78" y="733" on="0"/>
        <pt x="131" y="733" on="1"/>
        <pt x="525" y="733" on="1"/>
        <pt x="548" y="733" on="0"/>
        <pt x="571" y="730" on="0"/>
        <pt x="586" y="722" on="1"/>
        <pt x="613" y="708" on="0"/>
        <pt x="613" y="644" on="1"/>
        <pt x="613" y="574" on="0"/>
        <pt x="576" y="562" on="1"/>
        <pt x="559" y="556" on="0"/>
        <pt x="524" y="556" on="1"/>
        <pt x="217" y="556" on="1"/>
        <pt x="217" y="455" on="1"/>
        <pt x="415" y="455" on="1"/>
        <pt x="438" y="455" on="0"/>
        <pt x="461" y="452" on="0"/>
        <pt x="476" y="444" on="1"/>
        <pt x="503" y="430" on="0"/>
        <pt x="503" y="366" on="1"/>
        <pt x="503" y="296" on="0"/>
        <pt x="465" y="284" on="1"/>
        <pt x="448" y="278" on="0"/>
        <pt x="413" y="278" on="1"/>
        <pt x="217" y="278" on="1"/>
      </contour>
      <contour>
        <pt x="324" y="974" on="1"/>
        <pt x="347" y="969" on="1"/>
        <pt x="440" y="939" on="0"/>
        <pt x="523" y="911" on="0"/>
        <pt x="523" y="876" on="1"/>
        <pt x="523" y="857" on="0"/>
        <pt x="512" y="836" on="1"/>
        <pt x="486" y="783" on="0"/>
        <pt x="452" y="783" on="1"/>
        <pt x="443" y="783" on="0"/>
        <pt x="420" y="790" on="1"/>
        <pt x="324" y="832" on="1"/>
        <pt x="231" y="792" on="1"/>
        <pt x="230" y="792" on="0"/>
        <pt x="230" y="792" on="1"/>
        <pt x="210" y="785" on="0"/>
        <pt x="197" y="785" on="1"/>
        <pt x="159" y="785" on="0"/>
        <pt x="135" y="836" on="1"/>
        <pt x="123" y="862" on="0"/>
        <pt x="123" y="878" on="1"/>
        <pt x="123" y="910" on="0"/>
        <pt x="161" y="923" on="1"/>
        <pt x="300" y="969" on="1"/>
      </contour>
    </TTGlyph>
    <TTGlyph name="Edieresis" xMin="40" yMin="0" xMax="613" yMax="973">
      <contour>
        <pt x="217" y="177" on="1"/>
        <pt x="525" y="177" on="1"/>
        <pt x="548" y="177" on="0"/>
        <pt x="571" y="174" on="0"/>
        <pt x="586" y="166" on="1"/>
        <pt x="613" y="152" on="0"/>
        <pt x="613" y="88" on="1"/>
        <pt x="613" y="18" on="0"/>
        <pt x="576" y="6" on="1"/>
        <pt x="559" y="0" on="0"/>
        <pt x="524" y="0" on="1"/>
        <pt x="128" y="0" on="1"/>
        <pt x="58" y="0" on="0"/>
        <pt x="46" y="38" on="1"/>
        <pt x="40" y="54" on="0"/>
        <pt x="40" y="89" on="1"/>
        <pt x="40" y="645" on="1"/>
        <pt x="40" y="696" on="0"/>
        <pt x="78" y="733" on="0"/>
        <pt x="131" y="733" on="1"/>
        <pt x="525" y="733" on="1"/>
        <pt x="548" y="733" on="0"/>
        <pt x="571" y="730" on="0"/>
        <pt x="586" y="722" on="1"/>
        <pt x="613" y="708" on="0"/>
        <pt x="613" y="644" on="1"/>
        <pt x="613" y="574" on="0"/>
        <pt x="576" y="562" on="1"/>
        <pt x="559" y="556" on="0"/>
        <pt x="524" y="556" on="1"/>
        <pt x="217" y="556" on="1"/>
        <pt x="217" y="455" on="1"/>
        <pt x="415" y="455" on="1"/>
        <pt x="438" y="455" on="0"/>
        <pt x="461" y="452" on="0"/>
        <pt x="476" y="444" on="1"/>
        <pt x="503" y="430" on="0"/>
        <pt x="503" y="366" on="1"/>
        <pt x="503" y="296" on="0"/>
        <pt x="465" y="284" on="1"/>
        <pt x="448" y="278" on="0"/>
        <pt x="413" y="278" on="1"/>
        <pt x="217" y="278" on="1"/>
      </contour>
      <contour>
        <pt x="226" y="795" on="0"/>
        <pt x="162" y="795" on="0"/>
        <pt x="124" y="807" on="0"/>
        <pt x="108" y="838" on="0"/>
        <pt x="105" y="861" on="0"/>
        <pt x="106" y="910" on="0"/>
        <pt x="109" y="931" on="0"/>
        <pt x="124" y="961" on="0"/>
        <pt x="163" y="973" on="0"/>
        <pt x="227" y="973" on="0"/>
        <pt x="265" y="961" on="0"/>
        <pt x="281" y="930" on="0"/>
        <pt x="284" y="907" on="0"/>
        <pt x="284" y="860" on="0"/>
        <pt x="281" y="837" on="0"/>
        <pt x="265" y="807" on="0"/>
      </contour>
      <contour>
        <pt x="496" y="795" on="0"/>
        <pt x="432" y="795" on="0"/>
        <pt x="394" y="807" on="0"/>
        <pt x="378" y="838" on="0"/>
        <pt x="375" y="861" on="0"/>
        <pt x="375" y="909" on="0"/>
        <pt x="378" y="932" on="0"/>
        <pt x="394" y="961" on="0"/>
        <pt x="433" y="973" on="0"/>
        <pt x="497" y="973" on="0"/>
        <pt x="535" y="961" on="0"/>
        <pt x="551" y="930" on="0"/>
        <pt x="554" y="907" on="0"/>
        <pt x="554" y="860" on="0"/>
        <pt x="551" y="837" on="0"/>
        <pt x="535" y="807" on="0"/>
      </contour>
    </TTGlyph>
    <TTGlyph name="Egrave" xMin="40" yMin="0" xMax="613" yMax="961">
      <contour>
        <pt x="217" y="177" on="1"/>
        <pt x="525" y="177" on="1"/>
        <pt x="548" y="177" on="0"/>
        <pt x="571" y="174" on="0"/>
        <pt x="586" y="166" on="1"/>
        <pt x="613" y="152" on="0"/>
        <pt x="613" y="88" on="1"/>
        <pt x="613" y="18" on="0"/>
        <pt x="576" y="6" on="1"/>
        <pt x="559" y="0" on="0"/>
        <pt x="524" y="0" on="1"/>
        <pt x="128" y="0" on="1"/>
        <pt x="58" y="0" on="0"/>
        <pt x="46" y="38" on="1"/>
        <pt x="40" y="54" on="0"/>
        <pt x="40" y="89" on="1"/>
        <pt x="40" y="645" on="1"/>
        <pt x="40" y="696" on="0"/>
        <pt x="78" y="733" on="0"/>
        <pt x="131" y="733" on="1"/>
        <pt x="525" y="733" on="1"/>
        <pt x="548" y="733" on="0"/>
        <pt x="571" y="730" on="0"/>
        <pt x="586" y="722" on="1"/>
        <pt x="613" y="708" on="0"/>
        <pt x="613" y="644" on="1"/>
        <pt x="613" y="574" on="0"/>
        <pt x="576" y="562" on="1"/>
        <pt x="559" y="556" on="0"/>
        <pt x="524" y="556" on="1"/>
        <pt x="217" y="556" on="1"/>
        <pt x="217" y="455" on="1"/>
        <pt x="415" y="455" on="1"/>
        <pt x="438" y="455" on="0"/>
        <pt x="461" y="452" on="0"/>
        <pt x="476" y="444" on="1"/>
        <pt x="503" y="430" on="0"/>
        <pt x="503" y="366" on="1"/>
        <pt x="503" y="296" on="0"/>
        <pt x="465" y="284" on="1"/>
        <pt x="448" y="278" on="0"/>
        <pt x="413" y="278" on="1"/>
        <pt x="217" y="278" on="1"/>
      </contour>
      <contour>
        <pt x="425" y="756" on="1"/>
        <pt x="395" y="763" on="1"/>
        <pt x="230" y="815" on="1"/>
        <pt x="203" y="823" on="0"/>
        <pt x="187" y="845" on="0"/>
        <pt x="187" y="878" on="0"/>
        <pt x="195" y="902" on="1"/>
        <pt x="214" y="961" on="0"/>
        <pt x="244" y="961" on="1"/>
        <pt x="248" y="961" on="0"/>
        <pt x="274" y="954" on="1"/>
        <pt x="439" y="903" on="1"/>
        <pt x="453" y="898" on="0"/>
        <pt x="460" y="894" on="1"/>
        <pt x="482" y="884" on="0"/>
        <pt x="482" y="839" on="0"/>
        <pt x="474" y="815" on="1"/>
        <pt x="455" y="756" on="0"/>
      </contour>
    </TTGlyph>
    <TTGlyph name="Eth" xMin="25" yMin="1" xMax="750" yMax="734">
      <contour>
        <pt x="200" y="734" on="1"/>
        <pt x="385" y="733" on="1"/>
        <pt x="530" y="733" on="0"/>
        <pt x="750" y="524" on="0"/>
        <pt x="750" y="219" on="0"/>
        <pt x="535" y="1" on="0"/>
        <pt x="382" y="1" on="1"/>
        <pt x="199" y="1" on="1"/>
        <pt x="138" y="1" on="0"/>
        <pt x="123" y="26" on="1"/>
        <pt x="111" y="47" on="0"/>
        <pt x="111" y="90" on="1"/>
        <pt x="111" y="301" on="1"/>
        <pt x="86" y="301" on="1"/>
        <pt x="40" y="301" on="0"/>
        <pt x="30" y="330" on="1"/>
        <pt x="25" y="345" on="0"/>
        <pt x="25" y="393" on="0"/>
        <pt x="35" y="422" on="0"/>
        <pt x="46" y="428" on="1"/>
        <pt x="63" y="436" on="0"/>
        <pt x="87" y="436" on="1"/>
        <pt x="111" y="436" on="1"/>
        <pt x="111" y="646" on="1"/>
        <pt x="111" y="670" on="0"/>
        <pt x="114" y="692" on="0"/>
        <pt x="122" y="707" on="1"/>
        <pt x="136" y="734" on="0"/>
      </contour>
      <contour>
        <pt x="312" y="301" on="1"/>
        <pt x="288" y="301" on="1"/>
        <pt x="288" y="178" on="1"/>
        <pt x="385" y="178" on="1"/>
        <pt x="457" y="178" on="0"/>
        <pt x="573" y="285" on="0"/>
        <pt x="573" y="447" on="0"/>
        <pt x="460" y="556" on="0"/>
        <pt x="384" y="556" on="1"/>
        <pt x="288" y="556" on="1"/>
        <pt x="288" y="436" on="1"/>
        <pt x="313" y="436" on="1"/>
        <pt x="359" y="436" on="0"/>
        <pt x="369" y="407" on="1"/>
        <pt x="374" y="392" on="0"/>
        <pt x="374" y="344" on="0"/>
        <pt x="365" y="315" on="0"/>
        <pt x="354" y="309" on="1"/>
        <pt x="340" y="301" on="0"/>
      </contour>
    </TTGlyph>
    <TTGlyph name="Euro" xMin="15" yMin="2" xMax="587" yMax="770">
      <contour>
        <pt x="270" y="388" on="1"/>
        <pt x="271" y="356" on="1"/>
        <pt x="479" y="356" on="1"/>
        <pt x="496" y="356" on="0"/>
        <pt x="513" y="353" on="0"/>
        <pt x="531" y="328" on="0"/>
        <pt x="531" y="285" on="0"/>
        <pt x="524" y="262" on="0"/>
        <pt x="516" y="258" on="1"/>
        <pt x="503" y="251" on="0"/>
        <pt x="478" y="251" on="1"/>
        <pt x="286" y="251" on="1"/>
        <pt x="301" y="204" on="0"/>
        <pt x="349" y="176" on="0"/>
        <pt x="379" y="176" on="1"/>
        <pt x="500" y="176" on="1"/>
        <pt x="540" y="176" on="0"/>
        <pt x="575" y="157" on="0"/>
        <pt x="587" y="119" on="0"/>
        <pt x="587" y="58" on="0"/>
        <pt x="575" y="21" on="0"/>
        <pt x="562" y="14" on="1"/>
        <pt x="542" y="2" on="0"/>
        <pt x="505" y="2" on="1"/>
        <pt x="378" y="2" on="1"/>
        <pt x="318" y="2" on="0"/>
        <pt x="227" y="44" on="0"/>
        <pt x="172" y="96" on="0"/>
        <pt x="122" y="190" on="0"/>
        <pt x="109" y="251" on="1"/>
        <pt x="68" y="251" on="1"/>
        <pt x="43" y="251" on="0"/>
        <pt x="32" y="256" on="1"/>
        <pt x="15" y="266" on="0"/>
        <pt x="15" y="329" on="0"/>
        <pt x="33" y="354" on="0"/>
        <pt x="51" y="357" on="0"/>
        <pt x="67" y="357" on="1"/>
        <pt x="97" y="357" on="1"/>
        <pt x="96" y="370" on="0"/>
        <pt x="96" y="397" on="1"/>
        <pt x="96" y="415" on="1"/>
        <pt x="68" y="415" on="1"/>
        <pt x="43" y="415" on="0"/>
        <pt x="32" y="420" on="1"/>
        <pt x="15" y="430" on="0"/>
        <pt x="15" y="493" on="0"/>
        <pt x="33" y="518" on="0"/>
        <pt x="51" y="521" on="0"/>
        <pt x="67" y="521" on="1"/>
        <pt x="107" y="521" on="1"/>
        <pt x="121" y="595" on="0"/>
        <pt x="185" y="699" on="0"/>
        <pt x="226" y="724" on="1"/>
        <pt x="301" y="770" on="0"/>
        <pt x="379" y="770" on="1"/>
        <pt x="503" y="770" on="1"/>
        <pt x="525" y="770" on="0"/>
        <pt x="548" y="767" on="0"/>
        <pt x="576" y="751" on="0"/>
        <pt x="587" y="713" on="0"/>
        <pt x="587" y="651" on="0"/>
        <pt x="575" y="613" on="0"/>
        <pt x="545" y="598" on="0"/>
        <pt x="522" y="595" on="0"/>
        <pt x="499" y="595" on="1"/>
        <pt x="378" y="595" on="1"/>
        <pt x="313" y="595" on="0"/>
        <pt x="288" y="521" on="1"/>
        <pt x="479" y="521" on="1"/>
        <pt x="519" y="521" on="0"/>
        <pt x="527" y="498" on="1"/>
        <pt x="531" y="486" on="0"/>
        <pt x="531" y="449" on="0"/>
        <pt x="524" y="426" on="0"/>
        <pt x="516" y="422" on="1"/>
        <pt x="503" y="415" on="0"/>
        <pt x="478" y="415" on="1"/>
        <pt x="271" y="415" on="1"/>
      </contour>
    </TTGlyph>
    <TTGlyph name="F" xMin="40" yMin="0" xMax="612" yMax="733">
      <contour>
        <pt x="525" y="733" on="1"/>
        <pt x="548" y="733" on="0"/>
        <pt x="571" y="730" on="0"/>
        <pt x="600" y="714" on="0"/>
        <pt x="612" y="676" on="0"/>
        <pt x="612" y="612" on="0"/>
        <pt x="600" y="574" on="0"/>
        <pt x="570" y="559" on="0"/>
        <pt x="547" y="556" on="0"/>
        <pt x="523" y="556" on="1"/>
        <pt x="217" y="556" on="1"/>
        <pt x="217" y="455" on="1"/>
        <pt x="414" y="455" on="1"/>
        <pt x="438" y="455" on="0"/>
        <pt x="461" y="452" on="0"/>
        <pt x="476" y="444" on="1"/>
        <pt x="502" y="429" on="0"/>
        <pt x="502" y="365" on="1"/>
        <pt x="502" y="295" on="0"/>
        <pt x="464" y="282" on="1"/>
        <pt x="448" y="277" on="0"/>
        <pt x="413" y="277" on="1"/>
        <pt x="217" y="277" on="1"/>
        <pt x="217" y="88" on="1"/>
        <pt x="217" y="64" on="0"/>
        <pt x="214" y="42" on="0"/>
        <pt x="206" y="27" on="1"/>
        <pt x="192" y="0" on="0"/>
        <pt x="128" y="0" on="1"/>
        <pt x="58" y="0" on="0"/>
        <pt x="46" y="38" on="1"/>
        <pt x="40" y="54" on="0"/>
        <pt x="40" y="89" on="1"/>
        <pt x="40" y="645" on="1"/>
        <pt x="40" y="696" on="0"/>
        <pt x="78" y="733" on="0"/>
        <pt x="131" y="733" on="1"/>
      </contour>
    </TTGlyph>
    <TTGlyph name="G" xMin="25" yMin="-10" xMax="674" yMax="746">
      <contour>
        <pt x="422" y="442" on="1"/>
        <pt x="598" y="442" on="1"/>
        <pt x="652" y="440" on="0"/>
        <pt x="664" y="414" on="1"/>
        <pt x="674" y="395" on="0"/>
        <pt x="674" y="358" on="1"/>
        <pt x="674" y="138" on="1"/>
        <pt x="674" y="106" on="0"/>
        <pt x="646" y="77" on="1"/>
        <pt x="562" y="-10" on="0"/>
        <pt x="394" y="-10" on="1"/>
        <pt x="245" y="-10" on="0"/>
        <pt x="25" y="215" on="0"/>
        <pt x="25" y="533" on="0"/>
        <pt x="249" y="746" on="0"/>
        <pt x="401" y="746" on="1"/>
        <pt x="519" y="746" on="0"/>
        <pt x="624" y="668" on="1"/>
        <pt x="651" y="648" on="0"/>
        <pt x="651" y="599" on="0"/>
        <pt x="628" y="567" on="1"/>
        <pt x="589" y="514" on="0"/>
        <pt x="557" y="514" on="1"/>
        <pt x="538" y="514" on="0"/>
        <pt x="454" y="569" on="0"/>
        <pt x="396" y="569" on="1"/>
        <pt x="320" y="569" on="0"/>
        <pt x="202" y="462" on="0"/>
        <pt x="202" y="289" on="0"/>
        <pt x="322" y="168" on="0"/>
        <pt x="398" y="168" on="1"/>
        <pt x="453" y="168" on="0"/>
        <pt x="497" y="186" on="1"/>
        <pt x="497" y="295" on="1"/>
        <pt x="418" y="295" on="1"/>
        <pt x="387" y="295" on="0"/>
        <pt x="361" y="311" on="0"/>
        <pt x="353" y="342" on="0"/>
        <pt x="353" y="395" on="0"/>
        <pt x="362" y="427" on="0"/>
        <pt x="374" y="433" on="1"/>
        <pt x="392" y="442" on="0"/>
      </contour>
    </TTGlyph>
    <TTGlyph name="H" xMin="40" yMin="1" xMax="659" yMax="733">
      <contour>
        <pt x="501" y="721" on="0"/>
        <pt x="539" y="733" on="0"/>
        <pt x="597" y="733" on="0"/>
        <pt x="631" y="723" on="0"/>
        <pt x="649" y="709" on="0"/>
        <pt x="654" y="696" on="1"/>
        <pt x="659" y="679" on="0"/>
        <pt x="659" y="644" on="1"/>
        <pt x="659" y="89" on="1"/>
        <pt x="659" y="66" on="0"/>
        <pt x="656" y="43" on="0"/>
        <pt x="648" y="28" on="1"/>
        <pt x="634" y="1" on="0"/>
        <pt x="570" y="1" on="1"/>
        <pt x="500" y="1" on="0"/>
        <pt x="488" y="38" on="1"/>
        <pt x="482" y="55" on="0"/>
        <pt x="482" y="90" on="1"/>
        <pt x="482" y="293" on="1"/>
        <pt x="217" y="293" on="1"/>
        <pt x="217" y="89" on="1"/>
        <pt x="217" y="66" on="0"/>
        <pt x="214" y="43" on="0"/>
        <pt x="206" y="28" on="1"/>
        <pt x="192" y="1" on="0"/>
        <pt x="128" y="1" on="1"/>
        <pt x="58" y="1" on="0"/>
        <pt x="46" y="38" on="1"/>
        <pt x="40" y="55" on="0"/>
        <pt x="40" y="90" on="1"/>
        <pt x="40" y="645" on="1"/>
        <pt x="40" y="668" on="0"/>
        <pt x="43" y="691" on="0"/>
        <pt x="51" y="706" on="1"/>
        <pt x="65" y="733" on="0"/>
        <pt x="129" y="733" on="1"/>
        <pt x="199" y="733" on="0"/>
        <pt x="212" y="696" on="1"/>
        <pt x="217" y="679" on="0"/>
        <pt x="217" y="644" on="1"/>
        <pt x="217" y="440" on="1"/>
        <pt x="482" y="440" on="1"/>
        <pt x="482" y="645" on="1"/>
        <pt x="482" y="668" on="0"/>
        <pt x="485" y="691" on="0"/>
      </contour>
    </TTGlyph>
    <TTGlyph name="I" xMin="40" yMin="0" xMax="217" yMax="733">
      <contour>
        <pt x="40" y="645" on="1"/>
        <pt x="40" y="668" on="0"/>
        <pt x="43" y="691" on="0"/>
        <pt x="51" y="706" on="1"/>
        <pt x="65" y="733" on="0"/>
        <pt x="129" y="733" on="1"/>
        <pt x="199" y="733" on="0"/>
        <pt x="212" y="696" on="1"/>
        <pt x="217" y="679" on="0"/>
        <pt x="217" y="644" on="1"/>
        <pt x="217" y="88" on="1"/>
        <pt x="217" y="64" on="0"/>
        <pt x="214" y="42" on="0"/>
        <pt x="206" y="27" on="1"/>
        <pt x="192" y="0" on="0"/>
        <pt x="128" y="0" on="1"/>
        <pt x="58" y="0" on="0"/>
        <pt x="46" y="38" on="1"/>
        <pt x="40" y="54" on="0"/>
        <pt x="40" y="89" on="1"/>
      </contour>
    </TTGlyph>
    <TTGlyph name="Iacute" xMin="23" yMin="0" xMax="317" yMax="974">
      <contour>
        <pt x="46" y="645" on="1"/>
        <pt x="46" y="668" on="0"/>
        <pt x="49" y="691" on="0"/>
        <pt x="57" y="706" on="1"/>
        <pt x="71" y="733" on="0"/>
        <pt x="135" y="733" on="1"/>
        <pt x="205" y="733" on="0"/>
        <pt x="218" y="696" on="1"/>
        <pt x="223" y="679" on="0"/>
        <pt x="223" y="644" on="1"/>
        <pt x="223" y="88" on="1"/>
        <pt x="223" y="64" on="0"/>
        <pt x="220" y="42" on="0"/>
        <pt x="212" y="27" on="1"/>
        <pt x="198" y="0" on="0"/>
        <pt x="134" y="0" on="1"/>
        <pt x="64" y="0" on="0"/>
        <pt x="52" y="38" on="1"/>
        <pt x="46" y="54" on="0"/>
        <pt x="46" y="89" on="1"/>
      </contour>
      <contour>
        <pt x="110" y="776" on="1"/>
        <pt x="96" y="769" on="0"/>
        <pt x="80" y="769" on="1"/>
        <pt x="50" y="769" on="0"/>
        <pt x="31" y="828" on="1"/>
        <pt x="23" y="852" on="0"/>
        <pt x="23" y="886" on="0"/>
        <pt x="30" y="895" on="1"/>
        <pt x="39" y="908" on="0"/>
        <pt x="66" y="916" on="1"/>
        <pt x="231" y="967" on="1"/>
        <pt x="257" y="974" on="0"/>
        <pt x="261" y="974" on="1"/>
        <pt x="291" y="974" on="0"/>
        <pt x="309" y="915" on="1"/>
        <pt x="317" y="891" on="0"/>
        <pt x="317" y="858" on="0"/>
        <pt x="310" y="849" on="1"/>
        <pt x="301" y="836" on="0"/>
        <pt x="274" y="828" on="1"/>
      </contour>
    </TTGlyph>
    <TTGlyph name="Icircumflex" xMin="-65" yMin="0" xMax="335" yMax="974">
      <contour>
        <pt x="46" y="645" on="1"/>
        <pt x="46" y="668" on="0"/>
        <pt x="49" y="691" on="0"/>
        <pt x="57" y="706" on="1"/>
        <pt x="71" y="733" on="0"/>
        <pt x="135" y="733" on="1"/>
        <pt x="205" y="733" on="0"/>
        <pt x="218" y="696" on="1"/>
        <pt x="223" y="679" on="0"/>
        <pt x="223" y="644" on="1"/>
        <pt x="223" y="88" on="1"/>
        <pt x="223" y="64" on="0"/>
        <pt x="220" y="42" on="0"/>
        <pt x="212" y="27" on="1"/>
        <pt x="198" y="0" on="0"/>
        <pt x="134" y="0" on="1"/>
        <pt x="64" y="0" on="0"/>
        <pt x="52" y="38" on="1"/>
        <pt x="46" y="54" on="0"/>
        <pt x="46" y="89" on="1"/>
      </contour>
      <contour>
        <pt x="136" y="974" on="1"/>
        <pt x="159" y="969" on="1"/>
        <pt x="252" y="939" on="0"/>
        <pt x="335" y="911" on="0"/>
        <pt x="335" y="876" on="1"/>
        <pt x="335" y="857" on="0"/>
        <pt x="324" y="836" on="1"/>
        <pt x="298" y="783" on="0"/>
        <pt x="264" y="783" on="1"/>
        <pt x="255" y="783" on="0"/>
        <pt x="232" y="790" on="1"/>
        <pt x="136" y="832" on="1"/>
        <pt x="43" y="792" on="1"/>
        <pt x="42" y="792" on="0"/>
        <pt x="42" y="792" on="1"/>
        <pt x="22" y="785" on="0"/>
        <pt x="9" y="785" on="1"/>
        <pt x="-29" y="785" on="0"/>
        <pt x="-53" y="836" on="1"/>
        <pt x="-65" y="862" on="0"/>
        <pt x="-65" y="878" on="1"/>
        <pt x="-65" y="910" on="0"/>
        <pt x="-27" y="923" on="1"/>
        <pt x="112" y="969" on="1"/>
      </contour>
    </TTGlyph>
    <TTGlyph name="Idieresis" xMin="-88" yMin="0" xMax="361" yMax="973">
      <contour>
        <pt x="47" y="645" on="1"/>
        <pt x="47" y="668" on="0"/>
        <pt x="50" y="691" on="0"/>
        <pt x="58" y="706" on="1"/>
        <pt x="72" y="733" on="0"/>
        <pt x="136" y="733" on="1"/>
        <pt x="206" y="733" on="0"/>
        <pt x="218" y="696" on="1"/>
        <pt x="224" y="679" on="0"/>
        <pt x="224" y="644" on="1"/>
        <pt x="224" y="88" on="1"/>
        <pt x="224" y="64" on="0"/>
        <pt x="221" y="42" on="0"/>
        <pt x="213" y="27" on="1"/>
        <pt x="199" y="0" on="0"/>
        <pt x="135" y="0" on="1"/>
        <pt x="65" y="0" on="0"/>
        <pt x="52" y="38" on="1"/>
        <pt x="47" y="54" on="0"/>
        <pt x="47" y="89" on="1"/>
      </contour>
      <contour>
        <pt x="33" y="795" on="0"/>
        <pt x="-31" y="795" on="0"/>
        <pt x="-69" y="807" on="0"/>
        <pt x="-85" y="838" on="0"/>
        <pt x="-88" y="861" on="0"/>
        <pt x="-87" y="910" on="0"/>
        <pt x="-84" y="931" on="0"/>
        <pt x="-69" y="961" on="0"/>
        <pt x="-30" y="973" on="0"/>
        <pt x="34" y="973" on="0"/>
        <pt x="72" y="961" on="0"/>
        <pt x="88" y="930" on="0"/>
        <pt x="91" y="907" on="0"/>
        <pt x="91" y="860" on="0"/>
        <pt x="88" y="837" on="0"/>
        <pt x="72" y="807" on="0"/>
      </contour>
      <contour>
        <pt x="303" y="795" on="0"/>
        <pt x="239" y="795" on="0"/>
        <pt x="201" y="807" on="0"/>
        <pt x="185" y="838" on="0"/>
        <pt x="182" y="861" on="0"/>
        <pt x="182" y="909" on="0"/>
        <pt x="185" y="932" on="0"/>
        <pt x="201" y="961" on="0"/>
        <pt x="240" y="973" on="0"/>
        <pt x="304" y="973" on="0"/>
        <pt x="342" y="961" on="0"/>
        <pt x="358" y="930" on="0"/>
        <pt x="361" y="907" on="0"/>
        <pt x="361" y="860" on="0"/>
        <pt x="358" y="837" on="0"/>
        <pt x="342" y="807" on="0"/>
      </contour>
    </TTGlyph>
    <TTGlyph name="Igrave" xMin="-49" yMin="0" xMax="246" yMax="961">
      <contour>
        <pt x="45" y="645" on="1"/>
        <pt x="45" y="668" on="0"/>
        <pt x="48" y="691" on="0"/>
        <pt x="56" y="706" on="1"/>
        <pt x="70" y="733" on="0"/>
        <pt x="134" y="733" on="1"/>
        <pt x="204" y="733" on="0"/>
        <pt x="216" y="696" on="1"/>
        <pt x="222" y="679" on="0"/>
        <pt x="222" y="644" on="1"/>
        <pt x="222" y="88" on="1"/>
        <pt x="222" y="64" on="0"/>
        <pt x="219" y="42" on="0"/>
        <pt x="211" y="27" on="1"/>
        <pt x="197" y="0" on="0"/>
        <pt x="133" y="0" on="1"/>
        <pt x="63" y="0" on="0"/>
        <pt x="50" y="38" on="1"/>
        <pt x="45" y="54" on="0"/>
        <pt x="45" y="89" on="1"/>
      </contour>
      <contour>
        <pt x="189" y="756" on="1"/>
        <pt x="159" y="763" on="1"/>
        <pt x="-6" y="815" on="1"/>
        <pt x="-33" y="823" on="0"/>
        <pt x="-49" y="845" on="0"/>
        <pt x="-49" y="878" on="0"/>
        <pt x="-41" y="902" on="1"/>
        <pt x="-22" y="961" on="0"/>
        <pt x="8" y="961" on="1"/>
        <pt x="12" y="961" on="0"/>
        <pt x="38" y="954" on="1"/>
        <pt x="203" y="903" on="1"/>
        <pt x="217" y="898" on="0"/>
        <pt x="224" y="894" on="1"/>
        <pt x="246" y="884" on="0"/>
        <pt x="246" y="839" on="0"/>
        <pt x="238" y="815" on="1"/>
        <pt x="219" y="756" on="0"/>
      </contour>
    </TTGlyph>
    <TTGlyph name="J" xMin="15" yMin="-10" xMax="509" yMax="733">
      <contour>
        <pt x="453" y="733" on="0"/>
        <pt x="490" y="720" on="0"/>
        <pt x="498" y="705" on="1"/>
        <pt x="509" y="682" on="0"/>
        <pt x="509" y="643" on="1"/>
        <pt x="509" y="256" on="1"/>
        <pt x="509" y="151" on="0"/>
        <pt x="357" y="-10" on="0"/>
        <pt x="239" y="-10" on="1"/>
        <pt x="173" y="-10" on="0"/>
        <pt x="122" y="19" on="1"/>
        <pt x="76" y="44" on="0"/>
        <pt x="58" y="64" on="1"/>
        <pt x="50" y="72" on="1"/>
        <pt x="15" y="109" on="0"/>
        <pt x="15" y="162" on="0"/>
        <pt x="85" y="234" on="0"/>
        <pt x="139" y="234" on="0"/>
        <pt x="205" y="168" on="0"/>
        <pt x="282" y="168" on="0"/>
        <pt x="332" y="220" on="0"/>
        <pt x="332" y="263" on="1"/>
        <pt x="332" y="637" on="1"/>
        <pt x="332" y="697" on="0"/>
        <pt x="352" y="714" on="1"/>
        <pt x="375" y="733" on="0"/>
      </contour>
    </TTGlyph>
    <TTGlyph name="K" xMin="40" yMin="-10" xMax="604" yMax="745">
      <contour>
        <pt x="354" y="368" on="1"/>
        <pt x="507" y="221" on="0"/>
        <pt x="571" y="147" on="1"/>
        <pt x="604" y="110" on="0"/>
        <pt x="604" y="59" on="0"/>
        <pt x="524" y="-10" on="0"/>
        <pt x="473" y="-10" on="0"/>
        <pt x="437" y="32" on="1"/>
        <pt x="217" y="283" on="1"/>
        <pt x="217" y="88" on="1"/>
        <pt x="217" y="64" on="0"/>
        <pt x="214" y="42" on="0"/>
        <pt x="206" y="27" on="1"/>
        <pt x="192" y="0" on="0"/>
        <pt x="128" y="0" on="1"/>
        <pt x="58" y="0" on="0"/>
        <pt x="46" y="38" on="1"/>
        <pt x="40" y="54" on="0"/>
        <pt x="40" y="89" on="1"/>
        <pt x="40" y="645" on="1"/>
        <pt x="40" y="668" on="0"/>
        <pt x="43" y="691" on="0"/>
        <pt x="51" y="706" on="1"/>
        <pt x="65" y="733" on="0"/>
        <pt x="129" y="733" on="1"/>
        <pt x="199" y="733" on="0"/>
        <pt x="212" y="696" on="1"/>
        <pt x="217" y="679" on="0"/>
        <pt x="217" y="644" on="1"/>
        <pt x="217" y="453" on="1"/>
        <pt x="353" y="606" on="0"/>
        <pt x="437" y="704" on="1"/>
        <pt x="472" y="745" on="0"/>
        <pt x="524" y="745" on="0"/>
        <pt x="604" y="676" on="0"/>
        <pt x="604" y="625" on="0"/>
        <pt x="574" y="590" on="1"/>
        <pt x="516" y="523" on="0"/>
        <pt x="394" y="406" on="1"/>
      </contour>
    </TTGlyph>
    <TTGlyph name="L" xMin="40" yMin="0" xMax="562" yMax="733">
      <contour>
        <pt x="217" y="148" on="1"/>
        <pt x="489" y="148" on="1"/>
        <pt x="522" y="148" on="0"/>
        <pt x="552" y="133" on="0"/>
        <pt x="562" y="101" on="0"/>
        <pt x="562" y="48" on="0"/>
        <pt x="552" y="16" on="0"/>
        <pt x="540" y="10" on="1"/>
        <pt x="521" y="0" on="0"/>
        <pt x="488" y="0" on="1"/>
        <pt x="128" y="0" on="1"/>
        <pt x="58" y="0" on="0"/>
        <pt x="46" y="38" on="1"/>
        <pt x="40" y="54" on="0"/>
        <pt x="40" y="89" on="1"/>
        <pt x="40" y="645" on="1"/>
        <pt x="40" y="668" on="0"/>
        <pt x="43" y="691" on="0"/>
        <pt x="51" y="706" on="1"/>
        <pt x="65" y="733" on="0"/>
        <pt x="129" y="733" on="1"/>
        <pt x="199" y="733" on="0"/>
        <pt x="212" y="696" on="1"/>
        <pt x="217" y="679" on="0"/>
        <pt x="217" y="644" on="1"/>
      </contour>
    </TTGlyph>
    <TTGlyph name="Lslash" xMin="25" yMin="0" xMax="662" yMax="733">
      <contour>
        <pt x="317" y="148" on="1"/>
        <pt x="589" y="148" on="1"/>
        <pt x="622" y="148" on="0"/>
        <pt x="652" y="133" on="0"/>
        <pt x="662" y="101" on="0"/>
        <pt x="662" y="48" on="0"/>
        <pt x="652" y="16" on="0"/>
        <pt x="640" y="10" on="1"/>
        <pt x="621" y="0" on="0"/>
        <pt x="588" y="0" on="1"/>
        <pt x="228" y="0" on="1"/>
        <pt x="158" y="0" on="0"/>
        <pt x="146" y="38" on="1"/>
        <pt x="140" y="54" on="0"/>
        <pt x="140" y="89" on="1"/>
        <pt x="140" y="291" on="1"/>
        <pt x="108" y="282" on="1"/>
        <pt x="88" y="276" on="0"/>
        <pt x="78" y="276" on="1"/>
        <pt x="45" y="276" on="0"/>
        <pt x="30" y="327" on="1"/>
        <pt x="25" y="347" on="0"/>
        <pt x="25" y="373" on="0"/>
        <pt x="42" y="394" on="0"/>
        <pt x="58" y="401" on="0"/>
        <pt x="74" y="405" on="1"/>
        <pt x="140" y="423" on="1"/>
        <pt x="140" y="645" on="1"/>
        <pt x="140" y="668" on="0"/>
        <pt x="143" y="691" on="0"/>
        <pt x="151" y="706" on="1"/>
        <pt x="165" y="733" on="0"/>
        <pt x="229" y="733" on="1"/>
        <pt x="299" y="733" on="0"/>
        <pt x="312" y="696" on="1"/>
        <pt x="317" y="679" on="0"/>
        <pt x="317" y="644" on="1"/>
        <pt x="317" y="474" on="1"/>
        <pt x="381" y="492" on="1"/>
        <pt x="401" y="498" on="0"/>
        <pt x="411" y="498" on="1"/>
        <pt x="444" y="498" on="0"/>
        <pt x="458" y="447" on="1"/>
        <pt x="463" y="425" on="0"/>
        <pt x="463" y="400" on="0"/>
        <pt x="447" y="380" on="0"/>
        <pt x="432" y="374" on="0"/>
        <pt x="415" y="369" on="1"/>
        <pt x="317" y="341" on="1"/>
      </contour>
    </TTGlyph>
    <TTGlyph name="M" xMin="40" yMin="1" xMax="830" yMax="732">
      <contour>
        <pt x="819" y="705" on="1"/>
        <pt x="827" y="690" on="0"/>
        <pt x="830" y="666" on="0"/>
        <pt x="830" y="643" on="1"/>
        <pt x="830" y="88" on="1"/>
        <pt x="830" y="19" on="0"/>
        <pt x="792" y="7" on="1"/>
        <pt x="773" y="1" on="0"/>
        <pt x="715" y="1" on="0"/>
        <pt x="681" y="11" on="0"/>
        <pt x="663" y="25" on="0"/>
        <pt x="658" y="38" on="1"/>
        <pt x="653" y="55" on="0"/>
        <pt x="653" y="90" on="1"/>
        <pt x="653" y="425" on="1"/>
        <pt x="628" y="394" on="0"/>
        <pt x="532" y="259" on="0"/>
        <pt x="506" y="225" on="0"/>
        <pt x="496" y="212" on="0"/>
        <pt x="457" y="189" on="0"/>
        <pt x="412" y="189" on="0"/>
        <pt x="375" y="210" on="0"/>
        <pt x="367" y="220" on="1"/>
        <pt x="359" y="231" on="1"/>
        <pt x="339" y="256" on="0"/>
        <pt x="221" y="419" on="0"/>
        <pt x="216" y="425" on="1"/>
        <pt x="216" y="88" on="1"/>
        <pt x="216" y="65" on="0"/>
        <pt x="213" y="42" on="0"/>
        <pt x="205" y="28" on="1"/>
        <pt x="190" y="1" on="0"/>
        <pt x="127" y="1" on="1"/>
        <pt x="66" y="1" on="0"/>
        <pt x="51" y="28" on="1"/>
        <pt x="43" y="42" on="0"/>
        <pt x="40" y="66" on="0"/>
        <pt x="40" y="90" on="1"/>
        <pt x="40" y="645" on="1"/>
        <pt x="40" y="668" on="0"/>
        <pt x="43" y="691" on="0"/>
        <pt x="51" y="706" on="1"/>
        <pt x="66" y="732" on="0"/>
        <pt x="129" y="732" on="1"/>
        <pt x="156" y="732" on="0"/>
        <pt x="195" y="719" on="0"/>
        <pt x="201" y="712" on="1"/>
        <pt x="207" y="706" on="1"/>
        <pt x="434" y="408" on="1"/>
        <pt x="604" y="633" on="0"/>
        <pt x="661" y="705" on="1"/>
        <pt x="678" y="732" on="0"/>
        <pt x="805" y="732" on="0"/>
      </contour>
    </TTGlyph>
    <TTGlyph name="N" xMin="40" yMin="0" xMax="680" yMax="732">
      <contour>
        <pt x="523" y="720" on="0"/>
        <pt x="561" y="732" on="0"/>
        <pt x="618" y="732" on="0"/>
        <pt x="653" y="722" on="0"/>
        <pt x="670" y="708" on="0"/>
        <pt x="674" y="694" on="1"/>
        <pt x="680" y="678" on="0"/>
        <pt x="680" y="643" on="1"/>
        <pt x="680" y="88" on="1"/>
        <pt x="680" y="64" on="0"/>
        <pt x="677" y="42" on="0"/>
        <pt x="669" y="27" on="1"/>
        <pt x="655" y="0" on="0"/>
        <pt x="591" y="0" on="1"/>
        <pt x="552" y="0" on="0"/>
        <pt x="522" y="12" on="0"/>
        <pt x="512" y="25" on="1"/>
        <pt x="287" y="325" on="0"/>
        <pt x="216" y="417" on="1"/>
        <pt x="216" y="88" on="1"/>
        <pt x="216" y="64" on="0"/>
        <pt x="213" y="42" on="0"/>
        <pt x="205" y="27" on="1"/>
        <pt x="191" y="0" on="0"/>
        <pt x="127" y="0" on="1"/>
        <pt x="65" y="0" on="0"/>
        <pt x="51" y="27" on="1"/>
        <pt x="43" y="42" on="0"/>
        <pt x="40" y="66" on="0"/>
        <pt x="40" y="89" on="1"/>
        <pt x="40" y="647" on="1"/>
        <pt x="40" y="685" on="0"/>
        <pt x="59" y="720" on="0"/>
        <pt x="97" y="732" on="0"/>
        <pt x="157" y="732" on="0"/>
        <pt x="192" y="721" on="0"/>
        <pt x="199" y="714" on="1"/>
        <pt x="203" y="711" on="0"/>
        <pt x="222" y="688" on="1"/>
        <pt x="433" y="401" on="0"/>
        <pt x="504" y="309" on="1"/>
        <pt x="504" y="647" on="1"/>
        <pt x="504" y="685" on="0"/>
      </contour>
    </TTGlyph>
    <TTGlyph name="Ntilde" xMin="40" yMin="0" xMax="680" yMax="973">
      <contour>
        <pt x="523" y="720" on="0"/>
        <pt x="561" y="732" on="0"/>
        <pt x="618" y="732" on="0"/>
        <pt x="653" y="722" on="0"/>
        <pt x="670" y="708" on="0"/>
        <pt x="674" y="694" on="1"/>
        <pt x="680" y="678" on="0"/>
        <pt x="680" y="643" on="1"/>
        <pt x="680" y="88" on="1"/>
        <pt x="680" y="64" on="0"/>
        <pt x="677" y="42" on="0"/>
        <pt x="669" y="27" on="1"/>
        <pt x="655" y="0" on="0"/>
        <pt x="591" y="0" on="1"/>
        <pt x="552" y="0" on="0"/>
        <pt x="522" y="12" on="0"/>
        <pt x="512" y="25" on="1"/>
        <pt x="287" y="325" on="0"/>
        <pt x="216" y="417" on="1"/>
        <pt x="216" y="88" on="1"/>
        <pt x="216" y="64" on="0"/>
        <pt x="213" y="42" on="0"/>
        <pt x="205" y="27" on="1"/>
        <pt x="191" y="0" on="0"/>
        <pt x="127" y="0" on="1"/>
        <pt x="65" y="0" on="0"/>
        <pt x="51" y="27" on="1"/>
        <pt x="43" y="42" on="0"/>
        <pt x="40" y="66" on="0"/>
        <pt x="40" y="89" on="1"/>
        <pt x="40" y="647" on="1"/>
        <pt x="40" y="685" on="0"/>
        <pt x="59" y="720" on="0"/>
        <pt x="97" y="732" on="0"/>
        <pt x="157" y="732" on="0"/>
        <pt x="192" y="721" on="0"/>
        <pt x="199" y="714" on="1"/>
        <pt x="203" y="711" on="0"/>
        <pt x="222" y="688" on="1"/>
        <pt x="433" y="401" on="0"/>
        <pt x="504" y="309" on="1"/>
        <pt x="504" y="647" on="1"/>
        <pt x="504" y="685" on="0"/>
      </contour>
      <contour>
        <pt x="524" y="958" on="1"/>
        <pt x="560" y="933" on="0"/>
        <pt x="560" y="910" on="1"/>
        <pt x="560" y="896" on="0"/>
        <pt x="544" y="870" on="0"/>
        <pt x="538" y="859" on="0"/>
        <pt x="516" y="831" on="0"/>
        <pt x="502" y="820" on="1"/>
        <pt x="464" y="792" on="0"/>
        <pt x="386" y="792" on="0"/>
        <pt x="341" y="818" on="0"/>
        <pt x="312" y="844" on="0"/>
        <pt x="303" y="844" on="1"/>
        <pt x="289" y="844" on="0"/>
        <pt x="277" y="832" on="1"/>
        <pt x="254" y="792" on="0"/>
        <pt x="215" y="792" on="0"/>
        <pt x="160" y="840" on="0"/>
        <pt x="160" y="871" on="0"/>
        <pt x="176" y="897" on="0"/>
        <pt x="182" y="908" on="0"/>
        <pt x="205" y="935" on="0"/>
        <pt x="219" y="946" on="1"/>
        <pt x="256" y="973" on="0"/>
        <pt x="336" y="973" on="0"/>
        <pt x="380" y="948" on="0"/>
        <pt x="408" y="923" on="0"/>
        <pt x="417" y="923" on="1"/>
        <pt x="433" y="923" on="0"/>
        <pt x="443" y="935" on="1"/>
        <pt x="464" y="973" on="0"/>
        <pt x="488" y="973" on="1"/>
        <pt x="503" y="973" on="0"/>
      </contour>
    </TTGlyph>
    <TTGlyph name="O" xMin="25" yMin="-12" xMax="750" yMax="742">
      <contour>
        <pt x="384" y="742" on="1"/>
        <pt x="532" y="742" on="0"/>
        <pt x="750" y="528" on="0"/>
        <pt x="750" y="211" on="0"/>
        <pt x="542" y="-12" on="0"/>
        <pt x="238" y="-12" on="0"/>
        <pt x="25" y="208" on="0"/>
        <pt x="25" y="360" on="1"/>
        <pt x="25" y="443" on="0"/>
        <pt x="85" y="588" on="0"/>
        <pt x="185" y="686" on="0"/>
        <pt x="315" y="742" on="0"/>
      </contour>
      <contour>
        <pt x="202" y="276" on="0"/>
        <pt x="317" y="165" on="0"/>
        <pt x="459" y="165" on="0"/>
        <pt x="573" y="273" on="0"/>
        <pt x="573" y="455" on="0"/>
        <pt x="458" y="565" on="0"/>
        <pt x="316" y="565" on="0"/>
        <pt x="202" y="454" on="0"/>
      </contour>
    </TTGlyph>
    <TTGlyph name="OE" xMin="25" yMin="0" xMax="1067" yMax="733">
      <contour>
        <pt x="979" y="177" on="1"/>
        <pt x="1002" y="177" on="0"/>
        <pt x="1025" y="174" on="0"/>
        <pt x="1040" y="166" on="1"/>
        <pt x="1067" y="152" on="0"/>
        <pt x="1067" y="88" on="1"/>
        <pt x="1067" y="18" on="0"/>
        <pt x="1030" y="6" on="1"/>
        <pt x="1013" y="0" on="0"/>
        <pt x="978" y="0" on="1"/>
        <pt x="373" y="0" on="1"/>
        <pt x="225" y="8" on="0"/>
        <pt x="25" y="219" on="0"/>
        <pt x="25" y="520" on="0"/>
        <pt x="234" y="733" on="0"/>
        <pt x="373" y="733" on="1"/>
        <pt x="979" y="733" on="1"/>
        <pt x="1002" y="733" on="0"/>
        <pt x="1025" y="730" on="0"/>
        <pt x="1040" y="722" on="1"/>
        <pt x="1067" y="708" on="0"/>
        <pt x="1067" y="644" on="1"/>
        <pt x="1067" y="574" on="0"/>
        <pt x="1030" y="562" on="1"/>
        <pt x="1013" y="556" on="0"/>
        <pt x="978" y="556" on="1"/>
        <pt x="671" y="556" on="1"/>
        <pt x="671" y="455" on="1"/>
        <pt x="869" y="455" on="1"/>
        <pt x="892" y="455" on="0"/>
        <pt x="915" y="452" on="0"/>
        <pt x="930" y="444" on="1"/>
        <pt x="957" y="430" on="0"/>
        <pt x="957" y="366" on="1"/>
        <pt x="957" y="296" on="0"/>
        <pt x="919" y="284" on="1"/>
        <pt x="902" y="278" on="0"/>
        <pt x="867" y="278" on="1"/>
        <pt x="671" y="278" on="1"/>
        <pt x="671" y="177" on="1"/>
      </contour>
      <contour>
        <pt x="373" y="173" on="1"/>
        <pt x="494" y="173" on="1"/>
        <pt x="494" y="560" on="1"/>
        <pt x="373" y="560" on="1"/>
        <pt x="305" y="554" on="0"/>
        <pt x="202" y="448" on="0"/>
        <pt x="202" y="284" on="0"/>
        <pt x="306" y="179" on="0"/>
      </contour>
    </TTGlyph>
    <TTGlyph name="Oacute" xMin="25" yMin="-12" xMax="750" yMax="974">
      <contour>
        <pt x="384" y="742" on="1"/>
        <pt x="532" y="742" on="0"/>
        <pt x="750" y="528" on="0"/>
        <pt x="750" y="211" on="0"/>
        <pt x="542" y="-12" on="0"/>
        <pt x="238" y="-12" on="0"/>
        <pt x="25" y="208" on="0"/>
        <pt x="25" y="360" on="1"/>
        <pt x="25" y="443" on="0"/>
        <pt x="85" y="588" on="0"/>
        <pt x="185" y="686" on="0"/>
        <pt x="315" y="742" on="0"/>
      </contour>
      <contour>
        <pt x="202" y="276" on="0"/>
        <pt x="317" y="165" on="0"/>
        <pt x="459" y="165" on="0"/>
        <pt x="573" y="273" on="0"/>
        <pt x="573" y="455" on="0"/>
        <pt x="458" y="565" on="0"/>
        <pt x="316" y="565" on="0"/>
        <pt x="202" y="454" on="0"/>
      </contour>
      <contour>
        <pt x="349" y="776" on="1"/>
        <pt x="319" y="769" on="1"/>
        <pt x="289" y="769" on="0"/>
        <pt x="270" y="828" on="1"/>
        <pt x="262" y="852" on="0"/>
        <pt x="262" y="886" on="0"/>
        <pt x="268" y="895" on="1"/>
        <pt x="278" y="908" on="0"/>
        <pt x="305" y="916" on="1"/>
        <pt x="470" y="967" on="1"/>
        <pt x="496" y="974" on="0"/>
        <pt x="500" y="974" on="1"/>
        <pt x="530" y="974" on="0"/>
        <pt x="548" y="915" on="1"/>
        <pt x="556" y="891" on="0"/>
        <pt x="556" y="858" on="0"/>
        <pt x="550" y="849" on="1"/>
        <pt x="540" y="836" on="0"/>
        <pt x="513" y="828" on="1"/>
      </contour>
    </TTGlyph>
    <TTGlyph name="Ocircumflex" xMin="25" yMin="-12" xMax="750" yMax="974">
      <contour>
        <pt x="384" y="742" on="1"/>
        <pt x="532" y="742" on="0"/>
        <pt x="750" y="528" on="0"/>
        <pt x="750" y="211" on="0"/>
        <pt x="542" y="-12" on="0"/>
        <pt x="238" y="-12" on="0"/>
        <pt x="25" y="208" on="0"/>
        <pt x="25" y="360" on="1"/>
        <pt x="25" y="443" on="0"/>
        <pt x="85" y="588" on="0"/>
        <pt x="185" y="686" on="0"/>
        <pt x="315" y="742" on="0"/>
      </contour>
      <contour>
        <pt x="202" y="276" on="0"/>
        <pt x="317" y="165" on="0"/>
        <pt x="459" y="165" on="0"/>
        <pt x="573" y="273" on="0"/>
        <pt x="573" y="455" on="0"/>
        <pt x="458" y="565" on="0"/>
        <pt x="316" y="565" on="0"/>
        <pt x="202" y="454" on="0"/>
      </contour>
      <contour>
        <pt x="390" y="974" on="1"/>
        <pt x="413" y="969" on="1"/>
        <pt x="506" y="939" on="0"/>
        <pt x="589" y="911" on="0"/>
        <pt x="589" y="876" on="1"/>
        <pt x="589" y="857" on="0"/>
        <pt x="578" y="836" on="1"/>
        <pt x="552" y="783" on="0"/>
        <pt x="518" y="783" on="1"/>
        <pt x="509" y="783" on="0"/>
        <pt x="486" y="790" on="1"/>
        <pt x="390" y="832" on="1"/>
        <pt x="297" y="792" on="1"/>
        <pt x="296" y="792" on="0"/>
        <pt x="296" y="792" on="1"/>
        <pt x="276" y="785" on="0"/>
        <pt x="263" y="785" on="1"/>
        <pt x="225" y="785" on="0"/>
        <pt x="201" y="836" on="1"/>
        <pt x="189" y="862" on="0"/>
        <pt x="189" y="878" on="1"/>
        <pt x="189" y="910" on="0"/>
        <pt x="227" y="923" on="1"/>
        <pt x="366" y="969" on="1"/>
      </contour>
    </TTGlyph>
    <TTGlyph name="Odieresis" xMin="25" yMin="-12" xMax="750" yMax="973">
      <contour>
        <pt x="384" y="742" on="1"/>
        <pt x="532" y="742" on="0"/>
        <pt x="750" y="528" on="0"/>
        <pt x="750" y="211" on="0"/>
        <pt x="542" y="-12" on="0"/>
        <pt x="238" y="-12" on="0"/>
        <pt x="25" y="208" on="0"/>
        <pt x="25" y="360" on="1"/>
        <pt x="25" y="443" on="0"/>
        <pt x="85" y="588" on="0"/>
        <pt x="185" y="686" on="0"/>
        <pt x="315" y="742" on="0"/>
      </contour>
      <contour>
        <pt x="202" y="276" on="0"/>
        <pt x="317" y="165" on="0"/>
        <pt x="459" y="165" on="0"/>
        <pt x="573" y="273" on="0"/>
        <pt x="573" y="455" on="0"/>
        <pt x="458" y="565" on="0"/>
        <pt x="316" y="565" on="0"/>
        <pt x="202" y="454" on="0"/>
      </contour>
      <contour>
        <pt x="280" y="795" on="0"/>
        <pt x="216" y="795" on="0"/>
        <pt x="178" y="807" on="0"/>
        <pt x="162" y="838" on="0"/>
        <pt x="159" y="861" on="0"/>
        <pt x="160" y="910" on="0"/>
        <pt x="163" y="931" on="0"/>
        <pt x="178" y="961" on="0"/>
        <pt x="217" y="973" on="0"/>
        <pt x="281" y="973" on="0"/>
        <pt x="319" y="961" on="0"/>
        <pt x="335" y="930" on="0"/>
        <pt x="338" y="907" on="0"/>
        <pt x="338" y="860" on="0"/>
        <pt x="335" y="837" on="0"/>
        <pt x="319" y="807" on="0"/>
      </contour>
      <contour>
        <pt x="550" y="795" on="0"/>
        <pt x="486" y="795" on="0"/>
        <pt x="448" y="807" on="0"/>
        <pt x="432" y="838" on="0"/>
        <pt x="429" y="861" on="0"/>
        <pt x="429" y="909" on="0"/>
        <pt x="432" y="932" on="0"/>
        <pt x="448" y="961" on="0"/>
        <pt x="487" y="973" on="0"/>
        <pt x="551" y="973" on="0"/>
        <pt x="589" y="961" on="0"/>
        <pt x="605" y="930" on="0"/>
        <pt x="608" y="907" on="0"/>
        <pt x="608" y="860" on="0"/>
        <pt x="605" y="837" on="0"/>
        <pt x="589" y="807" on="0"/>
      </contour>
    </TTGlyph>
    <TTGlyph name="Ograve" xMin="25" yMin="-12" xMax="750" yMax="961">
      <contour>
        <pt x="384" y="742" on="1"/>
        <pt x="532" y="742" on="0"/>
        <pt x="750" y="528" on="0"/>
        <pt x="750" y="211" on="0"/>
        <pt x="542" y="-12" on="0"/>
        <pt x="238" y="-12" on="0"/>
        <pt x="25" y="208" on="0"/>
        <pt x="25" y="360" on="1"/>
        <pt x="25" y="443" on="0"/>
        <pt x="85" y="588" on="0"/>
        <pt x="185" y="686" on="0"/>
        <pt x="315" y="742" on="0"/>
      </contour>
      <contour>
        <pt x="202" y="276" on="0"/>
        <pt x="317" y="165" on="0"/>
        <pt x="459" y="165" on="0"/>
        <pt x="573" y="273" on="0"/>
        <pt x="573" y="455" on="0"/>
        <pt x="458" y="565" on="0"/>
        <pt x="316" y="565" on="0"/>
        <pt x="202" y="454" on="0"/>
      </contour>
      <contour>
        <pt x="456" y="756" on="1"/>
        <pt x="447" y="756" on="0"/>
        <pt x="426" y="763" on="1"/>
        <pt x="261" y="815" on="1"/>
        <pt x="234" y="823" on="0"/>
        <pt x="218" y="845" on="0"/>
        <pt x="218" y="878" on="0"/>
        <pt x="226" y="902" on="1"/>
        <pt x="245" y="961" on="0"/>
        <pt x="275" y="961" on="1"/>
        <pt x="279" y="961" on="0"/>
        <pt x="305" y="954" on="1"/>
        <pt x="470" y="903" on="1"/>
        <pt x="484" y="898" on="0"/>
        <pt x="492" y="894" on="1"/>
        <pt x="513" y="884" on="0"/>
        <pt x="513" y="839" on="0"/>
        <pt x="505" y="815" on="1"/>
        <pt x="486" y="756" on="0"/>
      </contour>
    </TTGlyph>
    <TTGlyph name="Oslash" xMin="25" yMin="-56" xMax="750" yMax="782">
      <contour>
        <pt x="310" y="-2" on="1"/>
        <pt x="292" y="-56" on="0"/>
        <pt x="256" y="-56" on="1"/>
        <pt x="236" y="-56" on="0"/>
        <pt x="170" y="-26" on="0"/>
        <pt x="147" y="-3" on="0"/>
        <pt x="147" y="25" on="0"/>
        <pt x="159" y="61" on="1"/>
        <pt x="163" y="69" on="1"/>
        <pt x="98" y="121" on="0"/>
        <pt x="25" y="274" on="0"/>
        <pt x="25" y="443" on="0"/>
        <pt x="85" y="588" on="0"/>
        <pt x="185" y="686" on="0"/>
        <pt x="315" y="742" on="0"/>
        <pt x="434" y="742" on="0"/>
        <pt x="479" y="729" on="1"/>
        <pt x="495" y="770" on="0"/>
        <pt x="515" y="778" on="1"/>
        <pt x="523" y="782" on="0"/>
        <pt x="554" y="782" on="0"/>
        <pt x="589" y="766" on="1"/>
        <pt x="643" y="740" on="0"/>
        <pt x="643" y="709" on="1"/>
        <pt x="643" y="690" on="0"/>
        <pt x="625" y="650" on="1"/>
        <pt x="750" y="538" on="0"/>
        <pt x="750" y="364" on="1"/>
        <pt x="750" y="211" on="0"/>
        <pt x="542" y="-12" on="0"/>
        <pt x="393" y="-12" on="1"/>
        <pt x="355" y="-12" on="0"/>
      </contour>
      <contour>
        <pt x="316" y="565" on="0"/>
        <pt x="202" y="454" on="0"/>
        <pt x="202" y="290" on="0"/>
        <pt x="243" y="238" on="1"/>
        <pt x="400" y="564" on="1"/>
        <pt x="396" y="565" on="0"/>
        <pt x="388" y="565" on="1"/>
      </contour>
      <contour>
        <pt x="573" y="365" on="1"/>
        <pt x="573" y="429" on="0"/>
        <pt x="541" y="477" on="1"/>
        <pt x="391" y="165" on="1"/>
        <pt x="462" y="167" on="0"/>
        <pt x="573" y="275" on="0"/>
      </contour>
    </TTGlyph>
    <TTGlyph name="Otilde" xMin="25" yMin="-12" xMax="750" yMax="973">
      <contour>
        <pt x="384" y="742" on="1"/>
        <pt x="532" y="742" on="0"/>
        <pt x="750" y="528" on="0"/>
        <pt x="750" y="211" on="0"/>
        <pt x="542" y="-12" on="0"/>
        <pt x="238" y="-12" on="0"/>
        <pt x="25" y="208" on="0"/>
        <pt x="25" y="360" on="1"/>
        <pt x="25" y="443" on="0"/>
        <pt x="85" y="588" on="0"/>
        <pt x="185" y="686" on="0"/>
        <pt x="315" y="742" on="0"/>
      </contour>
      <contour>
        <pt x="202" y="276" on="0"/>
        <pt x="317" y="165" on="0"/>
        <pt x="459" y="165" on="0"/>
        <pt x="573" y="273" on="0"/>
        <pt x="573" y="455" on="0"/>
        <pt x="458" y="565" on="0"/>
        <pt x="316" y="565" on="0"/>
        <pt x="202" y="454" on="0"/>
      </contour>
      <contour>
        <pt x="573" y="958" on="1"/>
        <pt x="609" y="933" on="0"/>
        <pt x="609" y="910" on="1"/>
        <pt x="609" y="896" on="0"/>
        <pt x="593" y="870" on="0"/>
        <pt x="587" y="859" on="0"/>
        <pt x="565" y="831" on="0"/>
        <pt x="551" y="820" on="1"/>
        <pt x="513" y="792" on="0"/>
        <pt x="435" y="792" on="0"/>
        <pt x="390" y="818" on="0"/>
        <pt x="361" y="844" on="0"/>
        <pt x="352" y="844" on="1"/>
        <pt x="338" y="844" on="0"/>
        <pt x="326" y="832" on="1"/>
        <pt x="303" y="792" on="0"/>
        <pt x="264" y="792" on="0"/>
        <pt x="209" y="840" on="0"/>
        <pt x="209" y="871" on="0"/>
        <pt x="225" y="897" on="0"/>
        <pt x="231" y="908" on="0"/>
        <pt x="254" y="935" on="0"/>
        <pt x="268" y="946" on="1"/>
        <pt x="305" y="973" on="0"/>
        <pt x="385" y="973" on="0"/>
        <pt x="429" y="948" on="0"/>
        <pt x="457" y="923" on="0"/>
        <pt x="466" y="923" on="1"/>
        <pt x="484" y="923" on="0"/>
        <pt x="492" y="935" on="1"/>
        <pt x="513" y="973" on="0"/>
        <pt x="537" y="973" on="1"/>
        <pt x="552" y="973" on="0"/>
      </contour>
    </TTGlyph>
    <TTGlyph name="P" xMin="40" yMin="1" xMax="607" yMax="733">
      <contour>
        <pt x="607" y="532" on="0"/>
        <pt x="607" y="402" on="0"/>
        <pt x="555" y="297" on="0"/>
        <pt x="514" y="266" on="1"/>
        <pt x="431" y="202" on="0"/>
        <pt x="342" y="202" on="1"/>
        <pt x="217" y="202" on="1"/>
        <pt x="217" y="89" on="1"/>
        <pt x="217" y="66" on="0"/>
        <pt x="214" y="43" on="0"/>
        <pt x="206" y="28" on="1"/>
        <pt x="192" y="1" on="0"/>
        <pt x="128" y="1" on="1"/>
        <pt x="58" y="1" on="0"/>
        <pt x="46" y="38" on="1"/>
        <pt x="40" y="55" on="0"/>
        <pt x="40" y="90" on="1"/>
        <pt x="40" y="645" on="1"/>
        <pt x="40" y="668" on="0"/>
        <pt x="43" y="691" on="0"/>
        <pt x="51" y="706" on="1"/>
        <pt x="65" y="733" on="0"/>
        <pt x="129" y="733" on="1"/>
        <pt x="343" y="733" on="1"/>
        <pt x="431" y="733" on="0"/>
        <pt x="514" y="669" on="1"/>
        <pt x="555" y="638" on="0"/>
      </contour>
      <contour>
        <pt x="373" y="379" on="0"/>
        <pt x="431" y="423" on="0"/>
        <pt x="431" y="511" on="0"/>
        <pt x="373" y="556" on="0"/>
        <pt x="342" y="556" on="1"/>
        <pt x="217" y="556" on="1"/>
        <pt x="217" y="379" on="1"/>
        <pt x="343" y="379" on="1"/>
      </contour>
    </TTGlyph>
    <TTGlyph name="Q" xMin="25" yMin="-12" xMax="815" yMax="742">
      <contour>
        <pt x="713" y="199" on="1"/>
        <pt x="759" y="168" on="0"/>
        <pt x="779" y="154" on="1"/>
        <pt x="815" y="127" on="0"/>
        <pt x="815" y="78" on="0"/>
        <pt x="755" y="-10" on="0"/>
        <pt x="724" y="-10" on="1"/>
        <pt x="705" y="-10" on="0"/>
        <pt x="666" y="17" on="1"/>
        <pt x="661" y="20" on="0"/>
        <pt x="615" y="52" on="0"/>
        <pt x="602" y="60" on="1"/>
        <pt x="509" y="-12" on="0"/>
        <pt x="393" y="-12" on="1"/>
        <pt x="238" y="-12" on="0"/>
        <pt x="25" y="208" on="0"/>
        <pt x="25" y="360" on="1"/>
        <pt x="25" y="443" on="0"/>
        <pt x="85" y="588" on="0"/>
        <pt x="185" y="686" on="0"/>
        <pt x="315" y="742" on="0"/>
        <pt x="384" y="742" on="1"/>
        <pt x="532" y="742" on="0"/>
        <pt x="750" y="528" on="0"/>
        <pt x="750" y="364" on="1"/>
        <pt x="750" y="281" on="0"/>
      </contour>
      <contour>
        <pt x="202" y="276" on="0"/>
        <pt x="317" y="165" on="0"/>
        <pt x="459" y="165" on="0"/>
        <pt x="573" y="273" on="0"/>
        <pt x="573" y="455" on="0"/>
        <pt x="458" y="565" on="0"/>
        <pt x="316" y="565" on="0"/>
        <pt x="202" y="454" on="0"/>
      </contour>
    </TTGlyph>
    <TTGlyph name="R" xMin="40" yMin="-6" xMax="616" yMax="733">
      <contour>
        <pt x="601" y="124" on="1"/>
        <pt x="616" y="88" on="0"/>
        <pt x="616" y="72" on="1"/>
        <pt x="616" y="34" on="0"/>
        <pt x="554" y="8" on="1"/>
        <pt x="522" y="-6" on="0"/>
        <pt x="483" y="-6" on="0"/>
        <pt x="458" y="13" on="0"/>
        <pt x="452" y="23" on="1"/>
        <pt x="442" y="42" on="0"/>
        <pt x="374" y="204" on="1"/>
        <pt x="343" y="202" on="1"/>
        <pt x="217" y="202" on="1"/>
        <pt x="217" y="89" on="1"/>
        <pt x="217" y="66" on="0"/>
        <pt x="214" y="43" on="0"/>
        <pt x="206" y="28" on="1"/>
        <pt x="192" y="1" on="0"/>
        <pt x="128" y="1" on="1"/>
        <pt x="58" y="1" on="0"/>
        <pt x="46" y="38" on="1"/>
        <pt x="40" y="55" on="0"/>
        <pt x="40" y="90" on="1"/>
        <pt x="40" y="645" on="1"/>
        <pt x="40" y="668" on="0"/>
        <pt x="43" y="691" on="0"/>
        <pt x="51" y="706" on="1"/>
        <pt x="65" y="733" on="0"/>
        <pt x="129" y="733" on="1"/>
        <pt x="345" y="733" on="1"/>
        <pt x="433" y="733" on="0"/>
        <pt x="516" y="669" on="1"/>
        <pt x="556" y="638" on="0"/>
        <pt x="608" y="532" on="0"/>
        <pt x="608" y="467" on="1"/>
        <pt x="608" y="354" on="0"/>
        <pt x="533" y="281" on="1"/>
        <pt x="555" y="228" on="0"/>
      </contour>
      <contour>
        <pt x="217" y="379" on="1"/>
        <pt x="345" y="379" on="1"/>
        <pt x="374" y="379" on="0"/>
        <pt x="432" y="423" on="0"/>
        <pt x="432" y="511" on="0"/>
        <pt x="374" y="556" on="0"/>
        <pt x="343" y="556" on="1"/>
        <pt x="217" y="556" on="1"/>
      </contour>
    </TTGlyph>
    <TTGlyph name="S" xMin="25" yMin="-10" xMax="558" yMax="745">
      <contour>
        <pt x="51" y="103" on="1"/>
        <pt x="25" y="135" on="0"/>
        <pt x="25" y="186" on="0"/>
        <pt x="68" y="228" on="1"/>
        <pt x="93" y="252" on="0"/>
        <pt x="149" y="252" on="0"/>
        <pt x="199" y="202" on="1"/>
        <pt x="213" y="185" on="0"/>
        <pt x="265" y="154" on="0"/>
        <pt x="287" y="154" on="1"/>
        <pt x="380" y="154" on="0"/>
        <pt x="380" y="230" on="1"/>
        <pt x="380" y="253" on="0"/>
        <pt x="329" y="284" on="0"/>
        <pt x="253" y="298" on="0"/>
        <pt x="165" y="329" on="0"/>
        <pt x="89" y="371" on="0"/>
        <pt x="38" y="462" on="0"/>
        <pt x="38" y="526" on="1"/>
        <pt x="38" y="614" on="0"/>
        <pt x="169" y="745" on="0"/>
        <pt x="282" y="745" on="1"/>
        <pt x="342" y="745" on="0"/>
        <pt x="441" y="714" on="0"/>
        <pt x="460" y="698" on="1"/>
        <pt x="485" y="679" on="1"/>
        <pt x="516" y="650" on="0"/>
        <pt x="516" y="610" on="0"/>
        <pt x="492" y="575" on="1"/>
        <pt x="458" y="525" on="0"/>
        <pt x="422" y="525" on="1"/>
        <pt x="401" y="525" on="0"/>
        <pt x="370" y="545" on="1"/>
        <pt x="367" y="547" on="0"/>
        <pt x="350" y="563" on="0"/>
        <pt x="343" y="568" on="1"/>
        <pt x="322" y="581" on="0"/>
        <pt x="257" y="581" on="0"/>
        <pt x="214" y="550" on="0"/>
        <pt x="214" y="495" on="0"/>
        <pt x="265" y="461" on="0"/>
        <pt x="341" y="449" on="0"/>
        <pt x="431" y="424" on="0"/>
        <pt x="507" y="388" on="0"/>
        <pt x="558" y="299" on="0"/>
        <pt x="558" y="169" on="0"/>
        <pt x="506" y="70" on="0"/>
        <pt x="464" y="43" on="1"/>
        <pt x="383" y="-10" on="0"/>
        <pt x="291" y="-10" on="1"/>
        <pt x="244" y="-10" on="0"/>
        <pt x="160" y="13" on="0"/>
        <pt x="134" y="30" on="1"/>
        <pt x="81" y="62" on="0"/>
        <pt x="60" y="92" on="1"/>
      </contour>
    </TTGlyph>
    <TTGlyph name="Scaron" xMin="25" yMin="-10" xMax="558" yMax="973">
      <contour>
        <pt x="51" y="103" on="1"/>
        <pt x="25" y="135" on="0"/>
        <pt x="25" y="186" on="0"/>
        <pt x="68" y="228" on="1"/>
        <pt x="93" y="252" on="0"/>
        <pt x="149" y="252" on="0"/>
        <pt x="199" y="202" on="1"/>
        <pt x="213" y="185" on="0"/>
        <pt x="265" y="154" on="0"/>
        <pt x="287" y="154" on="1"/>
        <pt x="380" y="154" on="0"/>
        <pt x="380" y="230" on="1"/>
        <pt x="380" y="253" on="0"/>
        <pt x="329" y="284" on="0"/>
        <pt x="253" y="298" on="0"/>
        <pt x="165" y="329" on="0"/>
        <pt x="89" y="371" on="0"/>
        <pt x="38" y="462" on="0"/>
        <pt x="38" y="526" on="1"/>
        <pt x="38" y="614" on="0"/>
        <pt x="169" y="745" on="0"/>
        <pt x="282" y="745" on="1"/>
        <pt x="342" y="745" on="0"/>
        <pt x="441" y="714" on="0"/>
        <pt x="460" y="698" on="1"/>
        <pt x="485" y="679" on="1"/>
        <pt x="516" y="650" on="0"/>
        <pt x="516" y="610" on="0"/>
        <pt x="492" y="575" on="1"/>
        <pt x="458" y="525" on="0"/>
        <pt x="422" y="525" on="1"/>
        <pt x="401" y="525" on="0"/>
        <pt x="370" y="545" on="1"/>
        <pt x="367" y="547" on="0"/>
        <pt x="350" y="563" on="0"/>
        <pt x="343" y="568" on="1"/>
        <pt x="322" y="581" on="0"/>
        <pt x="257" y="581" on="0"/>
        <pt x="214" y="550" on="0"/>
        <pt x="214" y="495" on="0"/>
        <pt x="265" y="461" on="0"/>
        <pt x="341" y="449" on="0"/>
        <pt x="431" y="424" on="0"/>
        <pt x="507" y="388" on="0"/>
        <pt x="558" y="299" on="0"/>
        <pt x="558" y="169" on="0"/>
        <pt x="506" y="70" on="0"/>
        <pt x="464" y="43" on="1"/>
        <pt x="383" y="-10" on="0"/>
        <pt x="291" y="-10" on="1"/>
        <pt x="244" y="-10" on="0"/>
        <pt x="160" y="13" on="0"/>
        <pt x="134" y="30" on="1"/>
        <pt x="81" y="62" on="0"/>
        <pt x="60" y="92" on="1"/>
      </contour>
      <contour>
        <pt x="291" y="783" on="1"/>
        <pt x="268" y="788" on="1"/>
        <pt x="175" y="819" on="0"/>
        <pt x="129" y="834" on="1"/>
        <pt x="92" y="845" on="0"/>
        <pt x="92" y="879" on="1"/>
        <pt x="92" y="896" on="0"/>
        <pt x="102" y="921" on="1"/>
        <pt x="126" y="970" on="0"/>
        <pt x="152" y="972" on="1"/>
        <pt x="161" y="973" on="0"/>
        <pt x="165" y="973" on="1"/>
        <pt x="176" y="973" on="0"/>
        <pt x="194" y="967" on="1"/>
        <pt x="291" y="925" on="1"/>
        <pt x="377" y="963" on="1"/>
        <pt x="403" y="972" on="0"/>
        <pt x="429" y="972" on="0"/>
        <pt x="436" y="969" on="1"/>
        <pt x="462" y="958" on="0"/>
        <pt x="492" y="897" on="0"/>
        <pt x="492" y="878" on="1"/>
        <pt x="492" y="846" on="0"/>
        <pt x="453" y="834" on="1"/>
        <pt x="314" y="788" on="1"/>
      </contour>
    </TTGlyph>
    <TTGlyph name="T" xMin="15" yMin="0" xMax="716" yMax="734">
      <contour>
        <pt x="88" y="734" on="1"/>
        <pt x="644" y="734" on="1"/>
        <pt x="676" y="734" on="0"/>
        <pt x="706" y="719" on="0"/>
        <pt x="716" y="687" on="0"/>
        <pt x="716" y="635" on="0"/>
        <pt x="706" y="604" on="0"/>
        <pt x="694" y="598" on="1"/>
        <pt x="676" y="589" on="0"/>
        <pt x="643" y="589" on="1"/>
        <pt x="452" y="589" on="1"/>
        <pt x="452" y="86" on="1"/>
        <pt x="452" y="63" on="0"/>
        <pt x="449" y="41" on="0"/>
        <pt x="434" y="12" on="0"/>
        <pt x="396" y="0" on="0"/>
        <pt x="334" y="0" on="0"/>
        <pt x="297" y="12" on="0"/>
        <pt x="282" y="41" on="0"/>
        <pt x="279" y="64" on="0"/>
        <pt x="279" y="87" on="1"/>
        <pt x="279" y="589" on="1"/>
        <pt x="87" y="589" on="1"/>
        <pt x="55" y="589" on="0"/>
        <pt x="25" y="604" on="0"/>
        <pt x="15" y="636" on="0"/>
        <pt x="15" y="688" on="0"/>
        <pt x="25" y="719" on="0"/>
        <pt x="37" y="725" on="1"/>
        <pt x="55" y="734" on="0"/>
      </contour>
    </TTGlyph>
    <TTGlyph name="Thorn" xMin="40" yMin="1" xMax="607" yMax="733">
      <contour>
        <pt x="40" y="645" on="1"/>
        <pt x="40" y="668" on="0"/>
        <pt x="43" y="691" on="0"/>
        <pt x="51" y="706" on="1"/>
        <pt x="65" y="733" on="0"/>
        <pt x="129" y="733" on="1"/>
        <pt x="199" y="733" on="0"/>
        <pt x="212" y="696" on="1"/>
        <pt x="217" y="679" on="0"/>
        <pt x="217" y="644" on="1"/>
        <pt x="217" y="632" on="1"/>
        <pt x="343" y="632" on="1"/>
        <pt x="431" y="632" on="0"/>
        <pt x="514" y="568" on="1"/>
        <pt x="555" y="537" on="0"/>
        <pt x="607" y="431" on="0"/>
        <pt x="607" y="301" on="0"/>
        <pt x="555" y="196" on="0"/>
        <pt x="514" y="165" on="1"/>
        <pt x="431" y="101" on="0"/>
        <pt x="342" y="101" on="1"/>
        <pt x="217" y="101" on="1"/>
        <pt x="217" y="89" on="1"/>
        <pt x="217" y="66" on="0"/>
        <pt x="214" y="43" on="0"/>
        <pt x="206" y="28" on="1"/>
        <pt x="192" y="1" on="0"/>
        <pt x="128" y="1" on="1"/>
        <pt x="58" y="1" on="0"/>
        <pt x="46" y="38" on="1"/>
        <pt x="40" y="55" on="0"/>
        <pt x="40" y="90" on="1"/>
      </contour>
      <contour>
        <pt x="373" y="278" on="0"/>
        <pt x="431" y="322" on="0"/>
        <pt x="431" y="410" on="0"/>
        <pt x="373" y="455" on="0"/>
        <pt x="342" y="455" on="1"/>
        <pt x="217" y="455" on="1"/>
        <pt x="217" y="278" on="1"/>
        <pt x="343" y="278" on="1"/>
      </contour>
    </TTGlyph>
    <TTGlyph name="U" xMin="40" yMin="-12" xMax="686" yMax="734">
      <contour>
        <pt x="529" y="722" on="0"/>
        <pt x="567" y="734" on="0"/>
        <pt x="624" y="734" on="0"/>
        <pt x="658" y="724" on="0"/>
        <pt x="676" y="710" on="0"/>
        <pt x="680" y="696" on="1"/>
        <pt x="686" y="679" on="0"/>
        <pt x="686" y="644" on="1"/>
        <pt x="686" y="342" on="1"/>
        <pt x="686" y="210" on="0"/>
        <pt x="604" y="102" on="1"/>
        <pt x="564" y="51" on="0"/>
        <pt x="438" y="-12" on="0"/>
        <pt x="285" y="-12" on="0"/>
        <pt x="160" y="52" on="0"/>
        <pt x="121" y="104" on="1"/>
        <pt x="40" y="210" on="0"/>
        <pt x="40" y="344" on="1"/>
        <pt x="40" y="645" on="1"/>
        <pt x="40" y="669" on="0"/>
        <pt x="43" y="692" on="0"/>
        <pt x="59" y="722" on="0"/>
        <pt x="97" y="734" on="0"/>
        <pt x="161" y="734" on="0"/>
        <pt x="199" y="722" on="0"/>
        <pt x="206" y="707" on="1"/>
        <pt x="218" y="684" on="0"/>
        <pt x="218" y="644" on="1"/>
        <pt x="218" y="344" on="1"/>
        <pt x="218" y="283" on="0"/>
        <pt x="248" y="228" on="1"/>
        <pt x="263" y="200" on="0"/>
        <pt x="323" y="166" on="0"/>
        <pt x="364" y="166" on="1"/>
        <pt x="437" y="166" on="0"/>
        <pt x="509" y="274" on="0"/>
        <pt x="509" y="345" on="1"/>
        <pt x="509" y="651" on="1"/>
        <pt x="509" y="690" on="0"/>
      </contour>
    </TTGlyph>
    <TTGlyph name="Uacute" xMin="40" yMin="-12" xMax="686" yMax="974">
      <contour>
        <pt x="529" y="722" on="0"/>
        <pt x="567" y="734" on="0"/>
        <pt x="624" y="734" on="0"/>
        <pt x="658" y="724" on="0"/>
        <pt x="676" y="710" on="0"/>
        <pt x="680" y="696" on="1"/>
        <pt x="686" y="679" on="0"/>
        <pt x="686" y="644" on="1"/>
        <pt x="686" y="342" on="1"/>
        <pt x="686" y="210" on="0"/>
        <pt x="604" y="102" on="1"/>
        <pt x="564" y="51" on="0"/>
        <pt x="438" y="-12" on="0"/>
        <pt x="285" y="-12" on="0"/>
        <pt x="160" y="52" on="0"/>
        <pt x="121" y="104" on="1"/>
        <pt x="40" y="210" on="0"/>
        <pt x="40" y="344" on="1"/>
        <pt x="40" y="645" on="1"/>
        <pt x="40" y="669" on="0"/>
        <pt x="43" y="692" on="0"/>
        <pt x="59" y="722" on="0"/>
        <pt x="97" y="734" on="0"/>
        <pt x="161" y="734" on="0"/>
        <pt x="199" y="722" on="0"/>
        <pt x="206" y="707" on="1"/>
        <pt x="218" y="684" on="0"/>
        <pt x="218" y="644" on="1"/>
        <pt x="218" y="344" on="1"/>
        <pt x="218" y="283" on="0"/>
        <pt x="248" y="228" on="1"/>
        <pt x="263" y="200" on="0"/>
        <pt x="323" y="166" on="0"/>
        <pt x="364" y="166" on="1"/>
        <pt x="437" y="166" on="0"/>
        <pt x="509" y="274" on="0"/>
        <pt x="509" y="345" on="1"/>
        <pt x="509" y="651" on="1"/>
        <pt x="509" y="690" on="0"/>
      </contour>
      <contour>
        <pt x="349" y="776" on="1"/>
        <pt x="319" y="769" on="1"/>
        <pt x="289" y="769" on="0"/>
        <pt x="270" y="828" on="1"/>
        <pt x="262" y="852" on="0"/>
        <pt x="262" y="886" on="0"/>
        <pt x="268" y="895" on="1"/>
        <pt x="278" y="908" on="0"/>
        <pt x="305" y="916" on="1"/>
        <pt x="470" y="967" on="1"/>
        <pt x="496" y="974" on="0"/>
        <pt x="500" y="974" on="1"/>
        <pt x="530" y="974" on="0"/>
        <pt x="548" y="915" on="1"/>
        <pt x="556" y="891" on="0"/>
        <pt x="556" y="858" on="0"/>
        <pt x="550" y="849" on="1"/>
        <pt x="540" y="836" on="0"/>
        <pt x="513" y="828" on="1"/>
      </contour>
    </TTGlyph>
    <TTGlyph name="Ucircumflex" xMin="40" yMin="-12" xMax="686" yMax="974">
      <contour>
        <pt x="529" y="722" on="0"/>
        <pt x="567" y="734" on="0"/>
        <pt x="624" y="734" on="0"/>
        <pt x="658" y="724" on="0"/>
        <pt x="676" y="710" on="0"/>
        <pt x="680" y="696" on="1"/>
        <pt x="686" y="679" on="0"/>
        <pt x="686" y="644" on="1"/>
        <pt x="686" y="342" on="1"/>
        <pt x="686" y="210" on="0"/>
        <pt x="604" y="102" on="1"/>
        <pt x="564" y="51" on="0"/>
        <pt x="438" y="-12" on="0"/>
        <pt x="285" y="-12" on="0"/>
        <pt x="160" y="52" on="0"/>
        <pt x="121" y="104" on="1"/>
        <pt x="40" y="210" on="0"/>
        <pt x="40" y="344" on="1"/>
        <pt x="40" y="645" on="1"/>
        <pt x="40" y="669" on="0"/>
        <pt x="43" y="692" on="0"/>
        <pt x="59" y="722" on="0"/>
        <pt x="97" y="734" on="0"/>
        <pt x="161" y="734" on="0"/>
        <pt x="199" y="722" on="0"/>
        <pt x="206" y="707" on="1"/>
        <pt x="218" y="684" on="0"/>
        <pt x="218" y="644" on="1"/>
        <pt x="218" y="344" on="1"/>
        <pt x="218" y="283" on="0"/>
        <pt x="248" y="228" on="1"/>
        <pt x="263" y="200" on="0"/>
        <pt x="323" y="166" on="0"/>
        <pt x="364" y="166" on="1"/>
        <pt x="437" y="166" on="0"/>
        <pt x="509" y="274" on="0"/>
        <pt x="509" y="345" on="1"/>
        <pt x="509" y="651" on="1"/>
        <pt x="509" y="690" on="0"/>
      </contour>
      <contour>
        <pt x="377" y="974" on="1"/>
        <pt x="400" y="969" on="1"/>
        <pt x="493" y="939" on="0"/>
        <pt x="576" y="911" on="0"/>
        <pt x="576" y="876" on="1"/>
        <pt x="576" y="857" on="0"/>
        <pt x="565" y="836" on="1"/>
        <pt x="538" y="783" on="0"/>
        <pt x="505" y="783" on="1"/>
        <pt x="496" y="783" on="0"/>
        <pt x="473" y="790" on="1"/>
        <pt x="377" y="832" on="1"/>
        <pt x="284" y="792" on="1"/>
        <pt x="270" y="785" on="0"/>
        <pt x="250" y="785" on="1"/>
        <pt x="212" y="785" on="0"/>
        <pt x="188" y="836" on="1"/>
        <pt x="176" y="862" on="0"/>
        <pt x="176" y="878" on="1"/>
        <pt x="176" y="910" on="0"/>
        <pt x="214" y="923" on="1"/>
        <pt x="353" y="969" on="1"/>
      </contour>
    </TTGlyph>
    <TTGlyph name="Udieresis" xMin="40" yMin="-12" xMax="686" yMax="973">
      <contour>
        <pt x="529" y="722" on="0"/>
        <pt x="567" y="734" on="0"/>
        <pt x="624" y="734" on="0"/>
        <pt x="658" y="724" on="0"/>
        <pt x="676" y="710" on="0"/>
        <pt x="680" y="696" on="1"/>
        <pt x="686" y="679" on="0"/>
        <pt x="686" y="644" on="1"/>
        <pt x="686" y="342" on="1"/>
        <pt x="686" y="210" on="0"/>
        <pt x="604" y="102" on="1"/>
        <pt x="564" y="51" on="0"/>
        <pt x="438" y="-12" on="0"/>
        <pt x="285" y="-12" on="0"/>
        <pt x="160" y="52" on="0"/>
        <pt x="121" y="104" on="1"/>
        <pt x="40" y="210" on="0"/>
        <pt x="40" y="344" on="1"/>
        <pt x="40" y="645" on="1"/>
        <pt x="40" y="669" on="0"/>
        <pt x="43" y="692" on="0"/>
        <pt x="59" y="722" on="0"/>
        <pt x="97" y="734" on="0"/>
        <pt x="161" y="734" on="0"/>
        <pt x="199" y="722" on="0"/>
        <pt x="206" y="707" on="1"/>
        <pt x="218" y="684" on="0"/>
        <pt x="218" y="644" on="1"/>
        <pt x="218" y="344" on="1"/>
        <pt x="218" y="283" on="0"/>
        <pt x="248" y="228" on="1"/>
        <pt x="263" y="200" on="0"/>
        <pt x="323" y="166" on="0"/>
        <pt x="364" y="166" on="1"/>
        <pt x="437" y="166" on="0"/>
        <pt x="509" y="274" on="0"/>
        <pt x="509" y="345" on="1"/>
        <pt x="509" y="651" on="1"/>
        <pt x="509" y="690" on="0"/>
      </contour>
      <contour>
        <pt x="530" y="795" on="0"/>
        <pt x="466" y="795" on="0"/>
        <pt x="428" y="807" on="0"/>
        <pt x="412" y="838" on="0"/>
        <pt x="409" y="861" on="0"/>
        <pt x="409" y="909" on="0"/>
        <pt x="412" y="932" on="0"/>
        <pt x="428" y="961" on="0"/>
        <pt x="467" y="973" on="0"/>
        <pt x="531" y="973" on="0"/>
        <pt x="569" y="961" on="0"/>
        <pt x="585" y="930" on="0"/>
        <pt x="588" y="907" on="0"/>
        <pt x="588" y="860" on="0"/>
        <pt x="585" y="837" on="0"/>
        <pt x="569" y="807" on="0"/>
      </contour>
      <contour>
        <pt x="260" y="795" on="0"/>
        <pt x="196" y="795" on="0"/>
        <pt x="158" y="807" on="0"/>
        <pt x="142" y="838" on="0"/>
        <pt x="139" y="861" on="0"/>
        <pt x="140" y="910" on="0"/>
        <pt x="143" y="931" on="0"/>
        <pt x="158" y="961" on="0"/>
        <pt x="197" y="973" on="0"/>
        <pt x="261" y="973" on="0"/>
        <pt x="299" y="961" on="0"/>
        <pt x="315" y="930" on="0"/>
        <pt x="318" y="907" on="0"/>
        <pt x="318" y="860" on="0"/>
        <pt x="315" y="837" on="0"/>
        <pt x="299" y="807" on="0"/>
      </contour>
    </TTGlyph>
    <TTGlyph name="Ugrave" xMin="40" yMin="-12" xMax="686" yMax="961">
      <contour>
        <pt x="529" y="722" on="0"/>
        <pt x="567" y="734" on="0"/>
        <pt x="624" y="734" on="0"/>
        <pt x="658" y="724" on="0"/>
        <pt x="676" y="710" on="0"/>
        <pt x="680" y="696" on="1"/>
        <pt x="686" y="679" on="0"/>
        <pt x="686" y="644" on="1"/>
        <pt x="686" y="342" on="1"/>
        <pt x="686" y="210" on="0"/>
        <pt x="604" y="102" on="1"/>
        <pt x="564" y="51" on="0"/>
        <pt x="438" y="-12" on="0"/>
        <pt x="285" y="-12" on="0"/>
        <pt x="160" y="52" on="0"/>
        <pt x="121" y="104" on="1"/>
        <pt x="40" y="210" on="0"/>
        <pt x="40" y="344" on="1"/>
        <pt x="40" y="645" on="1"/>
        <pt x="40" y="669" on="0"/>
        <pt x="43" y="692" on="0"/>
        <pt x="59" y="722" on="0"/>
        <pt x="97" y="734" on="0"/>
        <pt x="161" y="734" on="0"/>
        <pt x="199" y="722" on="0"/>
        <pt x="206" y="707" on="1"/>
        <pt x="218" y="684" on="0"/>
        <pt x="218" y="644" on="1"/>
        <pt x="218" y="344" on="1"/>
        <pt x="218" y="283" on="0"/>
        <pt x="248" y="228" on="1"/>
        <pt x="263" y="200" on="0"/>
        <pt x="323" y="166" on="0"/>
        <pt x="364" y="166" on="1"/>
        <pt x="437" y="166" on="0"/>
        <pt x="509" y="274" on="0"/>
        <pt x="509" y="345" on="1"/>
        <pt x="509" y="651" on="1"/>
        <pt x="509" y="690" on="0"/>
      </contour>
      <contour>
        <pt x="397" y="756" on="1"/>
        <pt x="367" y="763" on="1"/>
        <pt x="202" y="815" on="1"/>
        <pt x="175" y="823" on="0"/>
        <pt x="159" y="845" on="0"/>
        <pt x="159" y="878" on="0"/>
        <pt x="167" y="902" on="1"/>
        <pt x="186" y="961" on="0"/>
        <pt x="216" y="961" on="1"/>
        <pt x="220" y="961" on="0"/>
        <pt x="246" y="954" on="1"/>
        <pt x="411" y="903" on="1"/>
        <pt x="425" y="898" on="0"/>
        <pt x="432" y="894" on="1"/>
        <pt x="454" y="884" on="0"/>
        <pt x="454" y="839" on="0"/>
        <pt x="446" y="815" on="1"/>
        <pt x="427" y="756" on="0"/>
      </contour>
    </TTGlyph>
    <TTGlyph name="V" xMin="15" yMin="1" xMax="768" yMax="739">
      <contour>
        <pt x="709" y="722" on="1"/>
        <pt x="768" y="693" on="0"/>
        <pt x="768" y="658" on="1"/>
        <pt x="768" y="642" on="0"/>
        <pt x="753" y="610" on="1"/>
        <pt x="477" y="50" on="1"/>
        <pt x="466" y="28" on="0"/>
        <pt x="421" y="1" on="0"/>
        <pt x="397" y="1" on="1"/>
        <pt x="387" y="1" on="1"/>
        <pt x="362" y="1" on="0"/>
        <pt x="317" y="28" on="0"/>
        <pt x="306" y="50" on="1"/>
        <pt x="30" y="610" on="1"/>
        <pt x="15" y="642" on="0"/>
        <pt x="15" y="658" on="1"/>
        <pt x="15" y="693" on="0"/>
        <pt x="74" y="722" on="1"/>
        <pt x="107" y="739" on="0"/>
        <pt x="142" y="739" on="0"/>
        <pt x="160" y="731" on="0"/>
        <pt x="168" y="721" on="1"/>
        <pt x="177" y="709" on="0"/>
        <pt x="192" y="680" on="0"/>
        <pt x="254" y="543" on="0"/>
        <pt x="325" y="389" on="0"/>
        <pt x="388" y="252" on="0"/>
        <pt x="392" y="244" on="1"/>
        <pt x="592" y="682" on="1"/>
        <pt x="600" y="701" on="0"/>
        <pt x="606" y="712" on="1"/>
        <pt x="624" y="739" on="0"/>
        <pt x="676" y="739" on="0"/>
      </contour>
    </TTGlyph>
    <TTGlyph name="W" xMin="15" yMin="1" xMax="984" yMax="739">
      <contour>
        <pt x="917" y="729" on="1"/>
        <pt x="984" y="705" on="0"/>
        <pt x="984" y="665" on="1"/>
        <pt x="984" y="652" on="0"/>
        <pt x="972" y="616" on="1"/>
        <pt x="780" y="61" on="1"/>
        <pt x="778" y="54" on="0"/>
        <pt x="768" y="34" on="0"/>
        <pt x="725" y="1" on="0"/>
        <pt x="666" y="1" on="0"/>
        <pt x="623" y="34" on="0"/>
        <pt x="616" y="50" on="1"/>
        <pt x="499" y="395" on="1"/>
        <pt x="388" y="67" on="0"/>
        <pt x="384" y="55" on="0"/>
        <pt x="370" y="33" on="0"/>
        <pt x="361" y="24" on="1"/>
        <pt x="338" y="1" on="0"/>
        <pt x="274" y="1" on="0"/>
        <pt x="233" y="31" on="0"/>
        <pt x="226" y="46" on="1"/>
        <pt x="219" y="61" on="1"/>
        <pt x="26" y="616" on="1"/>
        <pt x="15" y="649" on="0"/>
        <pt x="15" y="665" on="1"/>
        <pt x="15" y="705" on="0"/>
        <pt x="82" y="728" on="1"/>
        <pt x="111" y="738" on="0"/>
        <pt x="158" y="738" on="0"/>
        <pt x="183" y="706" on="0"/>
        <pt x="193" y="673" on="1"/>
        <pt x="303" y="339" on="1"/>
        <pt x="412" y="668" on="1"/>
        <pt x="426" y="710" on="0"/>
        <pt x="463" y="726" on="1"/>
        <pt x="479" y="733" on="0"/>
        <pt x="530" y="733" on="0"/>
        <pt x="574" y="700" on="0"/>
        <pt x="580" y="684" on="1"/>
        <pt x="695" y="337" on="1"/>
        <pt x="805" y="673" on="1"/>
        <pt x="813" y="696" on="0"/>
        <pt x="823" y="718" on="0"/>
        <pt x="850" y="739" on="0"/>
        <pt x="890" y="739" on="0"/>
      </contour>
    </TTGlyph>
    <TTGlyph name="X" xMin="15" yMin="-10" xMax="726" yMax="752">
      <contour>
        <pt x="491" y="371" on="1"/>
        <pt x="692" y="150" on="1"/>
        <pt x="726" y="112" on="0"/>
        <pt x="726" y="60" on="0"/>
        <pt x="649" y="-10" on="0"/>
        <pt x="596" y="-10" on="0"/>
        <pt x="561" y="30" on="1"/>
        <pt x="371" y="248" on="1"/>
        <pt x="181" y="30" on="1"/>
        <pt x="145" y="-10" on="0"/>
        <pt x="94" y="-10" on="0"/>
        <pt x="15" y="61" on="0"/>
        <pt x="15" y="111" on="0"/>
        <pt x="50" y="150" on="1"/>
        <pt x="251" y="371" on="1"/>
        <pt x="50" y="592" on="1"/>
        <pt x="15" y="629" on="0"/>
        <pt x="15" y="681" on="0"/>
        <pt x="93" y="752" on="0"/>
        <pt x="146" y="752" on="0"/>
        <pt x="181" y="712" on="1"/>
        <pt x="371" y="494" on="1"/>
        <pt x="561" y="712" on="1"/>
        <pt x="597" y="752" on="0"/>
        <pt x="648" y="752" on="0"/>
        <pt x="726" y="682" on="0"/>
        <pt x="726" y="628" on="0"/>
        <pt x="692" y="592" on="1"/>
      </contour>
    </TTGlyph>
    <TTGlyph name="Y" xMin="15" yMin="-2" xMax="671" yMax="744">
      <contour>
        <pt x="622" y="719" on="1"/>
        <pt x="671" y="685" on="0"/>
        <pt x="671" y="653" on="1"/>
        <pt x="671" y="634" on="0"/>
        <pt x="648" y="600" on="1"/>
        <pt x="432" y="277" on="1"/>
        <pt x="432" y="86" on="1"/>
        <pt x="432" y="63" on="0"/>
        <pt x="429" y="40" on="0"/>
        <pt x="413" y="10" on="0"/>
        <pt x="375" y="-2" on="0"/>
        <pt x="311" y="-2" on="0"/>
        <pt x="273" y="10" on="0"/>
        <pt x="257" y="41" on="0"/>
        <pt x="254" y="64" on="0"/>
        <pt x="254" y="88" on="1"/>
        <pt x="254" y="277" on="1"/>
        <pt x="38" y="600" on="1"/>
        <pt x="15" y="634" on="0"/>
        <pt x="15" y="653" on="1"/>
        <pt x="15" y="685" on="0"/>
        <pt x="103" y="744" on="0"/>
        <pt x="141" y="744" on="0"/>
        <pt x="152" y="736" on="1"/>
        <pt x="169" y="725" on="0"/>
        <pt x="188" y="695" on="1"/>
        <pt x="343" y="447" on="1"/>
        <pt x="498" y="695" on="1"/>
        <pt x="517" y="725" on="0"/>
        <pt x="545" y="744" on="0"/>
        <pt x="582" y="744" on="0"/>
      </contour>
    </TTGlyph>
    <TTGlyph name="Yacute" xMin="15" yMin="-2" xMax="671" yMax="974">
      <contour>
        <pt x="622" y="719" on="1"/>
        <pt x="671" y="685" on="0"/>
        <pt x="671" y="653" on="1"/>
        <pt x="671" y="634" on="0"/>
        <pt x="648" y="600" on="1"/>
        <pt x="432" y="277" on="1"/>
        <pt x="432" y="86" on="1"/>
        <pt x="432" y="63" on="0"/>
        <pt x="429" y="40" on="0"/>
        <pt x="413" y="10" on="0"/>
        <pt x="375" y="-2" on="0"/>
        <pt x="311" y="-2" on="0"/>
        <pt x="273" y="10" on="0"/>
        <pt x="257" y="41" on="0"/>
        <pt x="254" y="64" on="0"/>
        <pt x="254" y="88" on="1"/>
        <pt x="254" y="277" on="1"/>
        <pt x="38" y="600" on="1"/>
        <pt x="15" y="634" on="0"/>
        <pt x="15" y="653" on="1"/>
        <pt x="15" y="685" on="0"/>
        <pt x="103" y="744" on="0"/>
        <pt x="141" y="744" on="0"/>
        <pt x="152" y="736" on="1"/>
        <pt x="169" y="725" on="0"/>
        <pt x="188" y="695" on="1"/>
        <pt x="343" y="447" on="1"/>
        <pt x="498" y="695" on="1"/>
        <pt x="517" y="725" on="0"/>
        <pt x="545" y="744" on="0"/>
        <pt x="582" y="744" on="0"/>
      </contour>
      <contour>
        <pt x="302" y="776" on="1"/>
        <pt x="288" y="769" on="0"/>
        <pt x="272" y="769" on="1"/>
        <pt x="242" y="769" on="0"/>
        <pt x="223" y="828" on="1"/>
        <pt x="215" y="852" on="0"/>
        <pt x="215" y="886" on="0"/>
        <pt x="222" y="895" on="1"/>
        <pt x="231" y="908" on="0"/>
        <pt x="258" y="916" on="1"/>
        <pt x="423" y="967" on="1"/>
        <pt x="449" y="974" on="0"/>
        <pt x="453" y="974" on="1"/>
        <pt x="483" y="974" on="0"/>
        <pt x="501" y="915" on="1"/>
        <pt x="509" y="891" on="0"/>
        <pt x="509" y="858" on="0"/>
        <pt x="502" y="849" on="1"/>
        <pt x="493" y="836" on="0"/>
        <pt x="466" y="828" on="1"/>
      </contour>
    </TTGlyph>
    <TTGlyph name="Ydieresis" xMin="15" yMin="-2" xMax="671" yMax="973">
      <contour>
        <pt x="622" y="719" on="1"/>
        <pt x="671" y="685" on="0"/>
        <pt x="671" y="653" on="1"/>
        <pt x="671" y="634" on="0"/>
        <pt x="648" y="600" on="1"/>
        <pt x="432" y="277" on="1"/>
        <pt x="432" y="86" on="1"/>
        <pt x="432" y="63" on="0"/>
        <pt x="429" y="40" on="0"/>
        <pt x="413" y="10" on="0"/>
        <pt x="375" y="-2" on="0"/>
        <pt x="311" y="-2" on="0"/>
        <pt x="273" y="10" on="0"/>
        <pt x="257" y="41" on="0"/>
        <pt x="254" y="64" on="0"/>
        <pt x="254" y="88" on="1"/>
        <pt x="254" y="277" on="1"/>
        <pt x="38" y="600" on="1"/>
        <pt x="15" y="634" on="0"/>
        <pt x="15" y="653" on="1"/>
        <pt x="15" y="685" on="0"/>
        <pt x="103" y="744" on="0"/>
        <pt x="141" y="744" on="0"/>
        <pt x="152" y="736" on="1"/>
        <pt x="169" y="725" on="0"/>
        <pt x="188" y="695" on="1"/>
        <pt x="343" y="447" on="1"/>
        <pt x="498" y="695" on="1"/>
        <pt x="517" y="725" on="0"/>
        <pt x="545" y="744" on="0"/>
        <pt x="582" y="744" on="0"/>
      </contour>
      <contour>
        <pt x="239" y="795" on="0"/>
        <pt x="175" y="795" on="0"/>
        <pt x="137" y="807" on="0"/>
        <pt x="121" y="838" on="0"/>
        <pt x="118" y="861" on="0"/>
        <pt x="119" y="910" on="0"/>
        <pt x="122" y="931" on="0"/>
        <pt x="137" y="961" on="0"/>
        <pt x="176" y="973" on="0"/>
        <pt x="240" y="973" on="0"/>
        <pt x="278" y="961" on="0"/>
        <pt x="294" y="930" on="0"/>
        <pt x="297" y="907" on="0"/>
        <pt x="297" y="860" on="0"/>
        <pt x="294" y="837" on="0"/>
        <pt x="278" y="807" on="0"/>
      </contour>
      <contour>
        <pt x="509" y="795" on="0"/>
        <pt x="445" y="795" on="0"/>
        <pt x="407" y="807" on="0"/>
        <pt x="391" y="838" on="0"/>
        <pt x="388" y="861" on="0"/>
        <pt x="388" y="909" on="0"/>
        <pt x="391" y="932" on="0"/>
        <pt x="407" y="961" on="0"/>
        <pt x="446" y="973" on="0"/>
        <pt x="510" y="973" on="0"/>
        <pt x="548" y="961" on="0"/>
        <pt x="564" y="930" on="0"/>
        <pt x="567" y="907" on="0"/>
        <pt x="567" y="860" on="0"/>
        <pt x="564" y="837" on="0"/>
        <pt x="548" y="807" on="0"/>
      </contour>
    </TTGlyph>
    <TTGlyph name="Z" xMin="25" yMin="-2" xMax="618" yMax="734">
      <contour>
        <pt x="531" y="171" on="1"/>
        <pt x="570" y="171" on="0"/>
        <pt x="605" y="152" on="0"/>
        <pt x="618" y="116" on="0"/>
        <pt x="618" y="60" on="0"/>
        <pt x="608" y="26" on="0"/>
        <pt x="594" y="8" on="0"/>
        <pt x="580" y="4" on="1"/>
        <pt x="564" y="-2" on="0"/>
        <pt x="529" y="-2" on="1"/>
        <pt x="113" y="-2" on="1"/>
        <pt x="90" y="-2" on="0"/>
        <pt x="69" y="10" on="1"/>
        <pt x="25" y="35" on="0"/>
        <pt x="25" y="89" on="1"/>
        <pt x="25" y="115" on="0"/>
        <pt x="37" y="131" on="1"/>
        <pt x="347" y="560" on="1"/>
        <pt x="117" y="560" on="1"/>
        <pt x="93" y="560" on="0"/>
        <pt x="70" y="563" on="0"/>
        <pt x="54" y="570" on="1"/>
        <pt x="25" y="584" on="0"/>
        <pt x="25" y="645" on="1"/>
        <pt x="25" y="709" on="0"/>
        <pt x="52" y="723" on="1"/>
        <pt x="67" y="731" on="0"/>
        <pt x="90" y="734" on="0"/>
        <pt x="114" y="734" on="1"/>
        <pt x="516" y="734" on="1"/>
        <pt x="539" y="734" on="0"/>
        <pt x="581" y="710" on="0"/>
        <pt x="604" y="670" on="0"/>
        <pt x="604" y="616" on="0"/>
        <pt x="592" y="600" on="1"/>
        <pt x="282" y="171" on="1"/>
      </contour>
    </TTGlyph>
    <TTGlyph name="Zcaron" xMin="25" yMin="-2" xMax="618" yMax="973">
      <contour>
        <pt x="531" y="171" on="1"/>
        <pt x="570" y="171" on="0"/>
        <pt x="605" y="152" on="0"/>
        <pt x="618" y="116" on="0"/>
        <pt x="618" y="60" on="0"/>
        <pt x="608" y="26" on="0"/>
        <pt x="594" y="8" on="0"/>
        <pt x="580" y="4" on="1"/>
        <pt x="564" y="-2" on="0"/>
        <pt x="529" y="-2" on="1"/>
        <pt x="113" y="-2" on="1"/>
        <pt x="90" y="-2" on="0"/>
        <pt x="69" y="10" on="1"/>
        <pt x="25" y="35" on="0"/>
        <pt x="25" y="89" on="1"/>
        <pt x="25" y="115" on="0"/>
        <pt x="37" y="131" on="1"/>
        <pt x="347" y="560" on="1"/>
        <pt x="117" y="560" on="1"/>
        <pt x="93" y="560" on="0"/>
        <pt x="70" y="563" on="0"/>
        <pt x="54" y="570" on="1"/>
        <pt x="25" y="584" on="0"/>
        <pt x="25" y="645" on="1"/>
        <pt x="25" y="709" on="0"/>
        <pt x="52" y="723" on="1"/>
        <pt x="67" y="731" on="0"/>
        <pt x="90" y="734" on="0"/>
        <pt x="114" y="734" on="1"/>
        <pt x="516" y="734" on="1"/>
        <pt x="539" y="734" on="0"/>
        <pt x="581" y="710" on="0"/>
        <pt x="604" y="670" on="0"/>
        <pt x="604" y="616" on="0"/>
        <pt x="592" y="600" on="1"/>
        <pt x="282" y="171" on="1"/>
      </contour>
      <contour>
        <pt x="320" y="783" on="1"/>
        <pt x="297" y="788" on="1"/>
        <pt x="204" y="819" on="0"/>
        <pt x="158" y="834" on="1"/>
        <pt x="121" y="845" on="0"/>
        <pt x="121" y="879" on="1"/>
        <pt x="121" y="896" on="0"/>
        <pt x="131" y="921" on="1"/>
        <pt x="155" y="970" on="0"/>
        <pt x="182" y="972" on="1"/>
        <pt x="190" y="973" on="0"/>
        <pt x="194" y="973" on="1"/>
        <pt x="205" y="973" on="0"/>
        <pt x="223" y="967" on="1"/>
        <pt x="320" y="925" on="1"/>
        <pt x="406" y="963" on="1"/>
        <pt x="432" y="972" on="0"/>
        <pt x="458" y="972" on="0"/>
        <pt x="465" y="969" on="1"/>
        <pt x="491" y="958" on="0"/>
        <pt x="521" y="897" on="0"/>
        <pt x="521" y="878" on="1"/>
        <pt x="521" y="846" on="0"/>
        <pt x="482" y="834" on="1"/>
        <pt x="343" y="788" on="1"/>
      </contour>
    </TTGlyph>
    <TTGlyph name="a" xMin="25" yMin="2" xMax="556" yMax="527">
      <contour>
        <pt x="382" y="471" on="1"/>
        <pt x="388" y="527" on="0"/>
        <pt x="461" y="527" on="1"/>
        <pt x="500" y="527" on="0"/>
        <pt x="538" y="515" on="0"/>
        <pt x="553" y="485" on="0"/>
        <pt x="556" y="462" on="0"/>
        <pt x="556" y="439" on="1"/>
        <pt x="556" y="89" on="1"/>
        <pt x="556" y="66" on="0"/>
        <pt x="553" y="43" on="0"/>
        <pt x="546" y="28" on="1"/>
        <pt x="532" y="2" on="0"/>
        <pt x="423" y="2" on="0"/>
        <pt x="386" y="29" on="0"/>
        <pt x="383" y="55" on="1"/>
        <pt x="346" y="2" on="0"/>
        <pt x="173" y="2" on="0"/>
        <pt x="25" y="160" on="0"/>
        <pt x="25" y="369" on="0"/>
        <pt x="174" y="526" on="0"/>
        <pt x="263" y="526" on="1"/>
        <pt x="297" y="526" on="0"/>
        <pt x="353" y="502" on="0"/>
        <pt x="375" y="481" on="0"/>
      </contour>
      <contour>
        <pt x="200" y="230" on="0"/>
        <pt x="252" y="177" on="0"/>
        <pt x="326" y="177" on="0"/>
        <pt x="375" y="231" on="0"/>
        <pt x="375" y="296" on="0"/>
        <pt x="328" y="352" on="0"/>
        <pt x="249" y="352" on="0"/>
        <pt x="200" y="296" on="0"/>
      </contour>
    </TTGlyph>
    <TTGlyph name="aacute" xMin="25" yMin="2" xMax="556" yMax="774">
      <contour>
        <pt x="382" y="471" on="1"/>
        <pt x="388" y="527" on="0"/>
        <pt x="461" y="527" on="1"/>
        <pt x="500" y="527" on="0"/>
        <pt x="538" y="515" on="0"/>
        <pt x="553" y="485" on="0"/>
        <pt x="556" y="462" on="0"/>
        <pt x="556" y="439" on="1"/>
        <pt x="556" y="89" on="1"/>
        <pt x="556" y="66" on="0"/>
        <pt x="553" y="43" on="0"/>
        <pt x="546" y="28" on="1"/>
        <pt x="532" y="2" on="0"/>
        <pt x="423" y="2" on="0"/>
        <pt x="386" y="29" on="0"/>
        <pt x="383" y="55" on="1"/>
        <pt x="346" y="2" on="0"/>
        <pt x="173" y="2" on="0"/>
        <pt x="25" y="160" on="0"/>
        <pt x="25" y="369" on="0"/>
        <pt x="174" y="526" on="0"/>
        <pt x="263" y="526" on="1"/>
        <pt x="297" y="526" on="0"/>
        <pt x="353" y="502" on="0"/>
        <pt x="375" y="481" on="0"/>
      </contour>
      <contour>
        <pt x="265" y="576" on="1"/>
        <pt x="235" y="569" on="1"/>
        <pt x="205" y="569" on="0"/>
        <pt x="186" y="628" on="1"/>
        <pt x="178" y="652" on="0"/>
        <pt x="178" y="686" on="0"/>
        <pt x="184" y="695" on="1"/>
        <pt x="194" y="708" on="0"/>
        <pt x="221" y="716" on="1"/>
        <pt x="386" y="767" on="1"/>
        <pt x="412" y="774" on="0"/>
        <pt x="416" y="774" on="1"/>
        <pt x="446" y="774" on="0"/>
        <pt x="464" y="715" on="1"/>
        <pt x="472" y="691" on="0"/>
        <pt x="472" y="658" on="0"/>
        <pt x="466" y="649" on="1"/>
        <pt x="456" y="636" on="0"/>
        <pt x="429" y="628" on="1"/>
      </contour>
      <contour>
        <pt x="200" y="230" on="0"/>
        <pt x="252" y="177" on="0"/>
        <pt x="326" y="177" on="0"/>
        <pt x="375" y="231" on="0"/>
        <pt x="375" y="296" on="0"/>
        <pt x="328" y="352" on="0"/>
        <pt x="249" y="352" on="0"/>
        <pt x="200" y="296" on="0"/>
      </contour>
    </TTGlyph>
    <TTGlyph name="acircumflex" xMin="25" yMin="2" xMax="556" yMax="774">
      <contour>
        <pt x="382" y="471" on="1"/>
        <pt x="388" y="527" on="0"/>
        <pt x="461" y="527" on="1"/>
        <pt x="500" y="527" on="0"/>
        <pt x="538" y="515" on="0"/>
        <pt x="553" y="485" on="0"/>
        <pt x="556" y="462" on="0"/>
        <pt x="556" y="439" on="1"/>
        <pt x="556" y="89" on="1"/>
        <pt x="556" y="66" on="0"/>
        <pt x="553" y="43" on="0"/>
        <pt x="546" y="28" on="1"/>
        <pt x="532" y="2" on="0"/>
        <pt x="423" y="2" on="0"/>
        <pt x="386" y="29" on="0"/>
        <pt x="383" y="55" on="1"/>
        <pt x="346" y="2" on="0"/>
        <pt x="173" y="2" on="0"/>
        <pt x="25" y="160" on="0"/>
        <pt x="25" y="369" on="0"/>
        <pt x="174" y="526" on="0"/>
        <pt x="263" y="526" on="1"/>
        <pt x="297" y="526" on="0"/>
        <pt x="353" y="502" on="0"/>
        <pt x="375" y="481" on="0"/>
      </contour>
      <contour>
        <pt x="200" y="230" on="0"/>
        <pt x="252" y="177" on="0"/>
        <pt x="326" y="177" on="0"/>
        <pt x="375" y="231" on="0"/>
        <pt x="375" y="296" on="0"/>
        <pt x="328" y="352" on="0"/>
        <pt x="249" y="352" on="0"/>
        <pt x="200" y="296" on="0"/>
      </contour>
      <contour>
        <pt x="327" y="774" on="1"/>
        <pt x="350" y="769" on="1"/>
        <pt x="443" y="739" on="0"/>
        <pt x="526" y="711" on="0"/>
        <pt x="526" y="676" on="1"/>
        <pt x="526" y="657" on="0"/>
        <pt x="515" y="636" on="1"/>
        <pt x="488" y="583" on="0"/>
        <pt x="455" y="583" on="1"/>
        <pt x="446" y="583" on="0"/>
        <pt x="423" y="590" on="1"/>
        <pt x="327" y="632" on="1"/>
        <pt x="234" y="592" on="1"/>
        <pt x="220" y="585" on="0"/>
        <pt x="200" y="585" on="1"/>
        <pt x="162" y="585" on="0"/>
        <pt x="138" y="636" on="1"/>
        <pt x="126" y="662" on="0"/>
        <pt x="126" y="678" on="1"/>
        <pt x="126" y="710" on="0"/>
        <pt x="164" y="723" on="1"/>
        <pt x="303" y="769" on="1"/>
      </contour>
    </TTGlyph>
    <TTGlyph name="acute" xMin="151" yMin="569" xMax="445" yMax="774">
      <contour>
        <pt x="238" y="576" on="1"/>
        <pt x="224" y="569" on="0"/>
        <pt x="208" y="569" on="1"/>
        <pt x="178" y="569" on="0"/>
        <pt x="159" y="628" on="1"/>
        <pt x="151" y="652" on="0"/>
        <pt x="151" y="686" on="0"/>
        <pt x="158" y="695" on="1"/>
        <pt x="167" y="708" on="0"/>
        <pt x="194" y="716" on="1"/>
        <pt x="359" y="767" on="1"/>
        <pt x="385" y="774" on="0"/>
        <pt x="389" y="774" on="1"/>
        <pt x="419" y="774" on="0"/>
        <pt x="437" y="715" on="1"/>
        <pt x="445" y="691" on="0"/>
        <pt x="445" y="658" on="0"/>
        <pt x="438" y="649" on="1"/>
        <pt x="429" y="636" on="0"/>
        <pt x="402" y="628" on="1"/>
      </contour>
    </TTGlyph>
    <TTGlyph name="adieresis" xMin="25" yMin="2" xMax="556" yMax="773">
      <contour>
        <pt x="382" y="471" on="1"/>
        <pt x="388" y="527" on="0"/>
        <pt x="461" y="527" on="1"/>
        <pt x="500" y="527" on="0"/>
        <pt x="538" y="515" on="0"/>
        <pt x="553" y="485" on="0"/>
        <pt x="556" y="462" on="0"/>
        <pt x="556" y="439" on="1"/>
        <pt x="556" y="89" on="1"/>
        <pt x="556" y="66" on="0"/>
        <pt x="553" y="43" on="0"/>
        <pt x="546" y="28" on="1"/>
        <pt x="532" y="2" on="0"/>
        <pt x="423" y="2" on="0"/>
        <pt x="386" y="29" on="0"/>
        <pt x="383" y="55" on="1"/>
        <pt x="346" y="2" on="0"/>
        <pt x="173" y="2" on="0"/>
        <pt x="25" y="160" on="0"/>
        <pt x="25" y="369" on="0"/>
        <pt x="174" y="526" on="0"/>
        <pt x="263" y="526" on="1"/>
        <pt x="297" y="526" on="0"/>
        <pt x="353" y="502" on="0"/>
        <pt x="375" y="481" on="0"/>
      </contour>
      <contour>
        <pt x="200" y="230" on="0"/>
        <pt x="252" y="177" on="0"/>
        <pt x="326" y="177" on="0"/>
        <pt x="375" y="231" on="0"/>
        <pt x="375" y="296" on="0"/>
        <pt x="328" y="352" on="0"/>
        <pt x="249" y="352" on="0"/>
        <pt x="200" y="296" on="0"/>
      </contour>
      <contour>
        <pt x="222" y="595" on="0"/>
        <pt x="158" y="595" on="0"/>
        <pt x="120" y="607" on="0"/>
        <pt x="104" y="638" on="0"/>
        <pt x="101" y="661" on="0"/>
        <pt x="102" y="710" on="0"/>
        <pt x="105" y="731" on="0"/>
        <pt x="120" y="761" on="0"/>
        <pt x="159" y="773" on="0"/>
        <pt x="223" y="773" on="0"/>
        <pt x="261" y="761" on="0"/>
        <pt x="277" y="730" on="0"/>
        <pt x="280" y="707" on="0"/>
        <pt x="280" y="660" on="0"/>
        <pt x="277" y="637" on="0"/>
        <pt x="261" y="607" on="0"/>
      </contour>
      <contour>
        <pt x="492" y="595" on="0"/>
        <pt x="428" y="595" on="0"/>
        <pt x="390" y="607" on="0"/>
        <pt x="374" y="638" on="0"/>
        <pt x="371" y="661" on="0"/>
        <pt x="371" y="709" on="0"/>
        <pt x="374" y="732" on="0"/>
        <pt x="390" y="761" on="0"/>
        <pt x="429" y="773" on="0"/>
        <pt x="493" y="773" on="0"/>
        <pt x="531" y="761" on="0"/>
        <pt x="547" y="730" on="0"/>
        <pt x="550" y="707" on="0"/>
        <pt x="550" y="660" on="0"/>
        <pt x="547" y="637" on="0"/>
        <pt x="531" y="607" on="0"/>
      </contour>
    </TTGlyph>
    <TTGlyph name="ae" xMin="25" yMin="-9" xMax="885" yMax="535">
      <contour>
        <pt x="752" y="159" on="1"/>
        <pt x="778" y="169" on="0"/>
        <pt x="791" y="169" on="1"/>
        <pt x="824" y="169" on="0"/>
        <pt x="846" y="126" on="1"/>
        <pt x="859" y="100" on="0"/>
        <pt x="859" y="62" on="0"/>
        <pt x="837" y="35" on="0"/>
        <pt x="817" y="26" on="0"/>
        <pt x="800" y="20" on="0"/>
        <pt x="797" y="19" on="0"/>
        <pt x="796" y="18" on="1"/>
        <pt x="727" y="-7" on="0"/>
        <pt x="649" y="-7" on="1"/>
        <pt x="512" y="-7" on="0"/>
        <pt x="436" y="78" on="1"/>
        <pt x="434" y="74" on="1"/>
        <pt x="395" y="34" on="0"/>
        <pt x="298" y="-9" on="0"/>
        <pt x="207" y="-9" on="1"/>
        <pt x="25" y="-9" on="0"/>
        <pt x="25" y="149" on="1"/>
        <pt x="25" y="214" on="0"/>
        <pt x="141" y="280" on="0"/>
        <pt x="315" y="280" on="0"/>
        <pt x="361" y="249" on="1"/>
        <pt x="361" y="255" on="1"/>
        <pt x="351" y="373" on="0"/>
        <pt x="277" y="373" on="1"/>
        <pt x="233" y="373" on="0"/>
        <pt x="167" y="303" on="0"/>
        <pt x="106" y="303" on="0"/>
        <pt x="39" y="383" on="0"/>
        <pt x="39" y="435" on="0"/>
        <pt x="103" y="494" on="0"/>
        <pt x="209" y="535" on="0"/>
        <pt x="274" y="535" on="1"/>
        <pt x="378" y="535" on="0"/>
        <pt x="453" y="463" on="1"/>
        <pt x="530" y="532" on="0"/>
        <pt x="649" y="532" on="1"/>
        <pt x="707" y="532" on="0"/>
        <pt x="802" y="493" on="0"/>
        <pt x="829" y="462" on="1"/>
        <pt x="885" y="399" on="0"/>
        <pt x="885" y="266" on="0"/>
        <pt x="824" y="209" on="0"/>
        <pt x="787" y="209" on="1"/>
        <pt x="554" y="209" on="1"/>
        <pt x="554" y="181" on="0"/>
        <pt x="619" y="143" on="0"/>
        <pt x="651" y="143" on="1"/>
        <pt x="710" y="143" on="0"/>
        <pt x="742" y="155" on="1"/>
      </contour>
      <contour>
        <pt x="245" y="109" on="1"/>
        <pt x="283" y="109" on="0"/>
        <pt x="356" y="138" on="0"/>
        <pt x="375" y="162" on="1"/>
        <pt x="372" y="171" on="1"/>
        <pt x="326" y="189" on="0"/>
        <pt x="178" y="189" on="0"/>
        <pt x="178" y="155" on="1"/>
        <pt x="178" y="109" on="0"/>
      </contour>
      <contour>
        <pt x="714" y="352" on="0"/>
        <pt x="679" y="380" on="0"/>
        <pt x="616" y="380" on="0"/>
        <pt x="553" y="328" on="0"/>
        <pt x="553" y="298" on="1"/>
        <pt x="679" y="298" on="1"/>
        <pt x="714" y="298" on="0"/>
        <pt x="714" y="329" on="1"/>
      </contour>
    </TTGlyph>
    <TTGlyph name="agrave" xMin="25" yMin="2" xMax="556" yMax="774">
      <contour>
        <pt x="382" y="471" on="1"/>
        <pt x="388" y="527" on="0"/>
        <pt x="461" y="527" on="1"/>
        <pt x="500" y="527" on="0"/>
        <pt x="538" y="515" on="0"/>
        <pt x="553" y="485" on="0"/>
        <pt x="556" y="462" on="0"/>
        <pt x="556" y="439" on="1"/>
        <pt x="556" y="89" on="1"/>
        <pt x="556" y="66" on="0"/>
        <pt x="553" y="43" on="0"/>
        <pt x="546" y="28" on="1"/>
        <pt x="532" y="2" on="0"/>
        <pt x="423" y="2" on="0"/>
        <pt x="386" y="29" on="0"/>
        <pt x="383" y="55" on="1"/>
        <pt x="346" y="2" on="0"/>
        <pt x="173" y="2" on="0"/>
        <pt x="25" y="160" on="0"/>
        <pt x="25" y="369" on="0"/>
        <pt x="174" y="526" on="0"/>
        <pt x="263" y="526" on="1"/>
        <pt x="297" y="526" on="0"/>
        <pt x="353" y="502" on="0"/>
        <pt x="375" y="481" on="0"/>
      </contour>
      <contour>
        <pt x="402" y="569" on="1"/>
        <pt x="388" y="569" on="0"/>
        <pt x="372" y="576" on="1"/>
        <pt x="207" y="628" on="1"/>
        <pt x="180" y="636" on="0"/>
        <pt x="164" y="658" on="0"/>
        <pt x="164" y="691" on="0"/>
        <pt x="172" y="715" on="1"/>
        <pt x="191" y="774" on="0"/>
        <pt x="221" y="774" on="1"/>
        <pt x="225" y="774" on="0"/>
        <pt x="251" y="767" on="1"/>
        <pt x="416" y="716" on="1"/>
        <pt x="430" y="711" on="0"/>
        <pt x="438" y="708" on="1"/>
        <pt x="459" y="697" on="0"/>
        <pt x="459" y="652" on="0"/>
        <pt x="451" y="628" on="1"/>
        <pt x="432" y="569" on="0"/>
      </contour>
      <contour>
        <pt x="200" y="230" on="0"/>
        <pt x="252" y="177" on="0"/>
        <pt x="326" y="177" on="0"/>
        <pt x="375" y="231" on="0"/>
        <pt x="375" y="296" on="0"/>
        <pt x="328" y="352" on="0"/>
        <pt x="249" y="352" on="0"/>
        <pt x="200" y="296" on="0"/>
      </contour>
    </TTGlyph>
    <TTGlyph name="ampersand" xMin="25" yMin="-8" xMax="725" yMax="769">
      <contour>
        <pt x="646" y="-1" on="1"/>
        <pt x="559" y="-1" on="0"/>
        <pt x="474" y="44" on="1"/>
        <pt x="379" y="-8" on="0"/>
        <pt x="282" y="-8" on="1"/>
        <pt x="25" y="-8" on="0"/>
        <pt x="25" y="206" on="1"/>
        <pt x="25" y="317" on="0"/>
        <pt x="140" y="412" on="1"/>
        <pt x="100" y="501" on="0"/>
        <pt x="100" y="573" on="1"/>
        <pt x="100" y="673" on="0"/>
        <pt x="220" y="769" on="0"/>
        <pt x="422" y="769" on="0"/>
        <pt x="526" y="673" on="0"/>
        <pt x="526" y="590" on="1"/>
        <pt x="526" y="520" on="0"/>
        <pt x="469" y="464" on="1"/>
        <pt x="427" y="422" on="0"/>
        <pt x="351" y="371" on="1"/>
        <pt x="410" y="293" on="0"/>
        <pt x="479" y="239" on="1"/>
        <pt x="507" y="282" on="0"/>
        <pt x="518" y="327" on="1"/>
        <pt x="528" y="371" on="0"/>
        <pt x="608" y="371" on="1"/>
        <pt x="642" y="371" on="0"/>
        <pt x="677" y="353" on="0"/>
        <pt x="682" y="334" on="0"/>
        <pt x="681" y="319" on="1"/>
        <pt x="677" y="243" on="0"/>
        <pt x="619" y="168" on="1"/>
        <pt x="634" y="165" on="0"/>
        <pt x="647" y="165" on="1"/>
        <pt x="725" y="165" on="0"/>
        <pt x="725" y="86" on="1"/>
        <pt x="725" y="31" on="0"/>
        <pt x="689" y="-1" on="0"/>
      </contour>
      <contour>
        <pt x="258" y="585" on="1"/>
        <pt x="258" y="549" on="0"/>
        <pt x="275" y="504" on="1"/>
        <pt x="322" y="534" on="0"/>
        <pt x="369" y="574" on="0"/>
        <pt x="369" y="592" on="1"/>
        <pt x="369" y="636" on="0"/>
        <pt x="320" y="636" on="1"/>
        <pt x="258" y="636" on="0"/>
      </contour>
      <contour>
        <pt x="289" y="140" on="1"/>
        <pt x="314" y="140" on="0"/>
        <pt x="334" y="144" on="1"/>
        <pt x="276" y="196" on="0"/>
        <pt x="224" y="268" on="1"/>
        <pt x="201" y="239" on="0"/>
        <pt x="201" y="208" on="1"/>
        <pt x="201" y="140" on="0"/>
      </contour>
    </TTGlyph>
    <TTGlyph name="aring" xMin="25" yMin="2" xMax="556" yMax="751">
      <contour>
        <pt x="226" y="693" on="0"/>
        <pt x="289" y="751" on="0"/>
        <pt x="369" y="751" on="0"/>
        <pt x="430" y="694" on="0"/>
        <pt x="430" y="604" on="0"/>
        <pt x="367" y="548" on="0"/>
        <pt x="290" y="548" on="0"/>
        <pt x="226" y="605" on="0"/>
      </contour>
      <contour>
        <pt x="311" y="602" on="0"/>
        <pt x="345" y="602" on="0"/>
        <pt x="376" y="626" on="0"/>
        <pt x="376" y="674" on="0"/>
        <pt x="346" y="698" on="0"/>
        <pt x="311" y="698" on="0"/>
        <pt x="280" y="673" on="0"/>
        <pt x="280" y="626" on="0"/>
      </contour>
      <contour>
        <pt x="382" y="471" on="1"/>
        <pt x="388" y="527" on="0"/>
        <pt x="461" y="527" on="1"/>
        <pt x="500" y="527" on="0"/>
        <pt x="538" y="515" on="0"/>
        <pt x="553" y="485" on="0"/>
        <pt x="556" y="462" on="0"/>
        <pt x="556" y="439" on="1"/>
        <pt x="556" y="89" on="1"/>
        <pt x="556" y="66" on="0"/>
        <pt x="553" y="43" on="0"/>
        <pt x="546" y="28" on="1"/>
        <pt x="532" y="2" on="0"/>
        <pt x="423" y="2" on="0"/>
        <pt x="386" y="29" on="0"/>
        <pt x="383" y="55" on="1"/>
        <pt x="346" y="2" on="0"/>
        <pt x="173" y="2" on="0"/>
        <pt x="25" y="160" on="0"/>
        <pt x="25" y="369" on="0"/>
        <pt x="174" y="526" on="0"/>
        <pt x="263" y="526" on="1"/>
        <pt x="297" y="526" on="0"/>
        <pt x="353" y="502" on="0"/>
        <pt x="375" y="481" on="0"/>
      </contour>
      <contour>
        <pt x="200" y="230" on="0"/>
        <pt x="252" y="177" on="0"/>
        <pt x="326" y="177" on="0"/>
        <pt x="375" y="231" on="0"/>
        <pt x="375" y="296" on="0"/>
        <pt x="328" y="352" on="0"/>
        <pt x="249" y="352" on="0"/>
        <pt x="200" y="296" on="0"/>
      </contour>
    </TTGlyph>
    <TTGlyph name="asciicircum" xMin="41" yMin="248" xMax="485" yMax="544">
      <contour>
        <pt x="215" y="519" on="1"/>
        <pt x="238" y="544" on="0"/>
        <pt x="257" y="544" on="1"/>
        <pt x="263" y="544" on="0"/>
        <pt x="268" y="544" on="1"/>
        <pt x="288" y="544" on="0"/>
        <pt x="312" y="519" on="1"/>
        <pt x="459" y="371" on="1"/>
        <pt x="475" y="356" on="0"/>
        <pt x="485" y="341" on="0"/>
        <pt x="485" y="326" on="0"/>
        <pt x="479" y="300" on="0"/>
        <pt x="433" y="254" on="0"/>
        <pt x="407" y="248" on="0"/>
        <pt x="399" y="248" on="1"/>
        <pt x="387" y="248" on="0"/>
        <pt x="362" y="273" on="1"/>
        <pt x="263" y="372" on="1"/>
        <pt x="165" y="273" on="1"/>
        <pt x="150" y="258" on="0"/>
        <pt x="136" y="248" on="0"/>
        <pt x="120" y="248" on="0"/>
        <pt x="93" y="254" on="0"/>
        <pt x="47" y="300" on="0"/>
        <pt x="41" y="326" on="0"/>
        <pt x="41" y="333" on="1"/>
        <pt x="41" y="347" on="0"/>
        <pt x="67" y="371" on="1"/>
      </contour>
    </TTGlyph>
    <TTGlyph name="asciitilde" xMin="49" yMin="158" xMax="573" yMax="378">
      <contour>
        <pt x="526" y="360" on="1"/>
        <pt x="573" y="328" on="0"/>
        <pt x="573" y="301" on="1"/>
        <pt x="573" y="286" on="0"/>
        <pt x="553" y="253" on="0"/>
        <pt x="545" y="240" on="0"/>
        <pt x="515" y="206" on="0"/>
        <pt x="479" y="180" on="0"/>
        <pt x="418" y="159" on="0"/>
        <pt x="345" y="159" on="0"/>
        <pt x="286" y="190" on="0"/>
        <pt x="247" y="222" on="0"/>
        <pt x="224" y="222" on="0"/>
        <pt x="216" y="218" on="1"/>
        <pt x="203" y="211" on="0"/>
        <pt x="203" y="206" on="1"/>
        <pt x="172" y="158" on="0"/>
        <pt x="119" y="158" on="0"/>
        <pt x="49" y="217" on="0"/>
        <pt x="49" y="236" on="1"/>
        <pt x="49" y="252" on="0"/>
        <pt x="78" y="299" on="0"/>
        <pt x="108" y="332" on="0"/>
        <pt x="126" y="344" on="1"/>
        <pt x="174" y="378" on="0"/>
        <pt x="240" y="378" on="1"/>
        <pt x="270" y="378" on="0"/>
        <pt x="321" y="359" on="0"/>
        <pt x="334" y="348" on="1"/>
        <pt x="368" y="317" on="0"/>
        <pt x="383" y="317" on="1"/>
        <pt x="408" y="317" on="0"/>
        <pt x="416" y="328" on="1"/>
        <pt x="419" y="332" on="1"/>
        <pt x="450" y="378" on="0"/>
        <pt x="500" y="378" on="0"/>
      </contour>
    </TTGlyph>
    <TTGlyph name="asterisk" xMin="15" yMin="284" xMax="488" yMax="744">
      <contour>
        <pt x="480" y="579" on="1"/>
        <pt x="488" y="552" on="0"/>
        <pt x="488" y="519" on="0"/>
        <pt x="468" y="493" on="0"/>
        <pt x="446" y="483" on="0"/>
        <pt x="424" y="475" on="1"/>
        <pt x="382" y="462" on="1"/>
        <pt x="415" y="416" on="1"/>
        <pt x="423" y="404" on="1"/>
        <pt x="436" y="382" on="0"/>
        <pt x="436" y="371" on="1"/>
        <pt x="436" y="342" on="0"/>
        <pt x="358" y="286" on="0"/>
        <pt x="324" y="286" on="0"/>
        <pt x="313" y="293" on="1"/>
        <pt x="298" y="303" on="0"/>
        <pt x="281" y="327" on="1"/>
        <pt x="252" y="367" on="1"/>
        <pt x="215" y="317" on="1"/>
        <pt x="193" y="284" on="0"/>
        <pt x="148" y="284" on="0"/>
        <pt x="67" y="342" on="0"/>
        <pt x="67" y="370" on="1"/>
        <pt x="67" y="387" on="0"/>
        <pt x="88" y="416" on="1"/>
        <pt x="121" y="462" on="1"/>
        <pt x="79" y="475" on="1"/>
        <pt x="43" y="482" on="0"/>
        <pt x="25" y="504" on="1"/>
        <pt x="15" y="517" on="0"/>
        <pt x="15" y="553" on="0"/>
        <pt x="22" y="575" on="1"/>
        <pt x="44" y="641" on="0"/>
        <pt x="80" y="641" on="1"/>
        <pt x="94" y="641" on="0"/>
        <pt x="120" y="632" on="0"/>
        <pt x="120" y="632" on="1"/>
        <pt x="171" y="616" on="1"/>
        <pt x="171" y="668" on="1"/>
        <pt x="171" y="702" on="0"/>
        <pt x="188" y="734" on="0"/>
        <pt x="223" y="744" on="0"/>
        <pt x="281" y="744" on="0"/>
        <pt x="316" y="733" on="0"/>
        <pt x="323" y="720" on="1"/>
        <pt x="333" y="701" on="0"/>
        <pt x="333" y="663" on="1"/>
        <pt x="333" y="616" on="1"/>
        <pt x="382" y="632" on="1"/>
        <pt x="414" y="642" on="0"/>
        <pt x="424" y="642" on="1"/>
        <pt x="459" y="642" on="0"/>
      </contour>
    </TTGlyph>
    <TTGlyph name="at" xMin="25" yMin="-130" xMax="883" yMax="668">
      <contour>
        <pt x="812" y="522" on="0"/>
        <pt x="883" y="365" on="0"/>
        <pt x="883" y="190" on="0"/>
        <pt x="835" y="69" on="0"/>
        <pt x="796" y="33" on="1"/>
        <pt x="717" y="-41" on="0"/>
        <pt x="622" y="-41" on="1"/>
        <pt x="556" y="-41" on="0"/>
        <pt x="468" y="39" on="0"/>
        <pt x="468" y="108" on="1"/>
        <pt x="468" y="116" on="0"/>
        <pt x="470" y="132" on="1"/>
        <pt x="437" y="96" on="0"/>
        <pt x="321" y="96" on="0"/>
        <pt x="230" y="195" on="0"/>
        <pt x="230" y="265" on="1"/>
        <pt x="230" y="354" on="0"/>
        <pt x="362" y="477" on="0"/>
        <pt x="485" y="477" on="0"/>
        <pt x="509" y="437" on="1"/>
        <pt x="514" y="457" on="0"/>
        <pt x="543" y="478" on="0"/>
        <pt x="610" y="478" on="0"/>
        <pt x="635" y="457" on="0"/>
        <pt x="635" y="430" on="0"/>
        <pt x="633" y="414" on="1"/>
        <pt x="599" y="158" on="1"/>
        <pt x="592" y="117" on="0"/>
        <pt x="592" y="93" on="0"/>
        <pt x="607" y="84" on="0"/>
        <pt x="639" y="84" on="0"/>
        <pt x="669" y="92" on="0"/>
        <pt x="708" y="117" on="0"/>
        <pt x="723" y="137" on="1"/>
        <pt x="759" y="185" on="0"/>
        <pt x="759" y="345" on="0"/>
        <pt x="707" y="451" on="0"/>
        <pt x="662" y="482" on="1"/>
        <pt x="570" y="544" on="0"/>
        <pt x="311" y="544" on="0"/>
        <pt x="150" y="397" on="0"/>
        <pt x="150" y="145" on="0"/>
        <pt x="275" y="-5" on="0"/>
        <pt x="406" y="-5" on="1"/>
        <pt x="425" y="-5" on="1"/>
        <pt x="449" y="-5" on="0"/>
        <pt x="468" y="-28" on="0"/>
        <pt x="468" y="-90" on="0"/>
        <pt x="459" y="-117" on="0"/>
        <pt x="448" y="-122" on="1"/>
        <pt x="434" y="-130" on="0"/>
        <pt x="405" y="-130" on="1"/>
        <pt x="229" y="-130" on="0"/>
        <pt x="25" y="87" on="0"/>
        <pt x="25" y="270" on="1"/>
        <pt x="25" y="392" on="0"/>
        <pt x="141" y="577" on="0"/>
        <pt x="326" y="668" on="0"/>
        <pt x="529" y="668" on="0"/>
        <pt x="688" y="619" on="0"/>
      </contour>
      <contour>
        <pt x="358" y="256" on="0"/>
        <pt x="390" y="223" on="0"/>
        <pt x="442" y="223" on="0"/>
        <pt x="483" y="262" on="0"/>
        <pt x="486" y="286" on="1"/>
        <pt x="486" y="292" on="1"/>
        <pt x="486" y="315" on="0"/>
        <pt x="457" y="350" on="0"/>
        <pt x="401" y="350" on="0"/>
        <pt x="361" y="311" on="0"/>
        <pt x="358" y="286" on="1"/>
        <pt x="358" y="279" on="1"/>
      </contour>
    </TTGlyph>
    <TTGlyph name="atilde" xMin="25" yMin="2" xMax="556" yMax="773">
      <contour>
        <pt x="382" y="471" on="1"/>
        <pt x="388" y="527" on="0"/>
        <pt x="461" y="527" on="1"/>
        <pt x="500" y="527" on="0"/>
        <pt x="538" y="515" on="0"/>
        <pt x="553" y="485" on="0"/>
        <pt x="556" y="462" on="0"/>
        <pt x="556" y="439" on="1"/>
        <pt x="556" y="89" on="1"/>
        <pt x="556" y="66" on="0"/>
        <pt x="553" y="43" on="0"/>
        <pt x="546" y="28" on="1"/>
        <pt x="532" y="2" on="0"/>
        <pt x="423" y="2" on="0"/>
        <pt x="386" y="29" on="0"/>
        <pt x="383" y="55" on="1"/>
        <pt x="346" y="2" on="0"/>
        <pt x="173" y="2" on="0"/>
        <pt x="25" y="160" on="0"/>
        <pt x="25" y="369" on="0"/>
        <pt x="174" y="526" on="0"/>
        <pt x="263" y="526" on="1"/>
        <pt x="297" y="526" on="0"/>
        <pt x="353" y="502" on="0"/>
        <pt x="375" y="481" on="0"/>
      </contour>
      <contour>
        <pt x="200" y="230" on="0"/>
        <pt x="252" y="177" on="0"/>
        <pt x="326" y="177" on="0"/>
        <pt x="375" y="231" on="0"/>
        <pt x="375" y="296" on="0"/>
        <pt x="328" y="352" on="0"/>
        <pt x="249" y="352" on="0"/>
        <pt x="200" y="296" on="0"/>
      </contour>
      <contour>
        <pt x="489" y="758" on="1"/>
        <pt x="525" y="733" on="0"/>
        <pt x="525" y="710" on="1"/>
        <pt x="525" y="696" on="0"/>
        <pt x="509" y="670" on="0"/>
        <pt x="503" y="659" on="0"/>
        <pt x="481" y="631" on="0"/>
        <pt x="467" y="620" on="1"/>
        <pt x="429" y="592" on="0"/>
        <pt x="351" y="592" on="0"/>
        <pt x="306" y="618" on="0"/>
        <pt x="277" y="644" on="0"/>
        <pt x="268" y="644" on="1"/>
        <pt x="254" y="644" on="0"/>
        <pt x="242" y="632" on="1"/>
        <pt x="219" y="592" on="0"/>
        <pt x="180" y="592" on="0"/>
        <pt x="125" y="640" on="0"/>
        <pt x="125" y="671" on="0"/>
        <pt x="141" y="697" on="0"/>
        <pt x="147" y="708" on="0"/>
        <pt x="170" y="735" on="0"/>
        <pt x="184" y="746" on="1"/>
        <pt x="221" y="773" on="0"/>
        <pt x="271" y="773" on="1"/>
        <pt x="317" y="773" on="0"/>
        <pt x="359" y="736" on="1"/>
        <pt x="373" y="723" on="0"/>
        <pt x="382" y="723" on="1"/>
        <pt x="400" y="723" on="0"/>
        <pt x="408" y="735" on="1"/>
        <pt x="429" y="773" on="0"/>
        <pt x="453" y="773" on="1"/>
        <pt x="468" y="773" on="0"/>
      </contour>
    </TTGlyph>
    <TTGlyph name="b" xMin="40" yMin="1" xMax="567" yMax="773">
      <contour>
        <pt x="329" y="526" on="1"/>
        <pt x="418" y="526" on="0"/>
        <pt x="567" y="368" on="0"/>
        <pt x="567" y="159" on="0"/>
        <pt x="419" y="2" on="0"/>
        <pt x="249" y="2" on="0"/>
        <pt x="213" y="50" on="1"/>
        <pt x="205" y="1" on="0"/>
        <pt x="127" y="1" on="1"/>
        <pt x="64" y="1" on="0"/>
        <pt x="50" y="28" on="1"/>
        <pt x="43" y="43" on="0"/>
        <pt x="40" y="66" on="0"/>
        <pt x="40" y="89" on="1"/>
        <pt x="40" y="686" on="1"/>
        <pt x="40" y="709" on="0"/>
        <pt x="43" y="732" on="0"/>
        <pt x="50" y="746" on="1"/>
        <pt x="64" y="773" on="0"/>
        <pt x="128" y="773" on="1"/>
        <pt x="191" y="773" on="0"/>
        <pt x="204" y="746" on="1"/>
        <pt x="212" y="731" on="0"/>
        <pt x="215" y="708" on="0"/>
        <pt x="215" y="685" on="1"/>
        <pt x="215" y="477" on="1"/>
        <pt x="255" y="526" on="0"/>
      </contour>
      <contour>
        <pt x="266" y="176" on="0"/>
        <pt x="340" y="176" on="0"/>
        <pt x="392" y="230" on="0"/>
        <pt x="392" y="296" on="0"/>
        <pt x="344" y="351" on="0"/>
        <pt x="264" y="351" on="0"/>
        <pt x="217" y="295" on="0"/>
        <pt x="217" y="230" on="0"/>
      </contour>
    </TTGlyph>
    <TTGlyph name="backslash" xMin="15" yMin="-56" xMax="513" yMax="782">
      <contour>
        <pt x="351" y="-8" on="1"/>
        <pt x="28" y="665" on="1"/>
        <pt x="15" y="692" on="0"/>
        <pt x="15" y="707" on="1"/>
        <pt x="15" y="739" on="0"/>
        <pt x="71" y="766" on="1"/>
        <pt x="106" y="782" on="0"/>
        <pt x="137" y="782" on="0"/>
        <pt x="153" y="775" on="0"/>
        <pt x="160" y="767" on="1"/>
        <pt x="167" y="757" on="0"/>
        <pt x="179" y="734" on="1"/>
        <pt x="499" y="66" on="1"/>
        <pt x="513" y="29" on="0"/>
        <pt x="513" y="-2" on="0"/>
        <pt x="489" y="-26" on="0"/>
        <pt x="424" y="-56" on="0"/>
        <pt x="384" y="-56" on="0"/>
        <pt x="362" y="-33" on="0"/>
      </contour>
    </TTGlyph>
    <TTGlyph name="bar" xMin="40" yMin="-232" xMax="177" yMax="773">
      <contour>
        <pt x="40" y="687" on="1"/>
        <pt x="40" y="755" on="0"/>
        <pt x="69" y="767" on="1"/>
        <pt x="84" y="773" on="0"/>
        <pt x="133" y="773" on="0"/>
        <pt x="163" y="761" on="0"/>
        <pt x="169" y="746" on="1"/>
        <pt x="177" y="727" on="0"/>
        <pt x="177" y="686" on="1"/>
        <pt x="177" y="-146" on="1"/>
        <pt x="177" y="-214" on="0"/>
        <pt x="148" y="-226" on="1"/>
        <pt x="133" y="-232" on="0"/>
        <pt x="84" y="-232" on="0"/>
        <pt x="54" y="-220" on="0"/>
        <pt x="48" y="-205" on="1"/>
        <pt x="40" y="-185" on="0"/>
        <pt x="40" y="-144" on="1"/>
      </contour>
    </TTGlyph>
    <TTGlyph name="braceleft" xMin="15" yMin="-226" xMax="366" yMax="773">
      <contour>
        <pt x="130" y="-28" on="1"/>
        <pt x="131" y="65" on="1"/>
        <pt x="131" y="129" on="0"/>
        <pt x="129" y="153" on="1"/>
        <pt x="129" y="201" on="0"/>
        <pt x="69" y="201" on="1"/>
        <pt x="63" y="201" on="1"/>
        <pt x="29" y="201" on="0"/>
        <pt x="20" y="232" on="1"/>
        <pt x="15" y="248" on="0"/>
        <pt x="15" y="298" on="0"/>
        <pt x="24" y="330" on="0"/>
        <pt x="32" y="336" on="1"/>
        <pt x="45" y="345" on="0"/>
        <pt x="62" y="345" on="1"/>
        <pt x="66" y="345" on="1"/>
        <pt x="129" y="345" on="0"/>
        <pt x="129" y="394" on="1"/>
        <pt x="130" y="577" on="0"/>
        <pt x="130" y="598" on="1"/>
        <pt x="130" y="675" on="0"/>
        <pt x="223" y="773" on="0"/>
        <pt x="293" y="773" on="1"/>
        <pt x="326" y="773" on="0"/>
        <pt x="356" y="758" on="0"/>
        <pt x="366" y="727" on="0"/>
        <pt x="366" y="677" on="0"/>
        <pt x="356" y="646" on="0"/>
        <pt x="344" y="640" on="1"/>
        <pt x="325" y="629" on="0"/>
        <pt x="294" y="629" on="1"/>
        <pt x="274" y="629" on="0"/>
        <pt x="274" y="590" on="1"/>
        <pt x="274" y="420" on="1"/>
        <pt x="274" y="376" on="0"/>
        <pt x="244" y="302" on="0"/>
        <pt x="230" y="287" on="1"/>
        <pt x="215" y="272" on="1"/>
        <pt x="221" y="269" on="0"/>
        <pt x="246" y="239" on="0"/>
        <pt x="254" y="222" on="1"/>
        <pt x="274" y="177" on="0"/>
        <pt x="273" y="15" on="0"/>
        <pt x="273" y="-33" on="1"/>
        <pt x="273" y="-57" on="1"/>
        <pt x="273" y="-69" on="0"/>
        <pt x="278" y="-76" on="1"/>
        <pt x="285" y="-83" on="0"/>
        <pt x="312" y="-83" on="0"/>
        <pt x="331" y="-86" on="0"/>
        <pt x="344" y="-92" on="1"/>
        <pt x="366" y="-103" on="0"/>
        <pt x="366" y="-154" on="1"/>
        <pt x="366" y="-206" on="0"/>
        <pt x="343" y="-217" on="1"/>
        <pt x="325" y="-226" on="0"/>
        <pt x="294" y="-226" on="1"/>
        <pt x="224" y="-226" on="0"/>
        <pt x="130" y="-126" on="0"/>
        <pt x="130" y="-47" on="1"/>
      </contour>
    </TTGlyph>
    <TTGlyph name="braceright" xMin="15" yMin="-226" xMax="366" yMax="773">
      <contour>
        <pt x="249" y="65" on="1"/>
        <pt x="250" y="-28" on="1"/>
        <pt x="250" y="-47" on="1"/>
        <pt x="250" y="-126" on="0"/>
        <pt x="156" y="-226" on="0"/>
        <pt x="86" y="-226" on="1"/>
        <pt x="30" y="-226" on="0"/>
        <pt x="20" y="-196" on="1"/>
        <pt x="15" y="-180" on="0"/>
        <pt x="15" y="-128" on="0"/>
        <pt x="25" y="-98" on="0"/>
        <pt x="37" y="-92" on="1"/>
        <pt x="55" y="-83" on="0"/>
        <pt x="90" y="-83" on="0"/>
        <pt x="96" y="-82" on="0"/>
        <pt x="107" y="-69" on="0"/>
        <pt x="107" y="-57" on="1"/>
        <pt x="107" y="-33" on="1"/>
        <pt x="106" y="113" on="1"/>
        <pt x="106" y="168" on="0"/>
        <pt x="136" y="247" on="0"/>
        <pt x="151" y="260" on="1"/>
        <pt x="166" y="272" on="1"/>
        <pt x="159" y="278" on="0"/>
        <pt x="139" y="300" on="0"/>
        <pt x="106" y="376" on="0"/>
        <pt x="106" y="420" on="1"/>
        <pt x="107" y="590" on="1"/>
        <pt x="107" y="623" on="0"/>
        <pt x="96" y="628" on="1"/>
        <pt x="92" y="629" on="0"/>
        <pt x="67" y="629" on="0"/>
        <pt x="48" y="633" on="0"/>
        <pt x="25" y="646" on="0"/>
        <pt x="15" y="677" on="0"/>
        <pt x="15" y="727" on="0"/>
        <pt x="25" y="758" on="0"/>
        <pt x="36" y="764" on="1"/>
        <pt x="54" y="773" on="0"/>
        <pt x="87" y="773" on="1"/>
        <pt x="157" y="773" on="0"/>
        <pt x="250" y="675" on="0"/>
        <pt x="250" y="598" on="1"/>
        <pt x="251" y="394" on="1"/>
        <pt x="251" y="345" on="0"/>
        <pt x="314" y="345" on="1"/>
        <pt x="318" y="345" on="1"/>
        <pt x="353" y="345" on="0"/>
        <pt x="362" y="314" on="1"/>
        <pt x="366" y="298" on="0"/>
        <pt x="366" y="241" on="0"/>
        <pt x="348" y="206" on="0"/>
        <pt x="330" y="201" on="0"/>
        <pt x="317" y="201" on="1"/>
        <pt x="311" y="201" on="1"/>
        <pt x="251" y="201" on="0"/>
        <pt x="251" y="153" on="1"/>
        <pt x="249" y="129" on="0"/>
      </contour>
    </TTGlyph>
    <TTGlyph name="bracketleft" xMin="40" yMin="-226" xMax="333" yMax="773">
      <contour>
        <pt x="202" y="-82" on="1"/>
        <pt x="276" y="-82" on="1"/>
        <pt x="301" y="-82" on="0"/>
        <pt x="313" y="-90" on="1"/>
        <pt x="333" y="-102" on="0"/>
        <pt x="333" y="-155" on="1"/>
        <pt x="333" y="-206" on="0"/>
        <pt x="315" y="-217" on="1"/>
        <pt x="300" y="-226" on="0"/>
        <pt x="275" y="-226" on="1"/>
        <pt x="121" y="-226" on="1"/>
        <pt x="63" y="-226" on="0"/>
        <pt x="50" y="-200" on="1"/>
        <pt x="40" y="-179" on="0"/>
        <pt x="40" y="-139" on="1"/>
        <pt x="40" y="687" on="1"/>
        <pt x="40" y="726" on="0"/>
        <pt x="57" y="761" on="0"/>
        <pt x="93" y="773" on="0"/>
        <pt x="122" y="773" on="1"/>
        <pt x="276" y="773" on="1"/>
        <pt x="301" y="773" on="0"/>
        <pt x="313" y="766" on="1"/>
        <pt x="333" y="753" on="0"/>
        <pt x="333" y="700" on="1"/>
        <pt x="333" y="649" on="0"/>
        <pt x="315" y="638" on="1"/>
        <pt x="300" y="629" on="0"/>
        <pt x="275" y="629" on="1"/>
        <pt x="202" y="629" on="1"/>
      </contour>
    </TTGlyph>
    <TTGlyph name="bracketright" xMin="15" yMin="-226" xMax="308" yMax="773">
      <contour>
        <pt x="226" y="773" on="1"/>
        <pt x="285" y="773" on="0"/>
        <pt x="298" y="746" on="1"/>
        <pt x="308" y="726" on="0"/>
        <pt x="308" y="687" on="1"/>
        <pt x="308" y="-139" on="1"/>
        <pt x="308" y="-179" on="0"/>
        <pt x="291" y="-214" on="0"/>
        <pt x="256" y="-226" on="0"/>
        <pt x="227" y="-226" on="1"/>
        <pt x="73" y="-226" on="1"/>
        <pt x="27" y="-226" on="0"/>
        <pt x="19" y="-196" on="1"/>
        <pt x="15" y="-180" on="0"/>
        <pt x="15" y="-129" on="0"/>
        <pt x="23" y="-97" on="0"/>
        <pt x="32" y="-91" on="1"/>
        <pt x="47" y="-82" on="0"/>
        <pt x="72" y="-82" on="1"/>
        <pt x="146" y="-82" on="1"/>
        <pt x="146" y="629" on="1"/>
        <pt x="73" y="629" on="1"/>
        <pt x="27" y="629" on="0"/>
        <pt x="19" y="660" on="1"/>
        <pt x="15" y="675" on="0"/>
        <pt x="15" y="726" on="0"/>
        <pt x="23" y="758" on="0"/>
        <pt x="32" y="764" on="1"/>
        <pt x="47" y="773" on="0"/>
        <pt x="72" y="773" on="1"/>
      </contour>
    </TTGlyph>
    <TTGlyph name="brokenbar" xMin="40" yMin="-223" xMax="175" yMax="773">
      <contour>
        <pt x="70" y="226" on="1"/>
        <pt x="85" y="232" on="0"/>
        <pt x="132" y="232" on="0"/>
        <pt x="162" y="219" on="0"/>
        <pt x="167" y="206" on="1"/>
        <pt x="175" y="186" on="0"/>
        <pt x="175" y="167" on="1"/>
        <pt x="175" y="-138" on="1"/>
        <pt x="175" y="-178" on="0"/>
        <pt x="161" y="-211" on="0"/>
        <pt x="131" y="-223" on="0"/>
        <pt x="83" y="-223" on="0"/>
        <pt x="54" y="-211" on="0"/>
        <pt x="48" y="-196" on="1"/>
        <pt x="40" y="-177" on="0"/>
        <pt x="40" y="-137" on="1"/>
        <pt x="40" y="167" on="1"/>
        <pt x="40" y="213" on="0"/>
      </contour>
      <contour>
        <pt x="84" y="773" on="0"/>
        <pt x="132" y="773" on="0"/>
        <pt x="161" y="761" on="0"/>
        <pt x="167" y="746" on="1"/>
        <pt x="175" y="727" on="0"/>
        <pt x="175" y="687" on="1"/>
        <pt x="175" y="383" on="1"/>
        <pt x="175" y="338" on="0"/>
        <pt x="146" y="326" on="1"/>
        <pt x="131" y="319" on="0"/>
        <pt x="84" y="319" on="0"/>
        <pt x="54" y="332" on="0"/>
        <pt x="48" y="344" on="1"/>
        <pt x="40" y="363" on="0"/>
        <pt x="40" y="383" on="1"/>
        <pt x="40" y="688" on="1"/>
        <pt x="40" y="755" on="0"/>
        <pt x="70" y="767" on="1"/>
      </contour>
    </TTGlyph>
    <TTGlyph name="bullet" xMin="25" yMin="170" xMax="317" yMax="462">
      <contour>
        <pt x="317" y="462" on="0"/>
        <pt x="317" y="170" on="0"/>
        <pt x="25" y="170" on="0"/>
        <pt x="25" y="462" on="0"/>
      </contour>
    </TTGlyph>
    <TTGlyph name="c" xMin="25" yMin="-5" xMax="492" yMax="533">
      <contour>
        <pt x="205" y="221" on="0"/>
        <pt x="261" y="174" on="0"/>
        <pt x="324" y="174" on="0"/>
        <pt x="379" y="211" on="0"/>
        <pt x="396" y="211" on="1"/>
        <pt x="426" y="211" on="0"/>
        <pt x="469" y="158" on="1"/>
        <pt x="492" y="129" on="0"/>
        <pt x="492" y="106" on="1"/>
        <pt x="492" y="68" on="0"/>
        <pt x="437" y="35" on="1"/>
        <pt x="380" y="-5" on="0"/>
        <pt x="297" y="-5" on="1"/>
        <pt x="204" y="-5" on="0"/>
        <pt x="118" y="62" on="1"/>
        <pt x="77" y="94" on="0"/>
        <pt x="25" y="201" on="0"/>
        <pt x="25" y="330" on="0"/>
        <pt x="77" y="435" on="0"/>
        <pt x="118" y="467" on="1"/>
        <pt x="201" y="533" on="0"/>
        <pt x="295" y="533" on="1"/>
        <pt x="333" y="533" on="0"/>
        <pt x="405" y="512" on="0"/>
        <pt x="422" y="502" on="1"/>
        <pt x="438" y="492" on="1"/>
        <pt x="456" y="480" on="0"/>
        <pt x="466" y="473" on="1"/>
        <pt x="492" y="453" on="0"/>
        <pt x="492" y="402" on="0"/>
        <pt x="471" y="370" on="1"/>
        <pt x="435" y="315" on="0"/>
        <pt x="402" y="315" on="1"/>
        <pt x="383" y="315" on="0"/>
        <pt x="348" y="337" on="1"/>
        <pt x="330" y="354" on="0"/>
        <pt x="263" y="354" on="0"/>
        <pt x="205" y="306" on="0"/>
      </contour>
    </TTGlyph>
    <TTGlyph name="caron" xMin="103" yMin="583" xMax="503" yMax="773">
      <contour>
        <pt x="302" y="583" on="1"/>
        <pt x="279" y="588" on="1"/>
        <pt x="186" y="619" on="0"/>
        <pt x="140" y="634" on="1"/>
        <pt x="103" y="645" on="0"/>
        <pt x="103" y="679" on="1"/>
        <pt x="103" y="696" on="0"/>
        <pt x="113" y="721" on="1"/>
        <pt x="137" y="770" on="0"/>
        <pt x="164" y="772" on="1"/>
        <pt x="172" y="773" on="0"/>
        <pt x="176" y="773" on="1"/>
        <pt x="187" y="773" on="0"/>
        <pt x="205" y="767" on="1"/>
        <pt x="302" y="725" on="1"/>
        <pt x="388" y="763" on="1"/>
        <pt x="414" y="772" on="0"/>
        <pt x="440" y="772" on="0"/>
        <pt x="447" y="769" on="1"/>
        <pt x="473" y="758" on="0"/>
        <pt x="503" y="697" on="0"/>
        <pt x="503" y="678" on="1"/>
        <pt x="503" y="646" on="0"/>
        <pt x="464" y="634" on="1"/>
        <pt x="325" y="588" on="1"/>
      </contour>
    </TTGlyph>
    <TTGlyph name="ccedilla" xMin="25" yMin="-192" xMax="499" yMax="538">
      <contour>
        <pt x="201" y="-21" on="1"/>
        <pt x="204" y="-4" on="0"/>
        <pt x="217" y="6" on="1"/>
        <pt x="136" y="32" on="0"/>
        <pt x="25" y="167" on="0"/>
        <pt x="25" y="267" on="1"/>
        <pt x="25" y="331" on="0"/>
        <pt x="77" y="438" on="0"/>
        <pt x="118" y="470" on="1"/>
        <pt x="205" y="538" on="0"/>
        <pt x="299" y="538" on="1"/>
        <pt x="338" y="538" on="0"/>
        <pt x="410" y="518" on="0"/>
        <pt x="427" y="508" on="1"/>
        <pt x="444" y="497" on="1"/>
        <pt x="463" y="485" on="0"/>
        <pt x="472" y="478" on="1"/>
        <pt x="499" y="457" on="0"/>
        <pt x="499" y="407" on="0"/>
        <pt x="477" y="372" on="1"/>
        <pt x="441" y="317" on="0"/>
        <pt x="407" y="317" on="1"/>
        <pt x="388" y="317" on="0"/>
        <pt x="353" y="339" on="1"/>
        <pt x="334" y="356" on="0"/>
        <pt x="266" y="356" on="0"/>
        <pt x="208" y="309" on="0"/>
        <pt x="208" y="222" on="0"/>
        <pt x="265" y="174" on="0"/>
        <pt x="329" y="174" on="0"/>
        <pt x="384" y="211" on="0"/>
        <pt x="401" y="211" on="1"/>
        <pt x="431" y="211" on="0"/>
        <pt x="476" y="157" on="1"/>
        <pt x="499" y="128" on="0"/>
        <pt x="499" y="104" on="1"/>
        <pt x="499" y="67" on="0"/>
        <pt x="444" y="32" on="1"/>
        <pt x="412" y="10" on="0"/>
        <pt x="361" y="-1" on="1"/>
        <pt x="396" y="-32" on="0"/>
        <pt x="396" y="-133" on="0"/>
        <pt x="325" y="-192" on="0"/>
        <pt x="284" y="-192" on="1"/>
        <pt x="257" y="-192" on="0"/>
        <pt x="243" y="-184" on="1"/>
        <pt x="204" y="-164" on="0"/>
        <pt x="202" y="-145" on="1"/>
        <pt x="201" y="-140" on="1"/>
        <pt x="201" y="-128" on="0"/>
        <pt x="232" y="-91" on="0"/>
        <pt x="254" y="-91" on="0"/>
        <pt x="268" y="-100" on="0"/>
        <pt x="272" y="-101" on="1"/>
        <pt x="276" y="-105" on="0"/>
        <pt x="293" y="-105" on="0"/>
        <pt x="308" y="-93" on="0"/>
        <pt x="308" y="-70" on="0"/>
        <pt x="293" y="-58" on="0"/>
        <pt x="276" y="-58" on="0"/>
        <pt x="271" y="-63" on="1"/>
        <pt x="255" y="-73" on="0"/>
        <pt x="228" y="-73" on="0"/>
        <pt x="201" y="-31" on="0"/>
      </contour>
    </TTGlyph>
    <TTGlyph name="cedilla" xMin="176" yMin="-192" xMax="372" yMax="30">
      <contour>
        <pt x="260" y="30" on="1"/>
        <pt x="300" y="30" on="0"/>
        <pt x="372" y="-29" on="0"/>
        <pt x="372" y="-134" on="0"/>
        <pt x="333" y="-164" on="1"/>
        <pt x="302" y="-192" on="0"/>
        <pt x="226" y="-192" on="0"/>
        <pt x="179" y="-160" on="0"/>
        <pt x="176" y="-145" on="1"/>
        <pt x="176" y="-141" on="1"/>
        <pt x="176" y="-126" on="0"/>
        <pt x="187" y="-114" on="1"/>
        <pt x="207" y="-90" on="0"/>
        <pt x="232" y="-90" on="0"/>
        <pt x="247" y="-101" on="1"/>
        <pt x="251" y="-102" on="0"/>
        <pt x="257" y="-104" on="0"/>
        <pt x="269" y="-104" on="0"/>
        <pt x="284" y="-93" on="0"/>
        <pt x="284" y="-69" on="0"/>
        <pt x="268" y="-57" on="0"/>
        <pt x="251" y="-57" on="0"/>
        <pt x="246" y="-62" on="1"/>
        <pt x="230" y="-72" on="0"/>
        <pt x="204" y="-72" on="0"/>
        <pt x="186" y="-47" on="1"/>
        <pt x="176" y="-30" on="0"/>
        <pt x="177" y="-19" on="1"/>
        <pt x="180" y="8" on="0"/>
        <pt x="241" y="30" on="0"/>
      </contour>
    </TTGlyph>
    <TTGlyph name="cent" xMin="25" yMin="-81" xMax="409" yMax="667">
      <contour>
        <pt x="173" y="251" on="0"/>
        <pt x="220" y="212" on="0"/>
        <pt x="272" y="212" on="0"/>
        <pt x="314" y="242" on="0"/>
        <pt x="330" y="242" on="1"/>
        <pt x="355" y="242" on="0"/>
        <pt x="390" y="199" on="1"/>
        <pt x="409" y="176" on="0"/>
        <pt x="409" y="156" on="1"/>
        <pt x="409" y="125" on="0"/>
        <pt x="364" y="98" on="1"/>
        <pt x="340" y="81" on="0"/>
        <pt x="302" y="72" on="1"/>
        <pt x="302" y="-8" on="1"/>
        <pt x="302" y="-42" on="0"/>
        <pt x="290" y="-71" on="0"/>
        <pt x="265" y="-81" on="0"/>
        <pt x="223" y="-81" on="0"/>
        <pt x="198" y="-71" on="0"/>
        <pt x="193" y="-58" on="1"/>
        <pt x="186" y="-41" on="0"/>
        <pt x="186" y="-7" on="1"/>
        <pt x="186" y="74" on="1"/>
        <pt x="118" y="95" on="0"/>
        <pt x="25" y="205" on="0"/>
        <pt x="25" y="368" on="0"/>
        <pt x="119" y="478" on="0"/>
        <pt x="186" y="498" on="1"/>
        <pt x="186" y="593" on="1"/>
        <pt x="186" y="652" on="0"/>
        <pt x="210" y="662" on="1"/>
        <pt x="223" y="667" on="0"/>
        <pt x="265" y="667" on="0"/>
        <pt x="290" y="657" on="0"/>
        <pt x="295" y="644" on="1"/>
        <pt x="302" y="627" on="0"/>
        <pt x="302" y="592" on="1"/>
        <pt x="302" y="500" on="1"/>
        <pt x="343" y="490" on="0"/>
        <pt x="386" y="458" on="1"/>
        <pt x="408" y="443" on="0"/>
        <pt x="408" y="400" on="0"/>
        <pt x="391" y="373" on="1"/>
        <pt x="362" y="328" on="0"/>
        <pt x="334" y="328" on="1"/>
        <pt x="318" y="328" on="0"/>
        <pt x="291" y="346" on="1"/>
        <pt x="275" y="360" on="0"/>
        <pt x="220" y="360" on="0"/>
        <pt x="173" y="321" on="0"/>
      </contour>
    </TTGlyph>
    <TTGlyph name="circumflex" xMin="102" yMin="583" xMax="502" yMax="774">
      <contour>
        <pt x="303" y="774" on="1"/>
        <pt x="326" y="769" on="1"/>
        <pt x="419" y="739" on="0"/>
        <pt x="502" y="711" on="0"/>
        <pt x="502" y="676" on="1"/>
        <pt x="502" y="657" on="0"/>
        <pt x="491" y="636" on="1"/>
        <pt x="464" y="583" on="0"/>
        <pt x="431" y="583" on="1"/>
        <pt x="422" y="583" on="0"/>
        <pt x="399" y="590" on="1"/>
        <pt x="303" y="632" on="1"/>
        <pt x="210" y="592" on="1"/>
        <pt x="196" y="585" on="0"/>
        <pt x="176" y="585" on="1"/>
        <pt x="138" y="585" on="0"/>
        <pt x="114" y="636" on="1"/>
        <pt x="102" y="662" on="0"/>
        <pt x="102" y="678" on="1"/>
        <pt x="102" y="710" on="0"/>
        <pt x="140" y="723" on="1"/>
        <pt x="279" y="769" on="1"/>
      </contour>
    </TTGlyph>
    <TTGlyph name="colon" xMin="25" yMin="-1" xMax="213" yMax="505">
      <contour>
        <pt x="174" y="505" on="0"/>
        <pt x="213" y="465" on="0"/>
        <pt x="213" y="410" on="1"/>
        <pt x="212" y="386" on="0"/>
        <pt x="209" y="363" on="0"/>
        <pt x="200" y="347" on="1"/>
        <pt x="185" y="318" on="0"/>
        <pt x="64" y="318" on="0"/>
        <pt x="25" y="357" on="0"/>
        <pt x="25" y="413" on="1"/>
        <pt x="25" y="471" on="0"/>
        <pt x="46" y="487" on="1"/>
        <pt x="71" y="505" on="0"/>
      </contour>
      <contour>
        <pt x="174" y="186" on="0"/>
        <pt x="213" y="147" on="0"/>
        <pt x="213" y="91" on="1"/>
        <pt x="212" y="67" on="0"/>
        <pt x="209" y="44" on="0"/>
        <pt x="200" y="28" on="1"/>
        <pt x="185" y="-1" on="0"/>
        <pt x="64" y="-1" on="0"/>
        <pt x="25" y="38" on="0"/>
        <pt x="25" y="94" on="1"/>
        <pt x="25" y="152" on="0"/>
        <pt x="46" y="168" on="1"/>
        <pt x="71" y="186" on="0"/>
      </contour>
    </TTGlyph>
    <TTGlyph name="comma" xMin="25" yMin="-159" xMax="213" yMax="186">
      <contour>
        <pt x="46" y="173" on="0"/>
        <pt x="86" y="186" on="0"/>
        <pt x="174" y="186" on="0"/>
        <pt x="213" y="147" on="0"/>
        <pt x="213" y="91" on="1"/>
        <pt x="213" y="70" on="0"/>
        <pt x="210" y="52" on="1"/>
        <pt x="201" y="-33" on="0"/>
        <pt x="107" y="-159" on="0"/>
        <pt x="44" y="-159" on="1"/>
        <pt x="37" y="-159" on="0"/>
        <pt x="26" y="-138" on="0"/>
        <pt x="26" y="-105" on="0"/>
        <pt x="35" y="-85" on="0"/>
        <pt x="49" y="-80" on="0"/>
        <pt x="64" y="-69" on="0"/>
        <pt x="90" y="-27" on="0"/>
        <pt x="92" y="0" on="1"/>
        <pt x="60" y="4" on="0"/>
        <pt x="25" y="39" on="0"/>
        <pt x="26" y="118" on="0"/>
        <pt x="29" y="141" on="0"/>
      </contour>
    </TTGlyph>
    <TTGlyph name="copyright" xMin="25" yMin="96" xMax="686" yMax="747">
      <contour>
        <pt x="598" y="672" on="1"/>
        <pt x="686" y="587" on="0"/>
        <pt x="686" y="420" on="1"/>
        <pt x="686" y="360" on="0"/>
        <pt x="654" y="231" on="0"/>
        <pt x="575" y="143" on="0"/>
        <pt x="456" y="96" on="0"/>
        <pt x="355" y="96" on="1"/>
        <pt x="189" y="96" on="0"/>
        <pt x="115" y="168" on="1"/>
        <pt x="25" y="255" on="0"/>
        <pt x="25" y="592" on="0"/>
        <pt x="194" y="747" on="0"/>
        <pt x="522" y="747" on="0"/>
      </contour>
      <contour>
        <pt x="535" y="228" on="1"/>
        <pt x="599" y="283" on="0"/>
        <pt x="599" y="549" on="0"/>
        <pt x="490" y="662" on="0"/>
        <pt x="229" y="662" on="0"/>
        <pt x="175" y="613" on="1"/>
        <pt x="112" y="556" on="0"/>
        <pt x="112" y="288" on="0"/>
        <pt x="225" y="181" on="0"/>
        <pt x="482" y="181" on="0"/>
      </contour>
      <contour>
        <pt x="425" y="487" on="1"/>
        <pt x="397" y="511" on="0"/>
        <pt x="325" y="511" on="0"/>
        <pt x="271" y="462" on="0"/>
        <pt x="271" y="378" on="0"/>
        <pt x="327" y="330" on="0"/>
        <pt x="361" y="330" on="1"/>
        <pt x="389" y="330" on="0"/>
        <pt x="428" y="359" on="0"/>
        <pt x="453" y="359" on="0"/>
        <pt x="462" y="353" on="0"/>
        <pt x="475" y="338" on="1"/>
        <pt x="494" y="313" on="0"/>
        <pt x="494" y="295" on="1"/>
        <pt x="494" y="291" on="1"/>
        <pt x="493" y="275" on="0"/>
        <pt x="474" y="262" on="1"/>
        <pt x="423" y="226" on="0"/>
        <pt x="367" y="226" on="1"/>
        <pt x="285" y="226" on="0"/>
        <pt x="166" y="335" on="0"/>
        <pt x="166" y="428" on="1"/>
        <pt x="166" y="499" on="0"/>
        <pt x="277" y="615" on="0"/>
        <pt x="357" y="615" on="1"/>
        <pt x="430" y="615" on="0"/>
        <pt x="475" y="576" on="1"/>
        <pt x="495" y="559" on="0"/>
        <pt x="495" y="550" on="1"/>
        <pt x="495" y="516" on="0"/>
        <pt x="465" y="492" on="1"/>
        <pt x="454" y="483" on="0"/>
        <pt x="433" y="483" on="0"/>
      </contour>
    </TTGlyph>
    <TTGlyph name="currency" xMin="25" yMin="5" xMax="652" yMax="772">
      <contour>
        <pt x="572" y="191" on="1"/>
        <pt x="579" y="187" on="0"/>
        <pt x="603" y="158" on="1"/>
        <pt x="652" y="99" on="0"/>
        <pt x="652" y="48" on="0"/>
        <pt x="585" y="5" on="0"/>
        <pt x="543" y="5" on="0"/>
        <pt x="520" y="46" on="1"/>
        <pt x="516" y="50" on="0"/>
        <pt x="503" y="72" on="1"/>
        <pt x="488" y="102" on="0"/>
        <pt x="342" y="102" on="1"/>
        <pt x="322" y="102" on="1"/>
        <pt x="194" y="102" on="0"/>
        <pt x="174" y="73" on="1"/>
        <pt x="158" y="45" on="1"/>
        <pt x="143" y="19" on="0"/>
        <pt x="122" y="5" on="0"/>
        <pt x="94" y="5" on="0"/>
        <pt x="66" y="20" on="1"/>
        <pt x="25" y="43" on="0"/>
        <pt x="25" y="71" on="1"/>
        <pt x="25" y="88" on="0"/>
        <pt x="41" y="113" on="1"/>
        <pt x="74" y="171" on="0"/>
        <pt x="107" y="192" on="1"/>
        <pt x="46" y="265" on="0"/>
        <pt x="46" y="509" on="0"/>
        <pt x="107" y="584" on="1"/>
        <pt x="96" y="591" on="0"/>
        <pt x="52" y="639" on="0"/>
        <pt x="28" y="690" on="0"/>
        <pt x="28" y="704" on="1"/>
        <pt x="28" y="731" on="0"/>
        <pt x="92" y="772" on="0"/>
        <pt x="121" y="772" on="0"/>
        <pt x="140" y="758" on="0"/>
        <pt x="149" y="745" on="0"/>
        <pt x="163" y="721" on="0"/>
        <pt x="177" y="699" on="0"/>
        <pt x="191" y="689" on="0"/>
        <pt x="271" y="674" on="0"/>
        <pt x="336" y="674" on="1"/>
        <pt x="348" y="674" on="1"/>
        <pt x="489" y="674" on="0"/>
        <pt x="504" y="704" on="1"/>
        <pt x="519" y="729" on="1"/>
        <pt x="535" y="755" on="0"/>
        <pt x="557" y="769" on="0"/>
        <pt x="585" y="769" on="0"/>
        <pt x="612" y="754" on="1"/>
        <pt x="651" y="731" on="0"/>
        <pt x="651" y="703" on="1"/>
        <pt x="651" y="687" on="0"/>
        <pt x="636" y="661" on="1"/>
        <pt x="603" y="605" on="0"/>
        <pt x="570" y="583" on="1"/>
        <pt x="631" y="510" on="0"/>
        <pt x="631" y="265" on="0"/>
      </contour>
      <contour>
        <pt x="333" y="244" on="1"/>
        <pt x="405" y="244" on="0"/>
        <pt x="482" y="305" on="0"/>
        <pt x="482" y="466" on="0"/>
        <pt x="408" y="530" on="0"/>
        <pt x="268" y="530" on="0"/>
        <pt x="196" y="465" on="0"/>
        <pt x="196" y="388" on="1"/>
        <pt x="196" y="244" on="0"/>
      </contour>
    </TTGlyph>
    <TTGlyph name="d" xMin="30" yMin="1" xMax="558" yMax="773">
      <contour>
        <pt x="401" y="761" on="0"/>
        <pt x="439" y="773" on="0"/>
        <pt x="502" y="773" on="0"/>
        <pt x="540" y="761" on="0"/>
        <pt x="555" y="731" on="0"/>
        <pt x="558" y="708" on="0"/>
        <pt x="558" y="685" on="1"/>
        <pt x="558" y="88" on="1"/>
        <pt x="558" y="65" on="0"/>
        <pt x="555" y="42" on="0"/>
        <pt x="547" y="28" on="1"/>
        <pt x="532" y="1" on="0"/>
        <pt x="393" y="1" on="0"/>
        <pt x="385" y="50" on="1"/>
        <pt x="343" y="2" on="0"/>
        <pt x="268" y="2" on="1"/>
        <pt x="178" y="2" on="0"/>
        <pt x="30" y="159" on="0"/>
        <pt x="30" y="368" on="0"/>
        <pt x="179" y="526" on="0"/>
        <pt x="268" y="526" on="1"/>
        <pt x="342" y="526" on="0"/>
        <pt x="383" y="476" on="1"/>
        <pt x="383" y="686" on="1"/>
        <pt x="383" y="709" on="0"/>
        <pt x="386" y="732" on="0"/>
      </contour>
      <contour>
        <pt x="257" y="176" on="0"/>
        <pt x="331" y="176" on="0"/>
        <pt x="380" y="230" on="0"/>
        <pt x="380" y="295" on="0"/>
        <pt x="333" y="351" on="0"/>
        <pt x="253" y="351" on="0"/>
        <pt x="205" y="296" on="0"/>
        <pt x="205" y="230" on="0"/>
      </contour>
    </TTGlyph>
    <TTGlyph name="dagger" xMin="15" yMin="-189" xMax="512" yMax="747">
      <contour>
        <pt x="433" y="513" on="1"/>
        <pt x="494" y="513" on="0"/>
        <pt x="506" y="479" on="1"/>
        <pt x="512" y="462" on="0"/>
        <pt x="512" y="405" on="0"/>
        <pt x="501" y="371" on="0"/>
        <pt x="488" y="364" on="1"/>
        <pt x="469" y="354" on="0"/>
        <pt x="432" y="354" on="1"/>
        <pt x="350" y="360" on="1"/>
        <pt x="350" y="-103" on="1"/>
        <pt x="350" y="-126" on="0"/>
        <pt x="347" y="-148" on="0"/>
        <pt x="332" y="-177" on="0"/>
        <pt x="294" y="-189" on="0"/>
        <pt x="232" y="-189" on="0"/>
        <pt x="195" y="-177" on="0"/>
        <pt x="180" y="-149" on="0"/>
        <pt x="177" y="-125" on="0"/>
        <pt x="177" y="-102" on="1"/>
        <pt x="177" y="360" on="1"/>
        <pt x="91" y="354" on="1"/>
        <pt x="33" y="354" on="0"/>
        <pt x="21" y="388" on="1"/>
        <pt x="15" y="406" on="0"/>
        <pt x="15" y="462" on="0"/>
        <pt x="28" y="497" on="0"/>
        <pt x="42" y="504" on="1"/>
        <pt x="62" y="513" on="0"/>
        <pt x="95" y="513" on="1"/>
        <pt x="177" y="506" on="1"/>
        <pt x="177" y="664" on="1"/>
        <pt x="177" y="686" on="0"/>
        <pt x="180" y="708" on="0"/>
        <pt x="196" y="736" on="0"/>
        <pt x="233" y="747" on="0"/>
        <pt x="295" y="747" on="0"/>
        <pt x="332" y="735" on="0"/>
        <pt x="347" y="706" on="0"/>
        <pt x="350" y="683" on="0"/>
        <pt x="350" y="660" on="1"/>
        <pt x="350" y="506" on="1"/>
      </contour>
    </TTGlyph>
    <TTGlyph name="daggerdbl" xMin="15" yMin="-189" xMax="512" yMax="747">
      <contour>
        <pt x="433" y="204" on="1"/>
        <pt x="494" y="204" on="0"/>
        <pt x="506" y="170" on="1"/>
        <pt x="512" y="152" on="0"/>
        <pt x="512" y="96" on="0"/>
        <pt x="499" y="61" on="0"/>
        <pt x="485" y="54" on="1"/>
        <pt x="465" y="45" on="0"/>
        <pt x="432" y="45" on="1"/>
        <pt x="350" y="52" on="1"/>
        <pt x="350" y="-103" on="1"/>
        <pt x="350" y="-126" on="0"/>
        <pt x="347" y="-148" on="0"/>
        <pt x="332" y="-177" on="0"/>
        <pt x="294" y="-189" on="0"/>
        <pt x="232" y="-189" on="0"/>
        <pt x="195" y="-177" on="0"/>
        <pt x="180" y="-149" on="0"/>
        <pt x="177" y="-125" on="0"/>
        <pt x="177" y="-102" on="1"/>
        <pt x="177" y="52" on="1"/>
        <pt x="94" y="45" on="1"/>
        <pt x="33" y="45" on="0"/>
        <pt x="21" y="79" on="1"/>
        <pt x="15" y="96" on="0"/>
        <pt x="15" y="153" on="0"/>
        <pt x="26" y="187" on="0"/>
        <pt x="39" y="194" on="1"/>
        <pt x="58" y="204" on="0"/>
        <pt x="95" y="204" on="1"/>
        <pt x="177" y="198" on="1"/>
        <pt x="177" y="360" on="1"/>
        <pt x="91" y="354" on="1"/>
        <pt x="33" y="354" on="0"/>
        <pt x="21" y="388" on="1"/>
        <pt x="15" y="406" on="0"/>
        <pt x="15" y="462" on="0"/>
        <pt x="28" y="497" on="0"/>
        <pt x="42" y="504" on="1"/>
        <pt x="62" y="513" on="0"/>
        <pt x="95" y="513" on="1"/>
        <pt x="177" y="506" on="1"/>
        <pt x="177" y="664" on="1"/>
        <pt x="177" y="686" on="0"/>
        <pt x="180" y="708" on="0"/>
        <pt x="196" y="736" on="0"/>
        <pt x="233" y="747" on="0"/>
        <pt x="295" y="747" on="0"/>
        <pt x="332" y="735" on="0"/>
        <pt x="347" y="706" on="0"/>
        <pt x="350" y="683" on="0"/>
        <pt x="350" y="660" on="1"/>
        <pt x="350" y="506" on="1"/>
        <pt x="433" y="513" on="1"/>
        <pt x="494" y="513" on="0"/>
        <pt x="506" y="479" on="1"/>
        <pt x="512" y="462" on="0"/>
        <pt x="512" y="405" on="0"/>
        <pt x="501" y="371" on="0"/>
        <pt x="488" y="364" on="1"/>
        <pt x="469" y="354" on="0"/>
        <pt x="432" y="354" on="1"/>
        <pt x="350" y="360" on="1"/>
        <pt x="350" y="198" on="1"/>
      </contour>
    </TTGlyph>
    <TTGlyph name="degree" xMin="25" yMin="407" xMax="382" yMax="768">
      <contour>
        <pt x="25" y="665" on="0"/>
        <pt x="134" y="768" on="0"/>
        <pt x="274" y="768" on="0"/>
        <pt x="382" y="666" on="0"/>
        <pt x="382" y="506" on="0"/>
        <pt x="271" y="407" on="0"/>
        <pt x="136" y="407" on="0"/>
        <pt x="25" y="508" on="0"/>
      </contour>
      <contour>
        <pt x="181" y="523" on="0"/>
        <pt x="225" y="523" on="0"/>
        <pt x="267" y="555" on="0"/>
        <pt x="267" y="620" on="0"/>
        <pt x="227" y="652" on="0"/>
        <pt x="181" y="652" on="0"/>
        <pt x="140" y="619" on="0"/>
        <pt x="140" y="555" on="0"/>
      </contour>
    </TTGlyph>
    <TTGlyph name="dieresis" xMin="40" yMin="595" xMax="489" yMax="773">
      <contour>
        <pt x="161" y="595" on="0"/>
        <pt x="97" y="595" on="0"/>
        <pt x="59" y="607" on="0"/>
        <pt x="43" y="638" on="0"/>
        <pt x="40" y="661" on="0"/>
        <pt x="41" y="710" on="0"/>
        <pt x="44" y="731" on="0"/>
        <pt x="59" y="761" on="0"/>
        <pt x="98" y="773" on="0"/>
        <pt x="162" y="773" on="0"/>
        <pt x="200" y="761" on="0"/>
        <pt x="216" y="730" on="0"/>
        <pt x="219" y="707" on="0"/>
        <pt x="219" y="660" on="0"/>
        <pt x="216" y="637" on="0"/>
        <pt x="200" y="607" on="0"/>
      </contour>
      <contour>
        <pt x="431" y="595" on="0"/>
        <pt x="367" y="595" on="0"/>
        <pt x="329" y="607" on="0"/>
        <pt x="313" y="638" on="0"/>
        <pt x="310" y="661" on="0"/>
        <pt x="310" y="709" on="0"/>
        <pt x="313" y="732" on="0"/>
        <pt x="329" y="761" on="0"/>
        <pt x="368" y="773" on="0"/>
        <pt x="432" y="773" on="0"/>
        <pt x="470" y="761" on="0"/>
        <pt x="486" y="730" on="0"/>
        <pt x="489" y="707" on="0"/>
        <pt x="489" y="660" on="0"/>
        <pt x="486" y="637" on="0"/>
        <pt x="470" y="607" on="0"/>
      </contour>
    </TTGlyph>
    <TTGlyph name="divide" xMin="25" yMin="2" xMax="478" yMax="546">
      <contour>
        <pt x="405" y="346" on="1"/>
        <pt x="462" y="346" on="0"/>
        <pt x="472" y="316" on="1"/>
        <pt x="478" y="300" on="0"/>
        <pt x="478" y="248" on="0"/>
        <pt x="468" y="218" on="0"/>
        <pt x="456" y="212" on="1"/>
        <pt x="438" y="202" on="0"/>
        <pt x="404" y="202" on="1"/>
        <pt x="95" y="202" on="1"/>
        <pt x="42" y="202" on="0"/>
        <pt x="30" y="234" on="1"/>
        <pt x="25" y="249" on="0"/>
        <pt x="25" y="300" on="0"/>
        <pt x="37" y="331" on="0"/>
        <pt x="50" y="337" on="1"/>
        <pt x="70" y="346" on="0"/>
        <pt x="99" y="346" on="1"/>
      </contour>
      <contour>
        <pt x="188" y="153" on="0"/>
        <pt x="223" y="165" on="0"/>
        <pt x="299" y="165" on="0"/>
        <pt x="333" y="131" on="0"/>
        <pt x="333" y="86" on="1"/>
        <pt x="333" y="82" on="1"/>
        <pt x="333" y="47" on="0"/>
        <pt x="324" y="30" on="1"/>
        <pt x="310" y="2" on="0"/>
        <pt x="204" y="2" on="0"/>
        <pt x="186" y="21" on="1"/>
        <pt x="170" y="36" on="0"/>
        <pt x="171" y="106" on="0"/>
        <pt x="174" y="126" on="0"/>
      </contour>
      <contour>
        <pt x="316" y="395" on="0"/>
        <pt x="280" y="383" on="0"/>
        <pt x="204" y="383" on="0"/>
        <pt x="170" y="418" on="0"/>
        <pt x="171" y="487" on="0"/>
        <pt x="174" y="507" on="0"/>
        <pt x="181" y="520" on="1"/>
        <pt x="194" y="546" on="0"/>
        <pt x="298" y="546" on="0"/>
        <pt x="318" y="528" on="1"/>
        <pt x="333" y="513" on="0"/>
        <pt x="333" y="467" on="1"/>
        <pt x="333" y="463" on="1"/>
        <pt x="333" y="428" on="0"/>
      </contour>
    </TTGlyph>
    <TTGlyph name="dollar" xMin="25" yMin="-81" xMax="450" yMax="775">
      <contour>
        <pt x="450" y="243" on="1"/>
        <pt x="450" y="165" on="0"/>
        <pt x="360" y="71" on="0"/>
        <pt x="296" y="56" on="1"/>
        <pt x="296" y="-8" on="1"/>
        <pt x="296" y="-43" on="0"/>
        <pt x="283" y="-71" on="0"/>
        <pt x="258" y="-81" on="0"/>
        <pt x="216" y="-81" on="0"/>
        <pt x="191" y="-71" on="0"/>
        <pt x="186" y="-58" on="1"/>
        <pt x="179" y="-41" on="0"/>
        <pt x="179" y="-7" on="1"/>
        <pt x="179" y="55" on="1"/>
        <pt x="138" y="64" on="0"/>
        <pt x="72" y="106" on="0"/>
        <pt x="59" y="122" on="1"/>
        <pt x="46" y="139" on="1"/>
        <pt x="25" y="166" on="0"/>
        <pt x="25" y="206" on="0"/>
        <pt x="59" y="239" on="1"/>
        <pt x="79" y="258" on="0"/>
        <pt x="124" y="258" on="0"/>
        <pt x="164" y="218" on="1"/>
        <pt x="195" y="180" on="0"/>
        <pt x="234" y="180" on="1"/>
        <pt x="308" y="180" on="0"/>
        <pt x="308" y="241" on="1"/>
        <pt x="308" y="263" on="0"/>
        <pt x="252" y="287" on="0"/>
        <pt x="172" y="306" on="0"/>
        <pt x="92" y="338" on="0"/>
        <pt x="36" y="416" on="0"/>
        <pt x="36" y="536" on="0"/>
        <pt x="112" y="632" on="0"/>
        <pt x="179" y="646" on="1"/>
        <pt x="179" y="702" on="1"/>
        <pt x="179" y="736" on="0"/>
        <pt x="185" y="751" on="1"/>
        <pt x="195" y="775" on="0"/>
        <pt x="238" y="775" on="1"/>
        <pt x="265" y="775" on="0"/>
        <pt x="292" y="752" on="0"/>
        <pt x="296" y="726" on="0"/>
        <pt x="296" y="701" on="1"/>
        <pt x="296" y="645" on="1"/>
        <pt x="324" y="639" on="0"/>
        <pt x="370" y="617" on="0"/>
        <pt x="379" y="610" on="1"/>
        <pt x="388" y="602" on="1"/>
        <pt x="392" y="599" on="1"/>
        <pt x="417" y="576" on="0"/>
        <pt x="417" y="546" on="0"/>
        <pt x="370" y="476" on="0"/>
        <pt x="342" y="476" on="1"/>
        <pt x="324" y="476" on="0"/>
        <pt x="299" y="494" on="0"/>
        <pt x="285" y="506" on="0"/>
        <pt x="279" y="510" on="1"/>
        <pt x="262" y="521" on="0"/>
        <pt x="210" y="521" on="0"/>
        <pt x="176" y="496" on="0"/>
        <pt x="176" y="452" on="0"/>
        <pt x="217" y="425" on="0"/>
        <pt x="277" y="416" on="0"/>
        <pt x="349" y="395" on="0"/>
        <pt x="409" y="367" on="0"/>
        <pt x="450" y="296" on="0"/>
      </contour>
    </TTGlyph>
    <TTGlyph name="dotaccent" xMin="60" yMin="703" xMax="235" yMax="878">
      <contour>
        <pt x="217" y="715" on="0"/>
        <pt x="179" y="703" on="0"/>
        <pt x="116" y="703" on="0"/>
        <pt x="78" y="715" on="0"/>
        <pt x="63" y="745" on="0"/>
        <pt x="60" y="768" on="0"/>
        <pt x="60" y="814" on="0"/>
        <pt x="63" y="837" on="0"/>
        <pt x="70" y="852" on="1"/>
        <pt x="84" y="878" on="0"/>
        <pt x="148" y="878" on="1"/>
        <pt x="211" y="878" on="0"/>
        <pt x="224" y="851" on="1"/>
        <pt x="232" y="836" on="0"/>
        <pt x="235" y="813" on="0"/>
        <pt x="235" y="767" on="0"/>
        <pt x="232" y="744" on="0"/>
      </contour>
    </TTGlyph>
    <TTGlyph name="dotlessi" xMin="40" yMin="0" xMax="215" yMax="526">
      <contour>
        <pt x="40" y="439" on="1"/>
        <pt x="40" y="462" on="0"/>
        <pt x="43" y="485" on="0"/>
        <pt x="50" y="500" on="1"/>
        <pt x="64" y="526" on="0"/>
        <pt x="128" y="526" on="1"/>
        <pt x="176" y="526" on="0"/>
        <pt x="196" y="509" on="1"/>
        <pt x="213" y="495" on="0"/>
        <pt x="214" y="466" on="1"/>
        <pt x="215" y="456" on="0"/>
        <pt x="215" y="437" on="1"/>
        <pt x="215" y="87" on="1"/>
        <pt x="215" y="64" on="0"/>
        <pt x="212" y="41" on="0"/>
        <pt x="204" y="26" on="1"/>
        <pt x="191" y="0" on="0"/>
        <pt x="127" y="0" on="1"/>
        <pt x="64" y="0" on="0"/>
        <pt x="50" y="27" on="1"/>
        <pt x="43" y="42" on="0"/>
        <pt x="40" y="64" on="0"/>
        <pt x="40" y="88" on="1"/>
      </contour>
    </TTGlyph>
    <TTGlyph name="e" xMin="25" yMin="-13" xMax="548" yMax="538">
      <contour>
        <pt x="548" y="265" on="0"/>
        <pt x="487" y="206" on="0"/>
        <pt x="450" y="206" on="1"/>
        <pt x="213" y="206" on="1"/>
        <pt x="213" y="178" on="0"/>
        <pt x="279" y="140" on="0"/>
        <pt x="312" y="140" on="1"/>
        <pt x="370" y="140" on="0"/>
        <pt x="403" y="152" on="1"/>
        <pt x="414" y="156" on="1"/>
        <pt x="438" y="167" on="0"/>
        <pt x="454" y="167" on="1"/>
        <pt x="486" y="167" on="0"/>
        <pt x="509" y="122" on="1"/>
        <pt x="522" y="95" on="0"/>
        <pt x="522" y="76" on="1"/>
        <pt x="522" y="-13" on="0"/>
        <pt x="309" y="-13" on="1"/>
        <pt x="235" y="-13" on="0"/>
        <pt x="120" y="38" on="0"/>
        <pt x="88" y="80" on="1"/>
        <pt x="25" y="161" on="0"/>
        <pt x="25" y="261" on="1"/>
        <pt x="25" y="387" on="0"/>
        <pt x="188" y="538" on="0"/>
        <pt x="310" y="538" on="1"/>
        <pt x="449" y="538" on="0"/>
        <pt x="514" y="440" on="1"/>
        <pt x="548" y="388" on="0"/>
      </contour>
      <contour>
        <pt x="337" y="297" on="1"/>
        <pt x="375" y="297" on="0"/>
        <pt x="375" y="329" on="1"/>
        <pt x="375" y="352" on="0"/>
        <pt x="340" y="380" on="0"/>
        <pt x="275" y="380" on="0"/>
        <pt x="211" y="327" on="0"/>
        <pt x="211" y="297" on="1"/>
      </contour>
    </TTGlyph>
    <TTGlyph name="eacute" xMin="25" yMin="-13" xMax="548" yMax="774">
      <contour>
        <pt x="256" y="576" on="1"/>
        <pt x="242" y="569" on="0"/>
        <pt x="226" y="569" on="1"/>
        <pt x="196" y="569" on="0"/>
        <pt x="177" y="628" on="1"/>
        <pt x="169" y="652" on="0"/>
        <pt x="169" y="686" on="0"/>
        <pt x="176" y="695" on="1"/>
        <pt x="185" y="708" on="0"/>
        <pt x="212" y="716" on="1"/>
        <pt x="377" y="767" on="1"/>
        <pt x="403" y="774" on="0"/>
        <pt x="407" y="774" on="1"/>
        <pt x="437" y="774" on="0"/>
        <pt x="455" y="715" on="1"/>
        <pt x="463" y="691" on="0"/>
        <pt x="463" y="658" on="0"/>
        <pt x="456" y="649" on="1"/>
        <pt x="447" y="636" on="0"/>
        <pt x="420" y="628" on="1"/>
      </contour>
      <contour>
        <pt x="548" y="265" on="0"/>
        <pt x="487" y="206" on="0"/>
        <pt x="450" y="206" on="1"/>
        <pt x="213" y="206" on="1"/>
        <pt x="213" y="178" on="0"/>
        <pt x="279" y="140" on="0"/>
        <pt x="312" y="140" on="1"/>
        <pt x="370" y="140" on="0"/>
        <pt x="403" y="152" on="1"/>
        <pt x="414" y="156" on="1"/>
        <pt x="438" y="167" on="0"/>
        <pt x="454" y="167" on="1"/>
        <pt x="486" y="167" on="0"/>
        <pt x="509" y="122" on="1"/>
        <pt x="522" y="95" on="0"/>
        <pt x="522" y="76" on="1"/>
        <pt x="522" y="-13" on="0"/>
        <pt x="309" y="-13" on="1"/>
        <pt x="235" y="-13" on="0"/>
        <pt x="120" y="38" on="0"/>
        <pt x="88" y="80" on="1"/>
        <pt x="25" y="161" on="0"/>
        <pt x="25" y="261" on="1"/>
        <pt x="25" y="387" on="0"/>
        <pt x="188" y="538" on="0"/>
        <pt x="310" y="538" on="1"/>
        <pt x="449" y="538" on="0"/>
        <pt x="514" y="440" on="1"/>
        <pt x="548" y="388" on="0"/>
      </contour>
      <contour>
        <pt x="337" y="297" on="1"/>
        <pt x="375" y="297" on="0"/>
        <pt x="375" y="329" on="1"/>
        <pt x="375" y="352" on="0"/>
        <pt x="340" y="380" on="0"/>
        <pt x="275" y="380" on="0"/>
        <pt x="211" y="327" on="0"/>
        <pt x="211" y="297" on="1"/>
      </contour>
    </TTGlyph>
    <TTGlyph name="ecircumflex" xMin="25" yMin="-13" xMax="548" yMax="774">
      <contour>
        <pt x="297" y="774" on="1"/>
        <pt x="320" y="769" on="1"/>
        <pt x="413" y="739" on="0"/>
        <pt x="496" y="711" on="0"/>
        <pt x="496" y="676" on="1"/>
        <pt x="496" y="657" on="0"/>
        <pt x="485" y="636" on="1"/>
        <pt x="458" y="583" on="0"/>
        <pt x="425" y="583" on="1"/>
        <pt x="416" y="583" on="0"/>
        <pt x="393" y="590" on="1"/>
        <pt x="297" y="632" on="1"/>
        <pt x="204" y="592" on="1"/>
        <pt x="190" y="585" on="0"/>
        <pt x="170" y="585" on="1"/>
        <pt x="132" y="585" on="0"/>
        <pt x="108" y="636" on="1"/>
        <pt x="96" y="662" on="0"/>
        <pt x="96" y="678" on="1"/>
        <pt x="96" y="710" on="0"/>
        <pt x="134" y="723" on="1"/>
        <pt x="273" y="769" on="1"/>
      </contour>
      <contour>
        <pt x="548" y="265" on="0"/>
        <pt x="487" y="206" on="0"/>
        <pt x="450" y="206" on="1"/>
        <pt x="213" y="206" on="1"/>
        <pt x="213" y="178" on="0"/>
        <pt x="279" y="140" on="0"/>
        <pt x="312" y="140" on="1"/>
        <pt x="370" y="140" on="0"/>
        <pt x="403" y="152" on="1"/>
        <pt x="414" y="156" on="1"/>
        <pt x="438" y="167" on="0"/>
        <pt x="454" y="167" on="1"/>
        <pt x="486" y="167" on="0"/>
        <pt x="509" y="122" on="1"/>
        <pt x="522" y="95" on="0"/>
        <pt x="522" y="76" on="1"/>
        <pt x="522" y="-13" on="0"/>
        <pt x="309" y="-13" on="1"/>
        <pt x="235" y="-13" on="0"/>
        <pt x="120" y="38" on="0"/>
        <pt x="88" y="80" on="1"/>
        <pt x="25" y="161" on="0"/>
        <pt x="25" y="261" on="1"/>
        <pt x="25" y="387" on="0"/>
        <pt x="188" y="538" on="0"/>
        <pt x="310" y="538" on="1"/>
        <pt x="449" y="538" on="0"/>
        <pt x="514" y="440" on="1"/>
        <pt x="548" y="388" on="0"/>
      </contour>
      <contour>
        <pt x="337" y="297" on="1"/>
        <pt x="375" y="297" on="0"/>
        <pt x="375" y="329" on="1"/>
        <pt x="375" y="352" on="0"/>
        <pt x="340" y="380" on="0"/>
        <pt x="275" y="380" on="0"/>
        <pt x="211" y="327" on="0"/>
        <pt x="211" y="297" on="1"/>
      </contour>
    </TTGlyph>
    <TTGlyph name="edieresis" xMin="25" yMin="-13" xMax="548" yMax="773">
      <contour>
        <pt x="455" y="595" on="0"/>
        <pt x="391" y="595" on="0"/>
        <pt x="353" y="607" on="0"/>
        <pt x="337" y="638" on="0"/>
        <pt x="334" y="661" on="0"/>
        <pt x="334" y="709" on="0"/>
        <pt x="337" y="732" on="0"/>
        <pt x="353" y="761" on="0"/>
        <pt x="392" y="773" on="0"/>
        <pt x="456" y="773" on="0"/>
        <pt x="494" y="761" on="0"/>
        <pt x="510" y="730" on="0"/>
        <pt x="513" y="707" on="0"/>
        <pt x="513" y="660" on="0"/>
        <pt x="510" y="637" on="0"/>
        <pt x="494" y="607" on="0"/>
      </contour>
      <contour>
        <pt x="185" y="595" on="0"/>
        <pt x="121" y="595" on="0"/>
        <pt x="83" y="607" on="0"/>
        <pt x="67" y="638" on="0"/>
        <pt x="64" y="661" on="0"/>
        <pt x="65" y="710" on="0"/>
        <pt x="68" y="731" on="0"/>
        <pt x="83" y="761" on="0"/>
        <pt x="122" y="773" on="0"/>
        <pt x="186" y="773" on="0"/>
        <pt x="224" y="761" on="0"/>
        <pt x="240" y="730" on="0"/>
        <pt x="243" y="707" on="0"/>
        <pt x="243" y="660" on="0"/>
        <pt x="240" y="637" on="0"/>
        <pt x="224" y="607" on="0"/>
      </contour>
      <contour>
        <pt x="548" y="265" on="0"/>
        <pt x="487" y="206" on="0"/>
        <pt x="450" y="206" on="1"/>
        <pt x="213" y="206" on="1"/>
        <pt x="213" y="178" on="0"/>
        <pt x="279" y="140" on="0"/>
        <pt x="312" y="140" on="1"/>
        <pt x="370" y="140" on="0"/>
        <pt x="403" y="152" on="1"/>
        <pt x="414" y="156" on="1"/>
        <pt x="438" y="167" on="0"/>
        <pt x="454" y="167" on="1"/>
        <pt x="486" y="167" on="0"/>
        <pt x="509" y="122" on="1"/>
        <pt x="522" y="95" on="0"/>
        <pt x="522" y="76" on="1"/>
        <pt x="522" y="-13" on="0"/>
        <pt x="309" y="-13" on="1"/>
        <pt x="235" y="-13" on="0"/>
        <pt x="120" y="38" on="0"/>
        <pt x="88" y="80" on="1"/>
        <pt x="25" y="161" on="0"/>
        <pt x="25" y="261" on="1"/>
        <pt x="25" y="387" on="0"/>
        <pt x="188" y="538" on="0"/>
        <pt x="310" y="538" on="1"/>
        <pt x="449" y="538" on="0"/>
        <pt x="514" y="440" on="1"/>
        <pt x="548" y="388" on="0"/>
      </contour>
      <contour>
        <pt x="337" y="297" on="1"/>
        <pt x="375" y="297" on="0"/>
        <pt x="375" y="329" on="1"/>
        <pt x="375" y="352" on="0"/>
        <pt x="340" y="380" on="0"/>
        <pt x="275" y="380" on="0"/>
        <pt x="211" y="327" on="0"/>
        <pt x="211" y="297" on="1"/>
      </contour>
    </TTGlyph>
    <TTGlyph name="egrave" xMin="25" yMin="-13" xMax="548" yMax="774">
      <contour>
        <pt x="379" y="569" on="1"/>
        <pt x="349" y="576" on="1"/>
        <pt x="184" y="628" on="1"/>
        <pt x="157" y="636" on="0"/>
        <pt x="141" y="658" on="0"/>
        <pt x="141" y="691" on="0"/>
        <pt x="149" y="715" on="1"/>
        <pt x="168" y="774" on="0"/>
        <pt x="198" y="774" on="1"/>
        <pt x="202" y="774" on="0"/>
        <pt x="228" y="767" on="1"/>
        <pt x="393" y="716" on="1"/>
        <pt x="407" y="711" on="0"/>
        <pt x="414" y="708" on="1"/>
        <pt x="436" y="697" on="0"/>
        <pt x="436" y="652" on="0"/>
        <pt x="428" y="628" on="1"/>
        <pt x="409" y="569" on="0"/>
      </contour>
      <contour>
        <pt x="548" y="265" on="0"/>
        <pt x="487" y="206" on="0"/>
        <pt x="450" y="206" on="1"/>
        <pt x="213" y="206" on="1"/>
        <pt x="213" y="178" on="0"/>
        <pt x="279" y="140" on="0"/>
        <pt x="312" y="140" on="1"/>
        <pt x="370" y="140" on="0"/>
        <pt x="403" y="152" on="1"/>
        <pt x="414" y="156" on="1"/>
        <pt x="438" y="167" on="0"/>
        <pt x="454" y="167" on="1"/>
        <pt x="486" y="167" on="0"/>
        <pt x="509" y="122" on="1"/>
        <pt x="522" y="95" on="0"/>
        <pt x="522" y="76" on="1"/>
        <pt x="522" y="-13" on="0"/>
        <pt x="309" y="-13" on="1"/>
        <pt x="235" y="-13" on="0"/>
        <pt x="120" y="38" on="0"/>
        <pt x="88" y="80" on="1"/>
        <pt x="25" y="161" on="0"/>
        <pt x="25" y="261" on="1"/>
        <pt x="25" y="387" on="0"/>
        <pt x="188" y="538" on="0"/>
        <pt x="310" y="538" on="1"/>
        <pt x="449" y="538" on="0"/>
        <pt x="514" y="440" on="1"/>
        <pt x="548" y="388" on="0"/>
      </contour>
      <contour>
        <pt x="337" y="297" on="1"/>
        <pt x="375" y="297" on="0"/>
        <pt x="375" y="329" on="1"/>
        <pt x="375" y="352" on="0"/>
        <pt x="340" y="380" on="0"/>
        <pt x="275" y="380" on="0"/>
        <pt x="211" y="327" on="0"/>
        <pt x="211" y="297" on="1"/>
      </contour>
    </TTGlyph>
</ttFont>
